<?xml version="1.0" encoding="utf-8"?>
<!-- Generator: Adobe Illustrator 16.0.3, SVG Export Plug-In . SVG Version: 6.00 Build 0)  -->
<!DOCTYPE svg PUBLIC "-//W3C//DTD SVG 1.1//EN" "http://www.w3.org/Graphics/SVG/1.1/DTD/svg11.dtd">
<svg version="1.1" id="Capa_1" xmlns="http://www.w3.org/2000/svg" xmlns:xlink="http://www.w3.org/1999/xlink" x="0px" y="0px"
	 width="590.631px" height="595.282px" viewBox="0 0 590.631 595.282" enable-background="new 0 0 590.631 595.282"
	 xml:space="preserve">
<g id="XMLID_121_">
	<path id="XMLID_126_" fill="#191919" d="M427.055,306.069c4.677-2.785,6.216-8.823,3.433-13.498l-8.615-14.454l69.104-11.987
		c7.847-1.364,14.55-6.408,18.052-13.563l29.315-59.97l-15.932,66.504c-2.459,10.235-10.771,18.566-21.799,20.479l-7.105,1.236
		l-24.174,4.196V387.93h0.021v177.557c0,16.459,13.34,29.789,29.797,29.789c6.799,0,12.992-2.365,18-6.193
		c-3.838-7.049-6.215-15.004-6.215-23.596V387.932h19.864v177.557c0,16.459,13.338,29.789,29.797,29.789
		c16.457,0,29.795-13.332,29.795-29.789V387.932h0.238v-75.887V177.271c0-27.606-22.375-49.987-49.998-49.987
		c-39.381,0-71.303,31.926-71.303,71.303v2.759l24.367-30.521l-23.726,48.552l-75.274,13.05l-5.117-8.586
		c-2.785-4.704-8.844-6.196-13.504-3.429l-63.646,37.859c-2.237,1.338-3.877,3.508-4.498,6.041
		c-0.668,2.523-0.252,5.209,1.072,7.447l40.879,68.75c1.34,2.252,3.502,3.867,6.035,4.514c0.803,0.199,1.615,0.299,2.439,0.299
		c1.75,0,3.479-0.471,5.021-1.381L427.055,306.069z M381.6,310.188l-30.813-51.806l23.191-13.82
		c-3.111,5.006-4.677,11.014-3.578,17.284c2.082,12.087,12.561,20.587,24.396,20.587c1.443,0,2.865-0.115,4.312-0.36l2-0.351
		l7.405,12.465L381.6,310.188z"/>
	<path id="XMLID_125_" fill="#191919" d="M0,435.483c0,7.703,6.246,13.949,13.949,13.949h91.123L62.676,568.995
		c-3.643,10.244,1.711,21.504,11.977,25.145c2.162,0.771,4.385,1.143,6.563,1.143c8.104,0,15.701-5.045,18.563-13.109
		l47.076-132.738h81.604l47.078,132.738c2.857,8.064,10.457,13.109,18.553,13.109c2.185,0,4.405-0.371,6.569-1.143
		c10.258-3.641,15.613-14.898,11.979-25.145l-42.403-119.563h91.104c7.705,0,13.951-6.246,13.951-13.949v-31.934
		c0-7.705-6.246-13.951-13.951-13.951H230.965c3.332-1.129,5.807-3.979,6.334-7.477l1.184-8.055c0.06-0.344,0.275-0.621,0.586-0.779
		c0.296-0.145,0.666-0.135,0.979,0.041l14.06,8.256c0.236,0.148,0.547,0.178,0.822,0.1c0.289-0.088,0.524-0.293,0.637-0.555
		l3.586-7.605c0.137-0.252,0.346-0.447,0.619-0.545c0.252-0.088,0.528-0.066,0.778,0.061l7.658,3.893
		c0.312,0.156,0.683,0.156,0.972-0.02c0.311-0.168,0.512-0.467,0.524-0.818l1.269-15.822c0.034-0.352,0.248-0.67,0.561-0.84
		c0.334-0.152,0.689-0.145,1.002,0.027l17.992,10.82c0.25,0.146,0.522,0.186,0.799,0.117c0.25-0.066,0.488-0.246,0.621-0.484
		l4.948-8.457c0.272-0.453,0.813-0.631,1.305-0.436l9.154,3.934c0.313,0.139,0.618,0.121,0.918-0.037
		c0.268-0.154,0.467-0.428,0.524-0.75l1.844-11.783c0.062-0.35,0.3-0.631,0.586-0.777c0.332-0.146,0.705-0.113,0.992,0.068
		l9.666,6.174c2.355,1.48,5.215,1.867,7.865,1.045l2.883-0.9c2.746-0.854,4.969-2.928,5.998-5.615
		c1.031-2.701,0.777-5.719-0.703-8.191l-39.143-65.857c-1.283-2.14-3.373-3.688-5.787-4.303c-2.436-0.622-4.984-0.251-7.146,1.023
		l-157.328,93.604c-4.482,2.66-5.955,8.438-3.289,12.91l4.77,8.043H13.95c-7.703,0-13.949,6.246-13.949,13.947L0,435.483L0,435.483z
		"/>
	<path id="XMLID_122_" fill="#191919" d="M588.039,58.059C588.039,25.974,562.08,0,529.998,0c-32.053,0-58.053,25.974-58.053,58.059
		c0,32.061,25.998,58.041,58.053,58.041C562.08,116.099,588.039,90.119,588.039,58.059z"/>
</g>
</svg>
