<?xml version="1.0" encoding="utf-8"?>
<!-- Generator: Adobe Illustrator 16.0.3, SVG Export Plug-In . SVG Version: 6.00 Build 0)  -->
<!DOCTYPE svg PUBLIC "-//W3C//DTD SVG 1.1//EN" "http://www.w3.org/Graphics/SVG/1.1/DTD/svg11.dtd">
<svg version="1.1" id="Layer_1" xmlns="http://www.w3.org/2000/svg" xmlns:xlink="http://www.w3.org/1999/xlink" x="0px" y="0px"
	 width="580.156px" height="595.27px" viewBox="0 0 580.156 595.27" enable-background="new 0 0 580.156 595.27"
	 xml:space="preserve">
<g>
	<path fill="#191919" d="M11.294,391.838C2.853,394.434-1.884,403.381,0.71,411.82c2.607,8.479,11.594,13.172,19.982,10.58
		l5.053-1.553l52.459,79.51c20.758-17.01,49.516-19.678,72.934-7.277c14.516,7.684,24.986,20.041,30.574,34.246l76.525-23.539
		c14.987-4.611,25.143-18.557,24.93-34.238l-1.738-127.354l60.359-18.568c-10.035-5.348-18.015-14.322-21.91-25.558
		c-0.123-0.35-0.226-0.702-0.338-1.053L11.294,391.838L11.294,391.838z"/>
	<circle fill="#191919" cx="120.151" cy="551.607" r="43.652"/>
	<circle fill="#191919" cx="422.106" cy="51.899" r="51.899"/>
	<path fill="#191919" d="M341.205,290.673c4.257,12.276,17.661,18.763,29.919,14.513l88.755-30.788
		c7.438-2.581,13.093-8.713,15.062-16.339l19.781-76.636l2.787,77.132c-0.254,11.595-10.461,30.31-30.23,37.168l-35.026,12.15
		l2.811,10.342l-37.237,74.703c-1.948,3.91-2.962,8.219-2.962,12.588v161.547c0,15.582,12.634,28.217,28.216,28.217
		c15.583,0,28.217-12.635,28.217-28.217V412.146l40.49-81.229c0.742-1.488,2.084-2.588,3.688-3.023
		c2.182-0.592,4.505,0.129,5.969,1.85c1.465,1.721,1.801,4.133,0.863,6.189l-28.419,62.432c-2.953,6.488-3.342,13.855-1.086,20.617
		l52.365,156.99c4.941,14.809,20.942,22.762,35.695,17.838c14.781-4.932,22.77-20.914,17.839-35.695l-48.855-146.469l38.653-84.906
		c3.51-7.715,3.231-16.17-0.006-23.326l-45.99-169.266c-5.077-18.685-24.341-29.717-43.026-24.64l-60.334,16.394
		c-18.684,5.077-29.717,24.341-24.64,43.026l13.526,49.785l8.991-3.119l33.466-50.949l-17.929,69.452l-76.844,26.657
		C343.444,265.008,336.948,278.404,341.205,290.673L341.205,290.673z"/>
</g>
</svg>
