<?xml version="1.0" encoding="utf-8"?>
<!-- Generator: Adobe Illustrator 16.0.3, SVG Export Plug-In . SVG Version: 6.00 Build 0)  -->
<!DOCTYPE svg PUBLIC "-//W3C//DTD SVG 1.1//EN" "http://www.w3.org/Graphics/SVG/1.1/DTD/svg11.dtd">
<svg version="1.1" id="Capa_1" xmlns="http://www.w3.org/2000/svg" xmlns:xlink="http://www.w3.org/1999/xlink" x="0px" y="0px"
	 width="382.382px" height="595.281px" viewBox="0 0 382.382 595.281" enable-background="new 0 0 382.382 595.281"
	 xml:space="preserve">
<g>
	<path fill="#191919" d="M382.217,283.419c-2.045-25.705-4.078-51.387-6.113-77.08c-2.492-31.371-28.811-56.292-60.83-54.549
		c-10.191,0.548-19.836,3.99-28.174,9.433c-13.902-3.387-28.23-4.482-42.457-1.096c-1.262,0.302-2.436,0.749-3.654,1.106
		c-18.463-47.106-95.362-45.955-109.298,4.124c-29.48,31.874-66.384,55.388-108.092,68.955
		c-41.484,13.5-23.727,79.148,18.083,65.535c33.729-10.975,64.104-26.52,91.386-46.334c3.185,33.338,8.448,66.396,15.813,99.476
		c-46.111,64.651-66.553,135.729-53.846,217.639c6.695,43.205,72.175,24.812,65.524-18.061
		c-8.829-56.984,7.376-109.054,38.981-154.65c0.939,0.021,1.879,0.066,2.816,0.021c12.338,56.493,26.432,112.528,42.188,168.164
		c11.912,42.108,77.504,24.204,65.523-18.052c-18.406-64.998-34.668-130.578-48.303-196.737c1.498-7.611,1.453-15.98-0.613-25
		c-1.018-4.449-1.922-8.908-2.816-13.334c4.807,2.135,9.711,4.125,14.854,5.733c1.543,0.469,2.963,0.693,4.313,0.76
		c11.021,15.804,29.359,25.939,50.146,24.832C358.514,342.595,384.7,314.8,382.217,283.419z M250.801,268.398
		c-3.15-23.659-4.961-47.374-5.531-71.704c5.588-2.425,11.521-3.666,17.725-3.844c-1.945,6.27-2.828,12.919-2.27,19.781
		c1.756,22.251,3.51,44.491,5.309,66.742C260.424,276.333,255.372,272.646,250.801,268.398z"/>
	<circle fill="#191919" cx="157.585" cy="57.611" r="57.611"/>
</g>
</svg>
