<?xml version="1.0" encoding="utf-8"?>
<!-- Generator: Adobe Illustrator 16.0.3, SVG Export Plug-In . SVG Version: 6.00 Build 0)  -->
<!DOCTYPE svg PUBLIC "-//W3C//DTD SVG 1.1//EN" "http://www.w3.org/Graphics/SVG/1.1/DTD/svg11.dtd">
<svg version="1.1" id="Capa_1" xmlns="http://www.w3.org/2000/svg" xmlns:xlink="http://www.w3.org/1999/xlink" x="0px" y="0px"
	 width="442.667px" height="582.296px" viewBox="0 0 442.667 582.296" enable-background="new 0 0 442.667 582.296"
	 xml:space="preserve">
<g>
	<path fill="#191919" d="M442.667,429.55v-31.91H153.43v31.91H442.667z"/>
	<path fill="#191919" d="M0.677,142.765c10.865,52.977,35.865,100.742,56.304,150.371c-1.157,0.113-2.223,0.304-3.313,0.517
		c-24.662-2.179-51.844,17.382-42.889,48.282C31.883,414.72,59.598,485.81,87.824,556.07c18.608,46.35,94.521,26.156,75.644-20.83
		c-21.707-54.078-43.103-108.643-61.449-164.104c60.078-0.438,120.357-1.563,180.055-7.225c8-0.752,14.707-3.416,20.168-7.326
		c0.979-0.484,1.979-0.922,2.91-1.471c31.057-17.938,35.326-52.521,22.191-82.822c-26.281-60.63-71.697-113.81-129.314-146.686
		c-51.371-29.326-98.875,23.303-89.729,67.483c-6.632,10.022-13.416,19.955-19.98,30.022
		c-12.168-28.202-23.416-56.719-30.516-86.719c6.135,1.764,12.571,2.764,19.28,2.764c38.427,0,69.572-31.157,69.572-69.584
		C146.655,31.146,115.508,0,77.083,0C38.643,0,7.509,31.157,7.509,69.573c0,14.741,4.607,28.382,12.416,39.64
		C7.396,113.865-2.761,126.034,0.677,142.765z M114.262,292.561c9.414-19.483,21.135-37.584,33.146-55.505
		c20.935,14.135,38.112,32.46,52.202,53.685C171.182,291.841,142.711,292.314,114.262,292.561z"/>
</g>
</svg>
