<?xml version="1.0" encoding="utf-8"?>
<!-- Generator: Adobe Illustrator 16.0.3, SVG Export Plug-In . SVG Version: 6.00 Build 0)  -->
<!DOCTYPE svg PUBLIC "-//W3C//DTD SVG 1.1//EN" "http://www.w3.org/Graphics/SVG/1.1/DTD/svg11.dtd">
<svg version="1.1" id="Capa_1" xmlns="http://www.w3.org/2000/svg" xmlns:xlink="http://www.w3.org/1999/xlink" x="0px" y="0px"
	 width="371.975px" height="594.281px" viewBox="0 0 371.975 594.281" enable-background="new 0 0 371.975 594.281"
	 xml:space="preserve">
<g>
	<g>
		<path fill="#191919" d="M106.698,73.266c1.905,23.288,21.396,41.597,45.177,41.597c23.779,0,43.271-18.31,45.176-41.597H106.698z"
			/>
	</g>
</g>
<g>
	<g>
		<path fill="#191919" d="M203.116,47.856h-2.585c-4.395-16.588-17.047-29.805-33.288-35.009v11.289
			c0,2.915-2.364,5.278-5.279,5.278h-4.085V6.243c0-3.447-2.795-6.243-6.242-6.243c-3.446,0-6.243,2.796-6.243,6.243v23.173h-4.085
			c-2.915,0-5.277-2.363-5.277-5.278V13.002c-16.015,5.308-28.461,18.429-32.813,34.855h-3.061c-3.57,0-6.462,2.892-6.462,6.461
			c-0.001,3.57,2.891,6.461,6.461,6.461c47.237,0,56.216,0,102.961,0c3.569,0,6.462-2.892,6.462-6.461
			C209.58,50.75,206.686,47.856,203.116,47.856z"/>
	</g>
</g>
<path fill="#191919" d="M371.131,106.85c-0.93-1.717-2.539-2.968-4.432-3.447l-20.217-5.124c-1.896-0.479-3.902-0.146-5.539,0.922
	c-1.637,1.067-2.752,2.77-3.078,4.696l-15.174,89.902c-3.951,0.531-7.813,2.087-11.146,4.765l-34.342,27.594l-11.68,10.203
	c-5.858-16.201-13.553-37.777-21.515-60.944c-9.354-27.218-25.243-46.467-53.912-46.467c-2.888,7.543-25.458,66.509-28.763,75.145
	l6.672-31.432c0.468-2.207,0.128-4.51-0.958-6.487l-9.163-16.665l7.838-15.646c0.565-1.027,0.545-2.276-0.051-3.287
	c-0.597-1.009-1.682-1.628-2.854-1.628h-22.358c-1.172,0-2.258,0.619-2.855,1.628c-0.597,1.01-0.614,2.259-0.051,3.287l8.454,15.646
	l-9.197,16.728c-1.066,1.939-1.414,4.193-0.982,6.365l5.834,31.492c-3.022-7.751-24.987-66.189-28.479-75.145
	c-28.665,0-44.557,19.237-53.915,46.467C42.843,223.202,5.552,325.23,5.177,326.256c-3.594,9.826,0.002,20.51,8.091,26.344
	c0,19.174,0,16.185,0,36.716H9.408c-5.196,0-9.408,4.213-9.408,9.407v90.848c0,5.195,4.212,9.406,9.408,9.406h34.438
	c5.195,0,9.407-4.211,9.407-9.406v-90.848c0-5.194-4.212-9.407-9.407-9.407h-3.981c0-13.193,0-23.478,0-36.616
	c3.637-2.585,6.563-6.251,8.211-10.757c0.318-0.87,27.097-74.137,45.388-125.917c-1.185,9.684,2.316-9.375-29.488,154.833
	c8.637,6.255,14.269,16.411,14.269,27.866v2.486c3.818,0,8.067,0,12.664,0v165.665c0,15.134,12.271,27.404,27.405,27.404
	c15.136,0,27.406-12.271,27.406-27.404V401.209c3.939,0,7.894,0,11.833,0v165.665c0,15.136,12.271,27.406,27.406,27.406
	s27.406-12.271,27.406-27.406V401.209c6.606,0,12.509,0,17.427,0c3.79,0,7.381-1.694,9.792-4.619
	c2.41-2.926,3.385-6.772,2.664-10.494c-35.038-180.901-31.238-160.262-32.439-170.073c16.216,45.904,21.812,60.751,23.095,64.137
	c1.84,5.914,6.055,10.93,11.817,13.696c7.514,3.604,16.315,2.762,22.984-2.02c0.612-0.426,1.2-0.879,1.761-1.357l34.25-27.52
	l-23.852,69.813c-1.32,3.862,0.94,8.041,4.902,9.043l20.219,5.125c3.957,1.004,7.938-1.588,8.617-5.619l16.852-99.85l9.467-7.605
	c9.75-7.834,11.304-22.09,3.47-31.838c-0.548-0.68-1.132-1.311-1.736-1.911l29.949-87.673
	C372.234,110.596,372.064,108.567,371.131,106.85z"/>
</svg>
