<?xml version="1.0" encoding="utf-8"?>
<!-- Generator: Adobe Illustrator 16.0.3, SVG Export Plug-In . SVG Version: 6.00 Build 0)  -->
<!DOCTYPE svg PUBLIC "-//W3C//DTD SVG 1.1//EN" "http://www.w3.org/Graphics/SVG/1.1/DTD/svg11.dtd">
<svg version="1.1" id="Layer_1" xmlns="http://www.w3.org/2000/svg" xmlns:xlink="http://www.w3.org/1999/xlink" x="0px" y="0px"
	 width="605.609px" height="594.757px" viewBox="0 0 605.609 594.757" enable-background="new 0 0 605.609 594.757"
	 xml:space="preserve">
<g>
	<path fill="#191919" d="M164.434,411.136h57.015l-4.164,26.521l44.881,118.992c5.486,14.551-1.859,30.799-16.414,36.287
		c-14.559,5.488-30.803-1.863-36.287-16.412l-47.506-125.949c-1.72-4.563-2.227-9.49-1.471-14.307L164.434,411.136z"/>
	<path fill="#191919" d="M65.729,411.136c5.692,0,53.285,0,61.809,0l-10.849,24.008L85.383,572.832
		c-3.447,15.164-18.537,24.664-33.705,21.217c-15.167-3.449-24.664-18.539-21.217-33.703
		C61.74,422.941,62.369,416.501,65.729,411.136z"/>
	<circle fill="#191919" cx="136.507" cy="51.798" r="51.798"/>
	<path fill="#191919" d="M3.088,319.328c6.762,12.576,22.437,17.287,35.011,10.523l38.132-20.504
		c-1.378,16.518-5.576,66.844-6.259,75.016h161.593c4.008,0,7.799-1.818,10.307-4.945c2.51-3.125,3.463-7.221,2.594-11.133
		l-7.348-33.086l-11.675-127.642l12.974,11.458l51.039,85.836c1.73,2.912,4,5.303,6.596,7.139c-5.27,5.166-5.368,13.627-0.211,18.91
		l195.335,200.756c-1.81,4.428-2.842,9.254-2.902,14.318c-0.262,21.646,17.139,39.475,38.787,39.736
		c21.646,0.262,39.474-17.137,39.736-38.785c0.063-5.158-0.889-10.094-2.648-14.631l34.732-33.902
		c8.821-8.611,8.992-22.744,0.382-31.568L486.457,351.259c-8.61-8.824-22.743-8.996-31.565-0.383l-52.305,51.053l-13.563-13.895
		l27.617-26.959c8.823-8.609,8.994-22.744,0.383-31.566l-10.287-10.541c-8.611-8.82-22.746-8.992-31.567-0.381l-27.617,26.959
		l-29.937-30.67c1.347-0.494,2.669-1.104,3.947-1.863c11.119-6.611,14.774-20.987,8.163-32.107l-52.915-88.991
		c-1.243-2.09-2.806-3.976-4.628-5.586l-55.608-49.111c-6.351-12.104-19.521-19.861-33.996-18.617l-62.172,5.345
		c-19.253,1.655-30.901,18.559-31.865,37.86c-1.154,23.092-7.139,85.563-7.139,85.563l-7.153,4.343l-60.634,32.605
		C1.04,291.079-3.674,306.753,3.088,319.328z M515.041,546.296c0.084-6.889,5.755-12.424,12.644-12.34s12.424,5.754,12.341,12.643
		s-5.754,12.426-12.643,12.342C520.493,558.859,514.957,553.185,515.041,546.296z"/>
</g>
</svg>
