<?xml version="1.0" encoding="utf-8"?>
<!-- Generator: Adobe Illustrator 16.0.3, SVG Export Plug-In . SVG Version: 6.00 Build 0)  -->
<!DOCTYPE svg PUBLIC "-//W3C//DTD SVG 1.1//EN" "http://www.w3.org/Graphics/SVG/1.1/DTD/svg11.dtd">
<svg version="1.1" id="Layer_1" xmlns="http://www.w3.org/2000/svg" xmlns:xlink="http://www.w3.org/1999/xlink" x="0px" y="0px"
	 width="392.529px" height="595.281px" viewBox="0 0 392.529 595.281" enable-background="new 0 0 392.529 595.281"
	 xml:space="preserve">
<g>
	<g>
		<path fill="#191919" d="M186.673,36.199L115.063,0.495c-1.323-0.659-2.881-0.659-4.203,0L39.25,36.198
			c-2.875,1.434-3.503,5.271-1.228,7.545l4.026,4.028v56.342c0,3.355,2.722,6.076,6.076,6.076c3.355,0,6.076-2.72,6.076-6.076
			c0-19.202,0-23.736,0-44.19l6.62,6.62c12.875-13.341,32.341-20.152,51.631-20.152c19.363,0,39.173,6.892,52.123,20.68
			l23.327-23.326C190.174,41.472,189.552,37.634,186.673,36.199z"/>
	</g>
</g>
<g>
	<g>
		<path fill="#191919" d="M53.977,548.107v20.563c0,14.695,11.914,26.611,26.61,26.611s26.611-11.916,26.611-26.611v-20.563H53.977z
			"/>
	</g>
</g>
<g>
	<g>
		<path fill="#191919" d="M118.687,548.107v20.563c0,14.695,11.915,26.611,26.61,26.611c14.696,0,26.611-11.916,26.611-26.611
			v-20.563H118.687z"/>
	</g>
</g>
<g>
	<g>
		<path fill="#191919" d="M112.452,62.187c-18.071,0-37.407,7.507-45.439,22.007c0.716,24.757,20.996,44.61,45.927,44.61
			c24.34,0,44.249-18.924,45.844-42.86C151.843,71.097,132.422,62.187,112.452,62.187z"/>
	</g>
</g>
<g>
	<g>
		<path fill="#191919" d="M0.043,350.156l-0.042,8.43c-0.063,12.248,9.817,22.225,22.063,22.285c0.036,0,0.076,0,0.114,0
			c12.194,0,22.111-9.855,22.172-22.064l0.044-8.648H0.043V350.156z"/>
	</g>
</g>
<g>
	<g>
		<path fill="#191919" d="M334.305,131.847c-7.941-9.001-22-10.162-31.3-1.956l-8.213,7.246l29.56,33.067l7.998-7.057
			C341.532,155.042,342.407,141.029,334.305,131.847z"/>
	</g>
</g>
<g>
	<g>
		<path fill="#191919" d="M282.946,147.591l-40.102,35.384l-33.113-24.958c-12.459-9.391-27.914-14.562-43.514-14.562h-8.652
			l-30.391,39.486l-14.074-17.166l18.927-22.401c-20.709,0-30.651,0-38.993,0c7.646,9.049,11.228,13.288,18.926,22.401
			c-1.636,1.993-12.899,15.733-14.074,17.166l-30.39-39.486h-14.2c-28.791,0-52.332,23.423-52.477,52.214L0.123,334.357h44.352
			l0.695-138.464c0.013-2.427,1.986-4.383,4.411-4.377c2.425,0.007,4.388,1.975,4.388,4.401l-1.104,136.881L27.969,532.31h143.459
			h30.482c-43.126-263.503-30.482-170.17-30.482-333.085c0-2.749,1.555-5.261,4.014-6.486c2.459-1.225,5.399-0.955,7.596,0.699
			l47.563,35.848c8.412,6.338,20.119,5.89,28.02-1.081l53.887-47.547L282.946,147.591z"/>
	</g>
</g>
<path fill="#191919" d="M389.221,189.799c-3.54-5.771-9.271-9.361-15.461-10.387c-7.351-8.145-14.132-16.616-20.367-25.403
	c-1.896,9.142-6.402,15.307-12.873,21.018c2.832,6.941,5.399,14.038,7.699,21.288c0.015,0.047,0.034,0.092,0.051,0.138
	c-1.289,5.539-0.497,11.564,2.711,16.795c4.599,7.498,12.893,11.335,21.098,10.614l-8.799-14.35l6.044-9.258l10.993-1.189
	l8.8,14.351C393.478,206.43,393.818,197.296,389.221,189.799z"/>
<path fill="#191919" d="M315.831,78.376c-0.06-0.188-0.132-0.371-0.201-0.554c1.454-5.672,0.712-11.9-2.593-17.287
	c-4.599-7.498-12.893-11.336-21.098-10.614l8.799,14.351l-6.044,9.258l-10.993,1.188l-8.8-14.352
	c-4.361,6.986-4.701,16.119-0.104,23.617c3.361,5.479,8.695,8.999,14.525,10.219c5.39,5.913,10.474,12,15.272,18.255
	c4.139-1.59,8.563-2.426,13.071-2.428h0.004c3.832,0,7.595,0.609,11.168,1.758C323.835,101.039,319.49,89.907,315.831,78.376z"/>
</svg>
