<?xml version="1.0" encoding="utf-8"?>
<!-- Generator: Adobe Illustrator 16.0.3, SVG Export Plug-In . SVG Version: 6.00 Build 0)  -->
<!DOCTYPE svg PUBLIC "-//W3C//DTD SVG 1.1//EN" "http://www.w3.org/Graphics/SVG/1.1/DTD/svg11.dtd">
<svg version="1.1" id="Layer_1" xmlns="http://www.w3.org/2000/svg" xmlns:xlink="http://www.w3.org/1999/xlink" x="0px" y="0px"
	 width="337.203px" height="595.279px" viewBox="0 0 337.203 595.279" enable-background="new 0 0 337.203 595.279"
	 xml:space="preserve">
<g>
	<circle fill="#191919" cx="218.631" cy="53.664" r="48.578"/>
	<path fill="#191919" d="M316.596,274.796c11.807-1.437,20.666-11.488,20.605-23.384c-0.045-10.554-0.334-68.089-0.387-78.499
		c-0.15-30.431-25.033-55.19-55.467-55.19h-63.016c-0.008,0-0.016,0.002-0.023,0.002s-0.016-0.002-0.023-0.002h-54.059
		c-16.83,0-32.549,7.512-43.125,20.606l-26.268,32.533l-24.621-48.925c-2.48-4.932-6.477-8.595-11.129-10.737V77.211l26.324-26.325
		l7.719,18.174c18.276-7.762,26.802-28.874,19.039-47.15C104.405,3.631,83.295-4.892,65.016,2.871l12.17,28.654H4.395
		c-1.778,0-3.381,1.07-4.061,2.713c-0.68,1.642-0.305,3.531,0.953,4.787l38.185,38.185v34.006c-0.243,0.111-0.488,0.201-0.729,0.32
		c-11.564,5.819-16.22,19.91-10.4,31.473l40.959,81.396c3.578,7.114,10.525,11.924,18.443,12.771
		c0.835,0.09,1.666,0.134,2.495,0.134c7.036,0,13.759-3.171,18.232-8.715l44.548-61.439c0.24-0.331,0.591-0.535,0.972-0.62
		l-39.86,218.785c0,11.046,8.954,20,20,20h21.853l0.004,161.833c0,15.533,12.594,28.125,28.125,28.125
		c15.535,0,28.125-12.594,28.125-28.125V405.319h8.394h3.753v161.835c0,15.533,12.594,28.125,28.125,28.125
		c15.533,0,28.125-12.594,28.125-28.125V405.319h26.497c11.046,0,20-8.954,20-20L310.878,291.1l-20.732,1.833v39.471
		c0,11.17-10.796,20.223-24.116,20.223h-31.352c-13.319,0-24.117-9.053-24.117-20.223v-29.4c0,0-0.001,0-0.002,0v-0.631
		c-9.053-1.859-17.118-6.807-22.892-13.813c-4.773-6.018-7.904-13.447-8.632-21.672c-1.457-16.473,7.117-31.505,20.663-39.1
		c3.344-1.792,6.987-3.134,10.86-3.927v-0.253c0,0,0.001-0.001,0.002-0.001v-4.836c0.021-9.266,6.967-17.056,16.174-18.131
		l42.996-5.016c3.564-0.414,7.162,0.228,10.393,1.867v-24.318c0-2.704,2.188-4.898,4.891-4.904c2.703-0.008,4.904,2.174,4.918,4.878
		c0.27,53.42,0.211,25.477,0.211,104.869L316.596,274.796z"/>
	<path fill="#191919" d="M195.364,265.945c1.1,9.033,7.207,16.228,15.197,19.165v-43.983
		C200.571,244.785,194.022,254.926,195.364,265.945z"/>
	<path fill="#191919" d="M276.122,334.328V213.794c0-2.359-1.916-4.269-4.27-4.269c-0.164,0-0.328,0.01-0.494,0.027l-42.992,5.017
		c-2.152,0.251-3.773,2.074-3.773,4.238v115.516c0,2.357,1.912,4.27,4.27,4.27h42.99v0.004
		C274.209,338.597,276.122,336.685,276.122,334.328z"/>
</g>
</svg>
