<?xml version="1.0" encoding="utf-8"?>
<!-- Generator: Adobe Illustrator 16.0.3, SVG Export Plug-In . SVG Version: 6.00 Build 0)  -->
<!DOCTYPE svg PUBLIC "-//W3C//DTD SVG 1.1//EN" "http://www.w3.org/Graphics/SVG/1.1/DTD/svg11.dtd">
<svg version="1.1" id="Capa_1" xmlns="http://www.w3.org/2000/svg" xmlns:xlink="http://www.w3.org/1999/xlink" x="0px" y="0px"
	 width="480.208px" height="595.054px" viewBox="0 0 480.208 595.054" enable-background="new 0 0 480.208 595.054"
	 xml:space="preserve">
<g>
	<path fill="#191919" d="M385.72,232.826c23.072,0,41.844-18.774,41.844-41.844s-18.771-41.844-41.844-41.844
		c-23.07,0-41.84,18.774-41.84,41.844S362.646,232.826,385.72,232.826z"/>
	<path fill="#191919" d="M479.617,372.126l-37.346-115.709c-2-6.194-8.666-11.044-15.17-11.044h-9.049
		c-0.135,0-0.254,0.038-0.385,0.042c-0.137-0.004-0.264-0.042-0.398-0.042h-63.09c-0.246,0-0.479,0.06-0.719,0.072
		c-0.234-0.013-0.451-0.072-0.688-0.072h-7.035c-6.51,0-13.172,4.85-15.172,11.044l-37.341,115.706
		c-1.104,3.434-0.646,6.904,1.265,9.529s5.076,4.131,8.686,4.131h5.871c6.49,0,13.18-4.828,15.227-10.992l17.148-51.73v27.916
		c-2.887,1.719-5.383,4.064-6.875,6.689l-28.15,49.705c-1.762,3.105-2.033,6.607-0.744,9.607c1.285,2.998,4.006,5.213,7.476,6.082
		l30.767,7.695V554.15c0,9.387,7.633,17.02,17.018,17.02h4.152c9.385,0,17.019-7.633,17.019-17.02V439.904
		c1.444,0.141,2.974,0.221,4.55,0.221c2.006,0,3.934-0.127,5.717-0.354V554.15c0,9.385,7.631,17.018,17.018,17.018h4.15
		c9.387,0,17.018-7.633,17.018-17.018V430.255l27.832-7.146c3.453-0.885,6.168-3.119,7.443-6.125c1.275-3.01,1.004-6.51-0.754-9.611
		l-28.148-49.705c-1.488-2.633-3.99-4.975-6.873-6.688v-29.289l18.443,53.195c2.123,6.113,8.85,10.898,15.313,10.898h5.881
		c3.605,0,6.77-1.506,8.684-4.131C480.261,379.029,480.722,375.554,479.617,372.126z"/>
</g>
<g id="XMLID_455_">
	<circle id="XMLID_460_" fill="#191919" cx="120.426" cy="48.976" r="48.976"/>
	<path id="XMLID_802_" fill="#191919" d="M235.16,383.115h-4.123v-21.332c5.859-4.426,9.455-11.391,9.42-18.965l-0.87-173.612
		c-0.156-30.681-25.244-55.642-55.926-55.642h-24.888c-3.096,8.087-25.307,67.857-28.627,76.532l6.906-32.536
		c0.484-2.284,0.133-4.668-0.992-6.714l-9.484-17.25l8.432-14.944c0.584-1.063,0.564-2.356-0.053-3.401
		c-0.619-1.045-1.74-1.686-2.955-1.686h-23.145c-1.213,0-2.336,0.64-2.955,1.686c-0.617,1.045-0.637,2.338-0.053,3.401l8.432,14.944
		l-9.52,17.315c-1.104,2.007-1.463,4.34-1.018,6.588l6.039,32.598c-3.016-7.735-24.42-68.128-27.699-76.533H56.795
		c-30.682,0-55.77,24.961-55.924,55.643L0,342.818c-0.066,13.053,10.461,23.686,23.514,23.75c0.039,0,0.08,0,0.121,0
		c12.994,0,23.563-10.504,23.629-23.514l0.871-173.611c0.014-2.517,2.061-4.548,4.576-4.541c2.516,0.006,4.549,2.047,4.549,4.563
		l0.012,397.23c0,15.66,12.697,28.355,28.359,28.355c15.66,0,28.357-12.695,28.357-28.355V346.152c0-3.381,2.74-6.123,6.121-6.123
		s6.123,2.742,6.123,6.123v220.543c0,15.662,12.695,28.359,28.357,28.359s28.356-12.697,28.356-28.359v-48.301
		c-11.309-5.973-19.039-17.85-19.039-31.504v-94.037c0-13.654,7.73-25.529,19.039-31.502c0-44.305-0.498,0.982-0.514-191.81
		c0-2.712,2.186-4.918,4.896-4.946c2.713-0.027,4.94,2.135,4.994,4.849l0.873,173.612c0.039,8.063,4.211,15.225,10.313,19.395
		v20.664h-3.996c-5.377,0-9.737,4.359-9.737,9.738v94.037c0,5.379,4.36,9.738,9.737,9.738h35.646c5.377,0,9.738-4.359,9.738-9.738
		v-94.039C244.898,387.476,240.537,383.115,235.16,383.115z"/>
</g>
</svg>
