<?xml version="1.0" encoding="utf-8"?>
<!-- Generator: Adobe Illustrator 16.0.3, SVG Export Plug-In . SVG Version: 6.00 Build 0)  -->
<!DOCTYPE svg PUBLIC "-//W3C//DTD SVG 1.1//EN" "http://www.w3.org/Graphics/SVG/1.1/DTD/svg11.dtd">
<svg version="1.1" id="Capa_1" xmlns="http://www.w3.org/2000/svg" xmlns:xlink="http://www.w3.org/1999/xlink" x="0px" y="0px"
	 width="173.934px" height="435.76px" viewBox="0 0 173.934 435.76" enable-background="new 0 0 173.934 435.76"
	 xml:space="preserve">
<g>
	<g>
		<circle fill="#191919" cx="88.864" cy="42.085" r="42.085"/>
	</g>
</g>
<g>
	<g>
		<path fill="#191919" d="M173.317,410.933l-22.762-89.66c-0.27-1.064-0.63-2.109-1.074-3.115l-9.201-20.922
			c2.906,0,5.558,0,7.871,0c5.361,0,9.404-5.307,8.358-11.02l-5.081-27.775c-8.679,2.877-18.546,1.801-26.623-3.83
			c-6.205-4.328-50.185-34.984-56.087-39.099c-7.157-4.99-10.04-13.848-7.838-21.807l15.691-56.299l-1.26,56.621
			c-0.115,5.219,2.389,10.148,6.668,13.131l51.078,35.609c7.062,4.924,16.776,3.188,21.698-3.871
			c4.923-7.064,3.188-16.777-3.871-21.697l-44.227-30.831l1.074-48.267l8.666,37.462l22.768,15.87l-13.305-72.707
			c-1.859-10.156-10.092-17.494-19.662-17.494c-12.324,0-20.992,0-34.672,0c-8.008,0-15.038,5.112-18.229,12.72H28.392
			c-6.864,0-12.429,5.564-12.429,12.427v36.371C7.146,162.75,0,169.897,0,178.712v25.717c0,8.818,7.147,15.964,15.963,15.964
			c0.05,0,0.095-0.01,0.144-0.01c0.865,6.018,6.024,10.648,12.285,10.648h2.928L21.221,286.22c-1.043,5.703,3.009,11.02,8.358,11.02
			c4.674,0,10.691,0,17.545,0v35.215l-30.16,76.043c-4.055,10.225,0.945,21.797,11.17,25.855
			c10.22,4.055,21.796-0.945,25.853-11.172l31.563-79.582c0.928-2.338,1.404-4.826,1.404-7.342v-39.021c3.279,0,6.559,0,9.818,0
			l15.588,35.441l22.352,88.059c2.705,10.656,13.535,17.107,24.201,14.4C169.574,432.431,176.021,421.595,173.317,410.933z"/>
	</g>
</g>
</svg>
