<?xml version="1.0" encoding="utf-8"?>
<!-- Generator: Adobe Illustrator 16.0.3, SVG Export Plug-In . SVG Version: 6.00 Build 0)  -->
<!DOCTYPE svg PUBLIC "-//W3C//DTD SVG 1.1 Tiny//EN" "http://www.w3.org/Graphics/SVG/1.1/DTD/svg11-tiny.dtd">
<svg version="1.1" baseProfile="tiny" id="Capa_1" xmlns="http://www.w3.org/2000/svg" xmlns:xlink="http://www.w3.org/1999/xlink"
	 x="0px" y="0px" width="813.854px" height="567.636px" viewBox="0 0 813.854 567.636" xml:space="preserve">
<g>
	<g>
		<circle fill="#191919" cx="85.07" cy="103.268" r="42.085"/>
	</g>
</g>
<g>
	<g>
		<path fill="#191919" d="M15.02,496.32c10.666,2.707,21.496-3.744,24.201-14.4l22.352-88.059l15.588-35.441c3.26,0,6.539,0,9.818,0
			v39.018c0,2.516,0.477,5.004,1.404,7.342l31.563,79.582c4.057,10.227,15.633,15.227,25.852,11.172
			c10.225-4.057,15.225-15.631,11.17-25.855l-30.16-76.043v-35.215c6.854,0,12.871,0,17.545,0c5.35,0,9.402-5.316,8.359-11.02
			l-10.098-55.184h2.928c6.26,0,11.42-4.633,12.285-10.649c0.049,0,0.094,0.008,0.143,0.008c8.816,0,15.963-7.146,15.963-15.963
			v-25.717c0-8.816-7.146-15.963-15.963-15.963v-36.371c0-6.863-5.564-12.427-12.428-12.427h-24.908
			c-3.191-7.608-10.221-12.72-18.229-12.72c-13.68,0-22.348,0-34.672,0c-9.57,0-17.803,7.338-19.662,17.494l-13.305,72.707
			l22.768-15.87l8.666-37.462l1.074,48.267l-44.227,30.831c-7.059,4.919-8.793,14.632-3.871,21.695
			c4.922,7.059,14.637,8.795,21.699,3.871l51.078-35.607c4.279-2.983,6.783-7.913,6.668-13.131l-1.26-56.621l15.691,56.298
			c2.203,7.959-0.68,16.817-7.838,21.807c-5.902,4.115-49.881,34.771-56.086,39.098c-8.078,5.631-17.945,6.707-26.623,3.83
			l-5.082,27.775c-1.045,5.713,2.998,11.02,8.359,11.02c2.313,0,4.965,0,7.871,0l-9.201,20.922
			c-0.445,1.006-0.805,2.051-1.074,3.115L0.616,472.115C-2.088,482.777,4.36,493.613,15.02,496.32z"/>
	</g>
</g>
<g>
	<path fill="#191919" d="M299.965,534.794c-3.289,14.475,5.777,28.875,20.25,32.168c14.475,3.291,28.879-5.775,32.17-20.25
		l15.605-68.645h-55.127L299.965,534.794z"/>
	<path fill="#191919" d="M389.149,323.896c11.479,0,21.67,5.602,28,14.209l8-17.701l14.176-1.219l-15.258,97.188
		c-0.779,4.961-0.099,9.676,1.404,13.654l45.338,120.209c5.237,13.887,20.739,20.9,34.633,15.664
		c13.889-5.238,20.9-20.744,15.663-34.633l-42.833-113.566l16.045-102.207c0.055-0.35-7.584-108.452-7.584-108.452l16.817,14.497
		l49.705,81.334c3.523,5.768,9.246,9.363,15.43,10.389c62.155,94.578,40.715,61.889,128.623,196.322
		c-2.554,3.865-4.421,8.24-5.401,12.973c-4.199,20.289,8.823,40.1,29.105,44.295c20.506,4.248,40.175-9.197,44.293-29.104
		c0.984-4.758,1.034-9.563,0.202-14.205l38.736-25.451c9.82-6.453,12.563-19.635,6.133-29.469L691.825,287.33
		c-6.447-9.861-19.688-12.614-29.533-6.145l-58.746,38.602l-11.662-17.75c3.759-6.807,3.872-15.375-0.472-22.482l-51.531-84.325
		c-1.21-1.979-2.722-3.761-4.48-5.277l-54.156-46.678c-1.746-18.208-17.832-31.654-36.098-30.083l-59.336,5.101
		c-18.375,1.579-31.992,17.757-30.412,36.133l5.625,65.431l30.303-67.437l-14.17,83.999l-70.764,31.549
		c-12.691,5.659-17.357,21.53-9.277,33.213c6.053,8.748,17.572,12.135,27.518,7.701l81.73-36.438
		c6.852-3.055,11.719-9.334,12.967-16.731l15.65-92.756l5.809,91.392c0.703,11.034-7.463,29.617-25.668,37.736l-36.533,16.287
		c0.109,1.635,0.08,0.865,0.08,15.527C382.604,323.9,385.11,323.9,389.149,323.896z M716.931,527.736
		c1.297-6.268,7.479-10.627,14.094-9.26c6.455,1.336,10.596,7.639,9.262,14.094c-1.303,6.289-7.505,10.627-14.094,9.26
		C719.735,540.494,715.595,534.191,716.931,527.736z"/>
	<circle fill="#191919" cx="401.178" cy="49.438" r="49.438"/>
	<path fill="#191919" d="M218.573,358.64v84.688c0,8.6,6.973,15.574,15.574,15.574h155c8.602,0,15.574-6.973,15.574-15.574v-84.689
		c0-8.6-6.972-15.574-15.574-15.574h-29.645c0-8.977,0-17.096,0-26.186l0,0l-25.553,11.391v14.795c-6.82,0-42.633,0-44.604,0
		v-19.412c-5.943-4.41-10.799-10.324-13.932-17.352c-1.154-2.59-2.041-5.25-2.674-7.951l0,0c-5.186,1.627-8.949,6.469-8.949,12.189
		v32.523h-29.645C225.748,343.064,218.573,349.88,218.573,358.64z"/>
</g>
</svg>
