<?xml version="1.0" encoding="utf-8"?>
<!-- Generator: Adobe Illustrator 16.0.3, SVG Export Plug-In . SVG Version: 6.00 Build 0)  -->
<!DOCTYPE svg PUBLIC "-//W3C//DTD SVG 1.1//EN" "http://www.w3.org/Graphics/SVG/1.1/DTD/svg11.dtd">
<svg version="1.1" id="Capa_1" xmlns="http://www.w3.org/2000/svg" xmlns:xlink="http://www.w3.org/1999/xlink" x="0px" y="0px"
	 width="595.281px" height="567.636px" viewBox="0 0 595.281 567.636" enable-background="new 0 0 595.281 567.636"
	 xml:space="preserve">
<g>
	<path fill="#191919" d="M500.99,478.067h-55.127l15.604,68.645c3.291,14.475,17.695,23.541,32.171,20.25
		c14.473-3.293,23.538-17.693,20.25-32.168L500.99,478.067z"/>
	<path fill="#191919" d="M435.188,323.899c0-14.662-0.029-13.895,0.08-15.529l-36.533-16.287
		c-18.205-8.117-26.371-26.701-25.668-37.735l5.809-91.392l15.65,92.756c1.248,7.397,6.115,13.677,12.967,16.731l81.73,36.438
		c9.944,4.434,21.465,1.047,27.518-7.701c8.08-11.684,3.414-27.555-9.277-33.214L436.7,236.417l-14.17-83.999l30.303,67.437
		l5.625-65.431c1.58-18.376-12.037-34.554-30.412-36.133l-59.336-5.101c-18.266-1.57-34.352,11.875-36.098,30.083l-54.157,46.678
		c-1.759,1.516-3.271,3.296-4.481,5.277l-51.53,84.324c-4.345,7.109-4.229,15.676-0.472,22.484l-11.662,17.75l-58.746-38.604
		c-9.844-6.469-23.085-3.715-29.533,6.146L3.477,468.622c-6.43,9.834-3.688,23.016,6.132,29.469l38.736,25.451
		c-0.831,4.643-0.782,9.447,0.203,14.205c4.119,19.906,23.787,33.352,44.294,29.104c20.282-4.195,33.304-24.006,29.105-44.295
		c-0.98-4.73-2.849-9.105-5.401-12.973c87.908-134.434,66.466-101.744,128.623-196.322c6.184-1.025,11.905-4.621,15.43-10.389
		l49.705-81.334l16.817-14.497c0,0-7.639,108.103-7.584,108.452L335.582,417.7l-42.833,113.566
		c-5.238,13.889,1.774,29.395,15.663,34.633c13.894,5.236,29.396-1.777,34.633-15.664l45.338-120.209
		c1.503-3.979,2.185-8.693,1.404-13.654l-15.258-97.188l14.176,1.219l8,17.701c6.33-8.607,16.521-14.209,28-14.209
		C428.744,323.899,431.25,323.899,435.188,323.899z M87.663,541.829c-6.589,1.367-12.792-2.971-14.094-9.26
		c-1.334-6.455,2.806-12.758,9.261-14.094c6.614-1.367,12.797,2.992,14.094,9.26C98.259,534.19,94.12,540.493,87.663,541.829z"/>
	<circle fill="#191919" cx="412.677" cy="49.437" r="49.437"/>
	<path fill="#191919" d="M579.707,343.063h-29.645v-32.525c0-5.721-3.765-10.563-8.949-12.189l0,0
		c-0.633,2.701-1.521,5.361-2.674,7.951c-3.133,7.027-7.988,12.941-13.933,17.352v19.412c-1.971,0-37.782,0-44.604,0v-14.795
		l-25.553-11.391l0,0c0,9.09,0,17.209,0,26.186h-29.646c-8.604,0-15.574,6.977-15.574,15.574v84.689
		c0,8.602,6.974,15.574,15.574,15.574h155c8.603,0,15.574-6.975,15.574-15.574v-84.688
		C595.281,349.879,588.106,343.063,579.707,343.063z"/>
</g>
</svg>
