<?xml version="1.0" encoding="utf-8"?>
<!-- Generator: Adobe Illustrator 16.0.3, SVG Export Plug-In . SVG Version: 6.00 Build 0)  -->
<!DOCTYPE svg PUBLIC "-//W3C//DTD SVG 1.1//EN" "http://www.w3.org/Graphics/SVG/1.1/DTD/svg11.dtd">
<svg version="1.1" id="Capa_1" xmlns="http://www.w3.org/2000/svg" xmlns:xlink="http://www.w3.org/1999/xlink" x="0px" y="0px"
	 width="575.256px" height="525.071px" viewBox="0 0 575.256 525.071" enable-background="new 0 0 575.256 525.071"
	 xml:space="preserve">
<g>
	<path fill="#191919" d="M568.891,203.605l-81.479-25.031v-60.698c0-3.452-1.946-6.597-5.043-8.115L262.328,0.873
		c-0.024-0.012-0.073-0.012-0.171-0.012c-0.416-0.221-2.056-0.979-4.443-0.845c-2.485,0.135-4.296,1.334-4.639,1.604l0,0
		L96.146,113.518c-2.387,1.701-3.807,4.443-3.807,7.369v78.128l-29.156-3.477c-0.012,0-0.098,0.012-0.257,0.037
		c-0.379-0.025-1.261-0.062-2.093,0.049c-1.053,0.135-1.958,0.478-2.301,0.612c-0.049,0.012-0.085,0.024-0.085,0.024L5.386,219.762
		c-3.28,1.444-5.386,4.7-5.386,8.274v151.371c0,3.318,1.812,6.365,4.7,7.932l53.183,29.156c0,0,1.396,0.811,3.072,1.018
		c1.494,0.193,2.583,0,2.583,0l28.788-4.188v16.684c0,3.316,1.812,6.354,4.7,7.943l156.905,85.986c0,0,1.75,1.016,4.039,1.125
		c1.75,0.086,3.464-0.553,3.464-0.553v-0.049c0.024,0,0.049,0,0.049,0l220.051-83.66l87.883-33.416
		c3.513-1.334,5.839-4.697,5.839-8.457v-186.66C575.292,208.281,572.697,204.767,568.891,203.605z M25.251,341.782
		c0,0.943-0.441,1.836-1.2,2.398c-0.539,0.402-1.175,0.625-1.824,0.625c-0.27,0-0.539-0.037-0.808-0.109l-10.073-2.805
		c-1.31-0.367-2.215-1.555-2.215-2.912v-28.078c0-0.846,0.355-1.666,0.991-2.24c0.625-0.576,1.469-0.846,2.313-0.76l10.073,0.979
		c1.542,0.16,2.729,1.445,2.729,3v29.902H25.251L25.251,341.782z M25.251,281.989c0,1.58-1.212,2.877-2.779,3.012l-10.073,0.832
		c-0.074,0-0.159,0-0.245,0c-0.747,0-1.481-0.27-2.044-0.783c-0.624-0.574-0.979-1.369-0.979-2.229v-28.079
		c0-1.371,0.93-2.569,2.252-2.912l10.074-2.656c0.906-0.232,1.86-0.037,2.607,0.539c0.747,0.563,1.175,1.443,1.175,2.375v29.903
		L25.251,281.989L25.251,281.989z M54.701,349.971c0,0.941-0.44,1.822-1.188,2.396c-0.539,0.404-1.175,0.613-1.824,0.613
		c-0.269,0-0.539-0.037-0.808-0.111l-13.807-3.842c-1.31-0.355-2.215-1.555-2.215-2.902v-32.717c0-0.844,0.354-1.664,0.991-2.24
		c0.624-0.574,1.469-0.844,2.326-0.758l13.807,1.346c1.555,0.146,2.729,1.443,2.729,2.998v35.217H54.701L54.701,349.971z
		 M54.701,279.565c0,1.566-1.212,2.877-2.766,3.012l-13.819,1.139c-0.085,0-0.159,0-0.245,0c-0.759,0-1.493-0.279-2.044-0.795
		c-0.625-0.576-0.979-1.371-0.979-2.229v-32.706c0-1.371,0.931-2.57,2.252-2.925l13.819-3.622c0.906-0.246,1.86-0.05,2.607,0.525
		c0.735,0.574,1.175,1.456,1.175,2.387V279.565z M130.283,370.95c0,0.943-0.441,1.836-1.188,2.398
		c-0.526,0.402-1.175,0.625-1.824,0.625c-0.281,0-0.551-0.037-0.808-0.111l-17.809-4.943c-1.31-0.367-2.216-1.555-2.216-2.9v-45.619
		c0-0.857,0.355-1.666,0.992-2.24c0.624-0.576,1.469-0.844,2.313-0.783l17.809,1.75c1.554,0.146,2.729,1.445,2.729,2.998v48.826
		H130.283z M130.283,273.323c0,1.568-1.2,2.877-2.766,3l-17.81,1.469c-0.073,0.014-0.159,0.014-0.245,0.014
		c-0.759,0-1.493-0.281-2.044-0.797c-0.625-0.574-0.979-1.383-0.979-2.229v-45.618c0-1.371,0.93-2.57,2.252-2.913l17.809-4.688
		c0.906-0.232,1.873-0.037,2.607,0.539c0.734,0.563,1.175,1.444,1.175,2.375L130.283,273.323L130.283,273.323z M130.283,175.673
		c0,1.199-0.698,2.289-1.787,2.766l-17.809,7.882c-0.392,0.172-0.808,0.27-1.224,0.27c-0.575,0-1.15-0.171-1.652-0.49
		c-0.857-0.563-1.371-1.518-1.371-2.534v-45.618c0-1.041,0.539-2.008,1.42-2.559l17.809-11.089c0.931-0.587,2.105-0.612,3.06-0.085
		c0.955,0.539,1.555,1.542,1.555,2.644L130.283,175.673L130.283,175.673z M174.653,383.276c0,0.939-0.441,1.836-1.188,2.396
		c-0.526,0.404-1.175,0.625-1.824,0.625c-0.269,0-0.539-0.037-0.808-0.109l-23.856-6.633c-1.31-0.355-2.215-1.557-2.215-2.902
		v-52.521c0-0.844,0.355-1.664,0.991-2.238c0.625-0.563,1.469-0.832,2.313-0.76l23.868,2.324c1.542,0.16,2.717,1.445,2.717,3v56.818
		H174.653L174.653,383.276z M174.653,269.651c0,1.58-1.2,2.877-2.767,3.012l-23.855,1.971c-0.086,0-0.171,0.014-0.257,0.014
		c-0.759,0-1.481-0.293-2.044-0.809c-0.624-0.574-0.979-1.37-0.979-2.229V219.1c0-1.371,0.93-2.57,2.252-2.913l23.855-6.279
		c0.906-0.245,1.873-0.049,2.607,0.526c0.747,0.575,1.175,1.456,1.175,2.387v56.83H174.653L174.653,269.651z M174.653,156.028
		c0,1.2-0.698,2.289-1.787,2.767l-23.856,10.563c-0.392,0.184-0.808,0.257-1.224,0.257c-0.575,0-1.15-0.171-1.64-0.489
		c-0.856-0.551-1.371-1.506-1.371-2.534v-52.51c0-1.041,0.539-2.007,1.42-2.558l23.855-14.872c0.93-0.587,2.105-0.612,3.06-0.086
		c0.955,0.539,1.555,1.542,1.555,2.644v56.818H174.653z M236.391,400.424c0,0.895-0.343,1.75-0.979,2.361
		c-1.102,1.113-2.583,1.113-3.097,1.113c0,0,0,0-0.012,0c-5.949,0-29.033-8.313-33.587-9.963c-1.199-0.43-1.983-1.566-1.983-2.842
		v-61.885c0-0.844,0.355-1.664,0.979-2.24c0.636-0.572,1.481-0.844,2.326-0.758l33.623,3.279c1.542,0.16,2.729,1.457,2.729,2.998
		C236.391,333.153,236.367,397.522,236.391,400.424z M236.391,264.559c0,1.564-1.211,2.877-2.778,2.998l-33.624,2.779
		c-0.085,0-0.171,0.012-0.245,0.012c-0.759,0-1.493-0.293-2.044-0.809c-0.625-0.574-0.979-1.369-0.979-2.229v-61.884
		c0-1.359,0.918-2.57,2.252-2.913l33.623-8.837c0.906-0.245,1.861-0.049,2.607,0.526s1.175,1.457,1.175,2.387v67.967h0.013V264.559z
		 M236.391,128.684c0,1.199-0.71,2.276-1.799,2.754l-33.623,14.896c-0.392,0.184-0.808,0.257-1.224,0.257
		c-0.575,0-1.15-0.171-1.652-0.489c-0.857-0.563-1.371-1.506-1.371-2.534V81.694c0-1.052,0.539-2.02,1.42-2.57l33.624-20.942
		c0.93-0.587,2.105-0.612,3.06-0.086c0.955,0.539,1.554,1.542,1.554,2.644v67.944H236.391z M370.052,94.816
		c0-1.016,0.516-1.958,1.359-2.521c0.843-0.563,1.921-0.649,2.852-0.257l35.889,15.52c1.103,0.478,1.822,1.567,1.822,2.778v53.599
		c0,0.955-0.451,1.86-1.224,2.423c-0.526,0.392-1.149,0.6-1.787,0.6c-0.294,0-0.601-0.049-0.881-0.135l-35.888-11.028
		c-1.273-0.392-2.131-1.566-2.131-2.876V94.816H370.052L370.052,94.816z M370.052,210.986c0-0.894,0.393-1.75,1.077-2.313
		c0.687-0.575,1.604-0.808,2.474-0.649l35.899,6.536c1.433,0.27,2.472,1.506,2.472,2.962v54.1c0,0.832-0.343,1.643-0.967,2.217
		c-0.563,0.525-1.297,0.809-2.056,0.809c-0.074,0-0.147-0.014-0.209-0.014l-35.888-2.559c-1.578-0.108-2.805-1.42-2.805-2.998
		L370.052,210.986L370.052,210.986z M276.624,54.424c0-1.016,0.514-1.958,1.359-2.521c0.844-0.551,1.921-0.649,2.852-0.245
		l50.98,22.044c1.102,0.478,1.822,1.567,1.822,2.779v63.391c0,0.955-0.451,1.861-1.225,2.424c-0.525,0.392-1.163,0.6-1.787,0.6
		c-0.294,0-0.602-0.049-0.895-0.135l-50.979-15.667c-1.273-0.379-2.13-1.555-2.13-2.876L276.624,54.424L276.624,54.424z
		 M276.624,263.727v-69.77c0-0.894,0.392-1.75,1.077-2.313c0.686-0.575,1.591-0.808,2.473-0.649l50.979,9.291
		c1.432,0.269,2.484,1.518,2.484,2.974v63.39c0,0.834-0.345,1.629-0.955,2.202c-0.563,0.527-1.311,0.82-2.067,0.82
		c-0.063,0-0.123,0-0.173-0.013l-50.979-2.912C277.873,266.639,276.624,265.331,276.624,263.727z M376.086,472.383
		c0,1.262-0.782,2.361-1.944,2.814l-66.722,25.361c-0.343,0.135-0.71,0.193-1.063,0.193c-0.602,0-1.213-0.184-1.715-0.523
		c-0.82-0.564-1.298-1.494-1.298-2.484V331.672c0-1.592,1.226-2.9,2.815-3.012l66.721-4.518c0.844-0.063,1.652,0.246,2.264,0.809
		c0.612,0.564,0.955,1.359,0.955,2.203v145.229H376.086z M456.491,441.807c0,1.26-0.771,2.375-1.946,2.813l-44.519,16.928
		c-0.354,0.137-0.709,0.209-1.075,0.209c-0.601,0-1.2-0.193-1.714-0.539c-0.81-0.563-1.299-1.49-1.299-2.482V324.731
		c0-1.59,1.226-2.9,2.814-3.01l44.518-3.014c0.846-0.061,1.651,0.232,2.266,0.795c0.612,0.564,0.955,1.371,0.955,2.203V441.807
		L456.491,441.807z M469.355,274.413c0,0.832-0.345,1.629-0.955,2.203c-0.563,0.527-1.312,0.82-2.068,0.82c-0.063,0-0.122,0-0.172,0
		l-26.634-1.529c-1.593-0.098-2.842-1.408-2.842-3.012v-49.767c0-0.894,0.404-1.75,1.077-2.326c0.698-0.575,1.604-0.796,2.484-0.649
		l26.622,4.859c1.433,0.257,2.485,1.505,2.485,2.962L469.355,274.413L469.355,274.413z M469.355,181.56
		c0,0.955-0.453,1.861-1.227,2.424c-0.526,0.392-1.162,0.6-1.787,0.6c-0.293,0-0.6-0.049-0.894-0.147l-26.622-8.176
		c-1.272-0.392-2.129-1.567-2.129-2.876v-49.768c0-1.016,0.514-1.958,1.356-2.521c0.846-0.563,1.922-0.649,2.854-0.245
		l26.635,11.506c1.102,0.478,1.823,1.566,1.823,2.778v46.426L469.355,181.56L469.355,181.56z M522.574,357.02
		c0,1.443-1.027,2.691-2.447,2.963l-19.352,3.73c-0.196,0.037-0.382,0.051-0.563,0.051c-0.697,0-1.383-0.244-1.922-0.697
		c-0.697-0.563-1.089-1.42-1.089-2.313v-42.189c0-1.592,1.224-2.9,2.813-3.012l19.354-1.311c0.832-0.049,1.65,0.244,2.264,0.807
		c0.612,0.564,0.955,1.359,0.955,2.203v39.77L522.574,357.02L522.574,357.02z M522.574,277.473c0,0.818-0.342,1.613-0.954,2.189
		c-0.563,0.525-1.298,0.818-2.068,0.818c-0.062,0-0.108,0-0.172,0l-19.352-1.113c-1.591-0.098-2.839-1.406-2.839-3.01v-42.191
		c0-0.893,0.392-1.738,1.074-2.313c0.688-0.575,1.594-0.808,2.475-0.661l19.34,3.525c1.432,0.257,2.484,1.518,2.484,2.974v39.779
		h0.012V277.473z M555.292,350.706c0,1.443-1.028,2.691-2.448,2.961l-15.481,2.986c-0.195,0.037-0.379,0.049-0.563,0.049
		c-0.698,0-1.384-0.244-1.922-0.697c-0.698-0.572-1.09-1.42-1.09-2.313v-37.625c0-1.58,1.236-2.891,2.813-3l15.474-1.053
		c0.832-0.063,1.65,0.244,2.265,0.797c0.611,0.572,0.954,1.371,0.954,2.215L555.292,350.706L555.292,350.706z M555.292,279.333
		c0,0.834-0.343,1.629-0.942,2.203c-0.562,0.527-1.297,0.82-2.066,0.82c-0.063,0-0.11,0-0.172-0.014l-15.473-0.881
		c-1.592-0.086-2.84-1.406-2.84-3.012v-37.135c0-0.882,0.379-1.727,1.053-2.302c0.661-0.575,1.542-0.819,2.411-0.698l15.483,2.338
		c1.479,0.221,2.559,1.494,2.559,2.987v35.691L555.292,279.333L555.292,279.333z"/>
</g>
</svg>
