<?xml version="1.0" encoding="utf-8"?>
<!-- Generator: Adobe Illustrator 16.0.3, SVG Export Plug-In . SVG Version: 6.00 Build 0)  -->
<!DOCTYPE svg PUBLIC "-//W3C//DTD SVG 1.1//EN" "http://www.w3.org/Graphics/SVG/1.1/DTD/svg11.dtd">
<svg version="1.1" id="Layer_1" xmlns="http://www.w3.org/2000/svg" xmlns:xlink="http://www.w3.org/1999/xlink" x="0px" y="0px"
	 width="370.607px" height="557.25px" viewBox="0 0 370.607 557.25" enable-background="new 0 0 370.607 557.25"
	 xml:space="preserve">
<g>
	<g>
		<path fill="#191919" d="M174.547,346.168h85.906c11.785,0,21.336-9.553,21.336-21.338s-9.553-21.334-21.336-21.334h-73.377
			l-32.279-57.85l31.369,34.891l0.431-27.355c0.313-19.848-15.627-36.149-35.468-36.292l-32.866-0.235
			c-19.869-0.142-36.041,15.969-35.985,35.826L66.602,373.627l16.006,0.035c0.026,9.506,3.839,18.607,10.594,25.295
			c4.766,4.717,10.721,7.949,17.149,9.424H65.444l-30.45-154.904c-1.88-9.572-11.166-15.803-20.736-13.923
			c-9.57,1.881-15.805,11.165-13.922,20.736l33.252,169.16c1.627,8.281,8.889,14.254,17.33,14.254h3.039l-37.575,97.428
			c-2.339,6.068,0.684,12.883,6.75,15.223c6.059,2.336,12.88-0.676,15.22-6.748l40.843-105.902h67.069l23.07,59.814l-7.4,18.703
			c-5.202,13.146,1.237,28.023,14.388,33.227c13.141,5.203,28.021-1.232,33.227-14.387l58.119-146.871
			c3.125-7.896,2.131-16.828-2.653-23.846c-4.747-6.965-12.687-11.182-21.151-11.182c-0.024,0-0.05,0-0.076,0
			c-83.753,0.244-78.468,0.279-79.311,0.146c-10.252-1.629-18.341-8.646-21.854-17.668l-19.895-65.894l33.188,59.482
			C159.682,341.982,166.812,346.168,174.547,346.168z M174.547,443.705L174.547,443.705c9.753,0,17.661-7.908,17.661-17.662
			c0-6.682-3.711-12.494-9.181-15.494l23.125-0.066l-24.034,60.736l-10.613-27.516h3.042L174.547,443.705L174.547,443.705z"/>
	</g>
</g>
<g>
	<g>
		<circle fill="#191919" cx="162.475" cy="153.456" r="47.09"/>
	</g>
</g>
<g>
	<g>
		<path fill="#191919" d="M286.275,0c-46.577,0-84.335,27.189-84.335,60.729c0,18.035,10.928,34.225,28.263,45.348l-11.69,23.346
			c-1.192,2.382-0.685,5.265,1.249,7.095c1.935,1.83,4.841,2.181,7.153,0.859l33.142-18.927c8.256,1.943,17.063,3.008,26.219,3.008
			c46.579,0,84.336-27.19,84.336-60.729C370.612,27.189,332.854,0,286.275,0z"/>
	</g>
</g>
</svg>
