<?xml version="1.0" encoding="utf-8"?>
<!-- Generator: Adobe Illustrator 16.0.3, SVG Export Plug-In . SVG Version: 6.00 Build 0)  -->
<!DOCTYPE svg PUBLIC "-//W3C//DTD SVG 1.1//EN" "http://www.w3.org/Graphics/SVG/1.1/DTD/svg11.dtd">
<svg version="1.1" id="Capa_1" xmlns="http://www.w3.org/2000/svg" xmlns:xlink="http://www.w3.org/1999/xlink" x="0px" y="0px"
	 width="187.572px" height="422.031px" viewBox="0 0 187.572 422.031" enable-background="new 0 0 187.572 422.031"
	 xml:space="preserve">
<g>
	<path fill="#191919" d="M93.085,83.688c23.072,0,41.844-18.774,41.844-41.844S116.158,0,93.085,0
		c-23.07,0-41.84,18.774-41.84,41.844S70.011,83.688,93.085,83.688z"/>
	<path fill="#191919" d="M186.981,222.988l-37.346-115.709c-2-6.194-8.666-11.044-15.17-11.044h-9.05
		c-0.135,0-0.254,0.038-0.385,0.042c-0.137-0.004-0.264-0.042-0.397-0.042h-63.09c-0.246,0-0.479,0.061-0.72,0.072
		c-0.233-0.014-0.45-0.072-0.688-0.072h-7.035c-6.51,0-13.172,4.85-15.172,11.044L0.59,222.984
		c-1.104,3.434-0.646,6.904,1.265,9.529s5.076,4.131,8.687,4.131h5.871c6.489,0,13.18-4.828,15.227-10.992l17.148-51.73v27.916
		c-2.888,1.72-5.384,4.064-6.875,6.689l-28.15,49.705c-1.762,3.105-2.033,6.607-0.744,9.607c1.285,2.998,4.006,5.213,7.477,6.082
		l30.767,7.695v123.395c0,9.387,7.633,17.02,17.019,17.02h4.151c9.385,0,17.02-7.633,17.02-17.02V290.766
		c1.443,0.141,2.974,0.221,4.55,0.221c2.006,0,3.934-0.127,5.717-0.354v114.379c0,9.385,7.631,17.018,17.018,17.018h4.15
		c9.387,0,17.018-7.633,17.018-17.018V281.117l27.832-7.146c3.453-0.885,6.168-3.119,7.443-6.125c1.274-3.01,1.004-6.51-0.754-9.611
		l-28.148-49.705c-1.488-2.633-3.99-4.975-6.873-6.688v-29.289l18.443,53.195c2.123,6.113,8.85,10.898,15.313,10.898h5.882
		c3.604,0,6.77-1.506,8.684-4.131C187.627,229.891,188.088,226.416,186.981,222.988z"/>
</g>
</svg>
