<?xml version="1.0" encoding="utf-8"?>
<!-- Generator: Adobe Illustrator 16.0.3, SVG Export Plug-In . SVG Version: 6.00 Build 0)  -->
<!DOCTYPE svg PUBLIC "-//W3C//DTD SVG 1.1//EN" "http://www.w3.org/Graphics/SVG/1.1/DTD/svg11.dtd">
<svg version="1.1" id="Capa_1" xmlns="http://www.w3.org/2000/svg" xmlns:xlink="http://www.w3.org/1999/xlink" x="0px" y="0px"
	 width="244.902px" height="595.054px" viewBox="0 0 244.902 595.054" enable-background="new 0 0 244.902 595.054"
	 xml:space="preserve">
<g id="XMLID_455_">
	<circle id="XMLID_460_" fill="#191919" cx="120.426" cy="48.976" r="48.976"/>
	<path id="XMLID_802_" fill="#191919" d="M235.161,383.115h-4.123v-21.332c5.858-4.426,9.455-11.391,9.418-18.965l-0.871-173.613
		c-0.156-30.681-25.242-55.642-55.924-55.642h-24.89c-3.096,8.087-25.307,67.857-28.627,76.532l6.906-32.536
		c0.484-2.284,0.133-4.668-0.992-6.714l-9.483-17.25l8.432-14.944c0.584-1.063,0.564-2.356-0.053-3.401
		c-0.619-1.045-1.74-1.686-2.955-1.686h-23.145c-1.213,0-2.336,0.64-2.955,1.686c-0.616,1.045-0.637,2.338-0.053,3.401l8.433,14.944
		l-9.521,17.315c-1.104,2.007-1.463,4.34-1.018,6.588l6.039,32.598c-3.017-7.735-24.421-68.128-27.699-76.533H56.795
		c-30.682,0-55.77,24.961-55.924,55.643L0,342.818c-0.066,13.051,10.461,23.684,23.514,23.75c0.039,0,0.08,0,0.121,0
		c12.994,0,23.563-10.504,23.629-23.514l0.871-173.612c0.015-2.517,2.062-4.548,4.576-4.541c2.516,0.006,4.549,2.047,4.549,4.563
		l0.013,397.231c0,15.662,12.696,28.357,28.358,28.357c15.66,0,28.357-12.695,28.357-28.357V346.152
		c0-3.381,2.739-6.123,6.121-6.123c3.38,0,6.122,2.742,6.122,6.123v220.543c0,15.662,12.695,28.359,28.357,28.359
		s28.357-12.697,28.357-28.359v-48.301c-11.31-5.975-19.039-17.852-19.039-31.504v-94.037c0-13.654,7.729-25.529,19.039-31.502
		c0-44.305-0.498,0.982-0.515-191.81c0-2.712,2.187-4.918,4.896-4.946c2.713-0.027,4.94,2.135,4.994,4.849l0.873,173.612
		c0.039,8.063,4.211,15.225,10.313,19.396v20.664h-3.996c-5.377,0-9.737,4.359-9.737,9.738v94.037c0,5.379,4.36,9.738,9.737,9.738
		h35.648c5.377,0,9.738-4.359,9.738-9.738v-94.039C244.898,387.476,240.538,383.115,235.161,383.115z"/>
</g>
</svg>
