<?xml version="1.0" encoding="utf-8"?>
<!-- Generator: Adobe Illustrator 16.0.3, SVG Export Plug-In . SVG Version: 6.00 Build 0)  -->
<!DOCTYPE svg PUBLIC "-//W3C//DTD SVG 1.1//EN" "http://www.w3.org/Graphics/SVG/1.1/DTD/svg11.dtd">
<svg version="1.1" id="Capa_1" xmlns="http://www.w3.org/2000/svg" xmlns:xlink="http://www.w3.org/1999/xlink" x="0px" y="0px"
	 width="591.085px" height="595.281px" viewBox="0 0 591.085 595.281" enable-background="new 0 0 591.085 595.281"
	 xml:space="preserve">
<g id="XMLID_227_">
	<path id="XMLID_228_" fill="#191919" d="M247.861,134.154v-83.47H554.12v220.228H278.27c-41.883,26.005-39.022,24.363-42.57,26.049
		h331.445c7.191,0,13.023-5.831,13.023-13.024V37.659c0-7.193-5.832-13.024-13.023-13.024H234.836
		c-7.193,0-13.025,5.831-13.025,13.024v64.91C221.811,102.569,245.167,114.942,247.861,134.154z"/>
	<path id="XMLID_1158_" fill="#191919" d="M391.67,170.271l-21.25,16.756l8.592,20.711c1.396,3.366,4.139,5.994,7.564,7.245
		c3.42,1.249,7.213,1.009,10.449-0.667l56.41-29.181l56.74,44.227c2.377,1.854,5.197,2.752,7.998,2.752
		c3.877,0,7.713-1.723,10.279-5.019c4.426-5.673,3.408-13.857-2.266-18.28L462.87,159.46c-4.012-3.126-9.473-3.631-13.99-1.296
		l-51.234,26.504L391.67,170.271z"/>
	<path id="XMLID_1159_" fill="#191919" d="M363.999,103.568c-2.357-5.683-8.365-8.943-14.416-7.813l-44.381,8.274l-19.061-30.225
		c-3.836-6.085-11.881-7.906-17.963-4.07c-6.084,3.837-7.906,11.88-4.069,17.963l23.774,37.704
		c2.846,4.514,8.154,6.836,13.406,5.857l39.916-7.442l23.506-18.535L363.999,103.568z"/>
	<path id="XMLID_1160_" fill="#191919" d="M338.852,177.94c1.059,1.705,1.98,3.456,2.799,5.233l57.455-45.305
		c5.65-4.453,6.619-12.644,2.164-18.292s-12.643-6.619-18.291-2.164l-58.322,45.986C330.225,167.04,335.114,171.915,338.852,177.94z
		"/>
	<path id="XMLID_1161_" fill="#191919" d="M113.672,344.443c0-3.365,2.728-6.093,6.092-6.093s6.092,2.728,6.092,6.093v124.051
		c11.99-6.933,25.859-10.941,40.63-11.012c-6.914-11.386-10.898-24.736-10.898-39c0-23.021,10.385-43.65,26.702-57.484
		c0,0-0.495-15.662-0.51-192.274c0-2.695,2.167-4.89,4.863-4.922c2.695-0.033,4.916,2.11,4.979,4.803c0,0.001,0,0.001,0,0.001
		c0.114,22.695,0.359,71.94,0.432,85.998c0.043,8.514,4.686,16.341,12.137,20.46c7.449,4.12,16.548,3.891,23.781-0.602
		l83.332-51.739c11.033-6.85,14.424-21.347,7.572-32.38c-6.852-11.032-21.348-14.426-32.38-7.574l-47.625,29.57
		c-0.078-15.533-0.14-27.768-0.22-43.969c-0.154-30.502-25.127-55.368-55.648-55.368h-23.599l-17.669,47.029l-12.041,31.228
		l7.057-33.238c0.488-2.3,0.134-4.701-0.999-6.761l-9.56-17.388l8.25-15.748c0.589-1.071,0.568-2.373-0.053-3.425
		c-0.623-1.053-1.753-1.697-2.976-1.697h-23.306c-1.222,0-2.354,0.645-2.976,1.697c-0.623,1.052-0.642,2.354-0.054,3.425
		l8.733,15.781l-9.578,17.419c-1.112,2.021-1.474,4.371-1.025,6.635l6.111,33.3l-11.071-31.228l-18.133-47.028H56.515
		c-30.53,0-55.493,24.838-55.646,55.368L0,341.123c-0.065,12.986,10.409,23.566,23.396,23.633c0.04,0,0.081,0,0.121,0
		c12.931,0,23.447-10.451,23.512-23.396l0.869-172.753c0.013-2.573,2.106-4.649,4.677-4.642c2.571,0.006,4.652,2.093,4.652,4.666
		l0.011,395.266c0,15.182,11.988,27.557,27.014,28.188l0.265-52.66c0.125-24.938,11.449-47.295,29.155-62.34L113.672,344.443
		L113.672,344.443z"/>
	<circle id="XMLID_1165_" fill="#191919" cx="119.759" cy="48.734" r="48.734"/>
	<circle id="XMLID_1167_" fill="#191919" cx="470.815" cy="419.022" r="49.319"/>
	<path id="XMLID_1168_" fill="#191919" d="M590.807,540.093c-0.154-30.895-25.418-56.03-56.314-56.03c-13.246,0-114.48,0-127.754,0
		c-29.111,0-53.211,22.315-56.029,50.735c-2.594-28.955-27.084-51.274-56.076-51.274c-13.246,0-114.479,0-127.752,0
		c-30.897,0-56.16,25.137-56.315,56.03l-0.28,55.728h47.595l0.279-55.488c0.013-2.535,2.073-4.58,4.606-4.572
		c2.534,0.006,4.582,2.063,4.582,4.595v55.467h126.047v-55.601c0-2.752,2.229-4.979,4.98-4.979c2.75,0,4.979,2.229,4.979,4.979
		c0,0.035,0,0.074-0.002,0.111l0.279,55.488c34.797,0,60.777,0,94.109,0l0.275-54.949c0.014-2.533,2.074-4.578,4.607-4.572
		c2.531,0.006,4.582,2.063,4.582,4.597v54.924h126.047v-54.472c0-2.661,2.09-4.854,4.75-4.983c2.658-0.129,4.955,1.852,5.209,4.502
		c0,0.002,0,0.002,0,0.004l0.275,54.947h47.596L590.807,540.093z"/>
	<path id="XMLID_1202_" fill="#191919" d="M230.956,369.162c-26.449,0-47.938,20.781-49.255,46.783
		c-0.8,15.774,5.905,31.319,19.071,41.528l0,0c8.345,6.468,18.811,10.328,30.184,10.328c28.016,0,50.697-23.424,49.256-51.856
		C278.891,389.906,257.367,369.162,230.956,369.162z"/>
</g>
</svg>
