<?xml version="1.0" encoding="utf-8"?>
<!-- Generator: Adobe Illustrator 16.0.3, SVG Export Plug-In . SVG Version: 6.00 Build 0)  -->
<!DOCTYPE svg PUBLIC "-//W3C//DTD SVG 1.1//EN" "http://www.w3.org/Graphics/SVG/1.1/DTD/svg11.dtd">
<svg version="1.1" id="Capa_1" xmlns="http://www.w3.org/2000/svg" xmlns:xlink="http://www.w3.org/1999/xlink" x="0px" y="0px"
	 width="571.865px" height="582.141px" viewBox="0 0 571.865 582.141" enable-background="new 0 0 571.865 582.141"
	 xml:space="preserve">
<g id="XMLID_163_">
	<path id="XMLID_164_" fill="#191919" d="M561.296,96.007c-9.883-8.259-22.438-6.308-36.773-6.308
		c-9.35,0-16.939-7.584-16.939-16.935V45.19c0-2.931-2.373-5.313-5.307-5.313h-43.928c-2.939,0-5.309,2.381-5.309,5.313v27.575
		c0,9.352-7.588,16.935-16.943,16.935c-14.641,0-27.189-1.997-37.164,6.649c-9.299,8.042-13.299,22.228-7.473,35.123l14.223,31.647
		c-3.016,5.593-4.877,11.912-4.877,18.721c0,16.819,10.488,31.112,25.225,36.916c0.953,5.3,1.65,10.62,1.977,15.979
		c-23.596-8.364-42.33,11.693-55.363,32.945c-15.152,24.751-31.672,39.303-49.119,43.25c-2.258,0.528-4.422,0.768-6.469,0.919
		l11.416-37.857l0.15,0.03c1.465,0.264,2.92,0.389,4.363,0.389c11.512,0,21.734-8.215,23.859-19.936
		c2.084-11.367-4.387-21.913-14.584-26.257l25.863-85.867c0.363-1.229-0.338-2.538-1.551-2.9c-1.141-0.353-2.35,0.247-2.826,1.317
		l-35.104,83.905l-52.198-9.501l-52.854-79.485c-4.574-6.883-12.08-10.225-19.742-10.395l-99.081-0.256
		c-9.044,0.17-17.635,5.228-21.615,14.008L2.204,316.382c-5.574,12.194-0.21,26.597,11.987,32.166
		c12.406,5.621,26.7,0.035,32.168-12.008l25.201-55.238L49.842,383.544c-0.793,3.729,0.153,7.625,2.547,10.594
		c2.409,2.96,6.008,4.683,9.838,4.683H85.41v154.186c0,16.092,13.047,29.133,29.131,29.133c16.077,0,29.124-13.041,29.124-29.133
		V398.821h21.243v154.184c0,16.094,13.055,29.135,29.132,29.135c16.084,0,29.134-13.041,29.134-29.135V398.821h23.159
		c3.831,0,7.437-1.725,9.847-4.685c2.386-2.969,3.332-6.861,2.539-10.591l-33.511-157.757l16.517,24.855
		c3.658,5.5,9.385,9.265,15.877,10.45l51.853,9.434l-15.061,35.978c-7.076-3.45-27.575-14.509-42.125-35.063
		c-1.01-1.462-2.899-1.739-4.305-0.751c-1.408,0.985-1.725,2.92-0.744,4.313c15.99,22.619,37.99,34.055,44.785,37.209l-3.246,7.798
		c-2.64,6.304,0.361,13.559,6.656,16.213c6.316,2.655,13.582-0.344,16.238-6.645c0.166-0.402,0.301-0.812,0.432-1.217l3.107-10.289
		c3.02-0.066,6.225-0.304,9.717-1.106c19.096-4.326,36.943-19.831,53.025-46.062c11.873-19.39,29.494-38.729,50.18-29.518
		c0.137,15.04-2.084,30.129-6.973,44.656l-21.359,67.355c-5.609,16.681,6.963,33.818,24.129,33.818h41.572v109.655h-39.031
		c-21.928,0-21.906,33.156,0,33.156h107.721c21.926,0,21.91-33.156,0-33.156h-35.537V387.219h40.656
		c17.072,0,29.762-17.137,24.148-33.801l-23.951-67.42c-7.359-21.822-8.857-44.931-4.936-67.234
		c14.771-5.807,25.266-20.106,25.266-36.925c0-6.859-1.895-13.221-4.953-18.843l14.305-31.883
		C575.081,117.942,570.739,103.86,561.296,96.007z M306.794,324.47c-1.123,3.184-4.648,4.845-7.795,3.686
		c-1.537-0.548-2.77-1.665-3.467-3.126c-0.688-1.471-0.76-3.148-0.211-4.677l1.99-5.584c2.561,1.119,6.654,2.446,11.871,3.036
		L306.794,324.47z M311.347,311.811c-5.387-0.437-9.52-1.822-11.951-2.893l1.955-5.367c1.139-3.168,4.631-4.828,7.799-3.691
		c1.535,0.56,2.779,1.69,3.445,3.14c0.707,1.483,0.777,3.147,0.229,4.676L311.347,311.811z"/>
</g>
<path fill="#191919" d="M209.187,44.06c-12.9-28.151-46.192-40.515-74.344-27.615c-0.867,0.402-1.726,0.832-2.566,1.261
	c0.412-4.354-0.509-8.1-2.986-11.488c-1.546-2.056-3.871-3.997-7.098-5.167c-3.218-1.18-7.446-1.439-11.237-0.402
	c-3.836,0.992-6.874,2.986-9.235,4.854c-2.396,1.931-4.139,3.826-5.649,5.686c-2.941,3.692-4.917,7.08-6.607,10.353
	c-3.344,6.517-5.57,12.569-7.491,18.469c-1.896,5.91-3.379,11.64-4.811,17.138c-1.394,5.489-2.753,10.782-4.21,15.501
	c-1.493,4.667-3.351,8.771-4.809,10.791c-0.751,1.019-1.029,1.653-1.681,2.466c-0.643,0.84-2.011,1.61-4.184,2.083
	c-2.163,0.447-4.89,0.545-7.947,0.465c-1.547-0.009-3.156-0.117-4.854-0.169c-0.869-0.018-1.718-0.072-2.576-0.125
	c-0.939,0.009-1.832-0.098-2.825-0.072c0.206,0.965,0.492,1.806,0.752,2.727c0.331,0.841,0.67,1.699,1.027,2.539
	c0.724,1.689,1.663,3.236,2.709,4.765c2.056,3.013,4.782,5.749,8.404,7.912c3.585,2.199,8.332,3.621,13.642,3.425
	c5.257-0.224,10.522-2.361,14.42-5.149c3.97-2.781,7-5.945,9.521-9.048c2.539-3.111,4.559-6.267,6.375-9.343
	c1-1.707,1.922-3.396,2.815-5.078c0.832,3.362,1.976,6.697,3.478,9.96c0,0,49.68-24.711,43.476-46.747
	C170.208,71.156,209.177,44.06,209.187,44.06z"/>
</svg>
