<?xml version="1.0" encoding="utf-8"?>
<!-- Generator: Adobe Illustrator 16.0.3, SVG Export Plug-In . SVG Version: 6.00 Build 0)  -->
<!DOCTYPE svg PUBLIC "-//W3C//DTD SVG 1.1//EN" "http://www.w3.org/Graphics/SVG/1.1/DTD/svg11.dtd">
<svg version="1.1" id="Capa_1" xmlns="http://www.w3.org/2000/svg" xmlns:xlink="http://www.w3.org/1999/xlink" x="0px" y="0px"
	 width="452.617px" height="595.281px" viewBox="0 0 452.617 595.281" enable-background="new 0 0 452.617 595.281"
	 xml:space="preserve">
<g>
	<g>
		<path fill="#191919" d="M187.169,99.884l112.752-24.188l-1.398-6.592l9.873-7.583c1.873,1.2,3.51,2.647,4.58,4.431
			c1.646,2.746,1.744,5.908,0.238,9.655c-2.559,6.463-2.27,10.766,0.832,12.788c1.705,1.081,3.965,1.229,6.563,0.674
			c4.371-0.941,9.646-3.896,14.375-7.683l0.268,0.456l15.078-8.297l-2.357-4.332l-9.953,5.462l-0.467-0.466
			c-0.574,0.575-1.143,1.13-1.705,1.655l-2.994,1.656l0.355,0.644c-7.227,5.908-14.711,8.783-17.188,7.177
			c-1.396-0.882-1.16-4.035,0.564-8.396c1.885-4.798,1.717-9.12-0.506-12.847c-1.16-1.943-2.826-3.539-4.699-4.877l2.369-1.824
			l-84.42-22.988l-60.034,53.967l16.1,3.41L187.169,99.884z"/>
		<path fill="#191919" d="M257.601,155.873c32.109-6.89,52.57-38.502,45.66-70.601l-116.272,24.931
			C193.89,142.312,225.483,162.773,257.601,155.873z"/>
		<path fill="#191919" d="M429.474,101.49c-16.178-3.896-32.475,6.057-36.381,22.265c-6.582,27.311-17.557,45.432-32.652,53.848
			c-15.723,8.783-38.236,8.466-66.895-0.932c-2.814-0.932-5.65-1.269-8.465-1.358c-16.158-8-37.928-6.305-53.283,5.045
			c-2.479-2.498-5.364-4.679-8.753-6.235C169.435,149.38,129.673,108.429,104.87,52.4c-3.459-7.851-9.883-13.422-17.367-16.119
			l29.402-14.84L106.079,0L0,53.531l10.825,21.452L48.554,55.94c-2.012,6.662-1.863,14.017,1.18,20.877
			c30.91,69.848,80.723,121.019,148.053,152.086c2.637,1.219,5.343,1.973,8.06,2.399l-131.17,226.84l85.808-7.414
			c-4.64,16.455-9.279,33.109-13.629,49.832c-0.525,2.093-1.201,4.203-1.834,6.337c-3.945,12.965-15.971,52.409,23.305,70.827
			c10.469,4.906,40,17.558,66.112,17.558c8.635,0,16.9-1.398,23.949-4.898c10.783-5.352,18.379-15.047,20.855-26.604
			c3.49-16.308-6.889-32.326-23.186-35.816c-9.607-2.053-19.143,0.713-26.033,6.683c-6.909-1.052-17.773-4.095-27.924-8.05
			c0.219-0.733,0.436-1.457,0.635-2.11c0.892-2.937,1.783-5.869,2.518-8.744c5.66-21.73,11.916-43.847,17.962-65.219
			c0.079-0.287,0.168-0.604,0.248-0.892l6.156,0.346c2.527,11.123,4.6,21.699,5.295,31.404c0.922,12.779,9.803,23.584,22.135,26.965
			c10.174,2.767,21.689,7.851,33.846,13.244c20.58,9.109,41.883,18.527,64.611,20.588c0.941,0.09,1.863,0.14,2.746,0.14
			c15.443,0,28.58-11.775,30.018-27.449c1.486-16.584-10.727-31.256-27.313-32.771c-12.854-1.16-29.529-8.535-45.646-15.684
			c-7.455-3.312-15.051-6.66-22.771-9.684c-0.188-1.041-0.426-2.082-0.613-3.113l54.254,3.143l-18.389-212.735
			c1.814,0.059,3.658,0.248,5.422,0.248c21.006,0,39.939-4.669,56.664-14.007c30.402-16.951,51.23-48.039,61.906-92.399
			C455.666,121.683,445.664,105.396,429.474,101.49z"/>
	</g>
</g>
</svg>
