<?xml version="1.0" encoding="utf-8"?>
<!-- Generator: Adobe Illustrator 16.0.3, SVG Export Plug-In . SVG Version: 6.00 Build 0)  -->
<!DOCTYPE svg PUBLIC "-//W3C//DTD SVG 1.1//EN" "http://www.w3.org/Graphics/SVG/1.1/DTD/svg11.dtd">
<svg version="1.1" id="Capa_1" xmlns="http://www.w3.org/2000/svg" xmlns:xlink="http://www.w3.org/1999/xlink" x="0px" y="0px"
	 width="527.684px" height="595.277px" viewBox="0 0 527.684 595.277" enable-background="new 0 0 527.684 595.277"
	 xml:space="preserve">
<g>
	<path fill="#191919" d="M503.209,381.908c-2.563-0.041-55-0.756-91.506,1.787c-1.399-2.176-2.899-4.488-4.361-6.773l34.701-13.447
		l-90.95-121.756c-4.013-17.38-7.041-34.759-9.197-52.06c39.746,16.933,55.795,45.694,55.795,93.861
		c0,13.725,11.162,24.84,24.877,24.84c13.736,0,24.85-11.115,24.85-24.84c0-121.589-90.196-148.532-158.057-158.225
		c-12.691-1.808-24.53,6.465-27.539,18.76c-1.6,1.718-3.049,3.595-4.143,5.81c-24.648,49.825-65.268,76.829-120.764,80.255
		c-13.685,0.844-24.113,12.632-23.269,26.337c0.128,2.074,0.508,4.073,1.106,5.969l-2.604-1.134
		c-9.494-4.135-20.583,0.226-24.717,9.72l-9.123,20.947l-23.742-10.34c-6.656-2.899-14.403,0.147-17.302,6.803L1.097,371.464
		c-2.899,6.656,0.147,14.404,6.804,17.303l120.176,52.342c6.656,2.896,14.402-0.148,17.301-6.805l36.168-83.045
		c2.899-6.656-0.146-14.402-6.804-17.301l-23.744-10.342l9.123-20.947c3.913-8.983,0.213-19.385-8.24-23.982
		c42.846-4.862,79.293-21.439,108.141-48.748c3.107,17.638,6.931,35.276,11.66,52.894l-2.404,1.361l-29.009,157.519l49-18.988
		c-4.666,35.941-10.924,75.311-16.336,109.385c-1.996,12.531-3.854,24.201-5.433,34.551c-2.086,13.547,7.21,26.26,20.776,28.344
		c1.281,0.199,2.563,0.279,3.814,0.279c12.065,0,22.652-8.789,24.549-21.094c1.58-10.262,3.418-21.852,5.394-34.295
		c6.842-42.963,14.986-94.229,19.793-137.559l18.184-7.07c1.033,1.588,2.048,3.18,3.05,4.736
		c5.582,8.611,10.825,16.764,14.371,22.664c4.539,7.557,12.651,12.066,21.313,12.066c1.023,0,2.055-0.061,3.088-0.189
		c31.025-3.883,99.93-2.93,100.654-2.93c0.139,0,0.229,0,0.348,0c13.566,0,24.648-10.895,24.849-24.5
		C527.869,393.378,516.935,382.085,503.209,381.908z M132.278,315.462h-0.002l-35.244-15.35l8.468-19.444l35.246,15.351
		L132.278,315.462z"/>
	<path fill="#191919" d="M288.108,48.941c-6.893,24.48,48.296,51.931,48.296,51.931c1.668-3.625,2.938-7.33,3.863-11.063
		c0.991,1.867,2.016,3.744,3.127,5.641c2.018,3.417,4.262,6.922,7.082,10.378c2.801,3.446,6.166,6.962,10.575,10.05
		c4.33,3.099,10.181,5.472,16.021,5.721c5.898,0.218,11.172-1.361,15.154-3.804c4.022-2.403,7.053-5.442,9.336-8.789
		c1.162-1.699,2.205-3.417,3.01-5.293c0.396-0.934,0.773-1.887,1.141-2.821c0.289-1.023,0.607-1.956,0.836-3.029
		c-1.104-0.03-2.096,0.089-3.139,0.08c-0.953,0.06-1.896,0.119-2.861,0.139c-1.887,0.06-3.674,0.179-5.393,0.189
		c-3.396,0.089-6.426-0.02-8.828-0.517c-2.414-0.526-3.934-1.38-4.647-2.314c-0.726-0.904-1.033-1.609-1.867-2.741
		c-1.619-2.244-3.685-6.803-5.342-11.987c-1.619-5.244-3.13-11.123-4.679-17.221c-1.59-6.108-3.237-12.474-5.344-19.039
		c-2.135-6.555-4.607-13.278-8.322-20.518c-1.877-3.635-4.071-7.399-7.34-11.5c-1.678-2.066-3.613-4.171-6.274-6.316
		c-2.623-2.076-5.998-4.291-10.261-5.393c-4.211-1.152-8.908-0.864-12.483,0.447c-3.584,1.301-6.166,3.456-7.885,5.74
		c-2.75,3.764-3.773,7.925-3.316,12.762c-0.934-0.477-1.887-0.953-2.852-1.4c-31.272-14.331-68.256-0.596-82.587,30.678
		C223.138,48.951,266.429,79.053,288.108,48.941z"/>
</g>
</svg>
