<?xml version="1.0" encoding="utf-8"?>
<!-- Generator: Adobe Illustrator 16.0.3, SVG Export Plug-In . SVG Version: 6.00 Build 0)  -->
<!DOCTYPE svg PUBLIC "-//W3C//DTD SVG 1.1//EN" "http://www.w3.org/Graphics/SVG/1.1/DTD/svg11.dtd">
<svg version="1.1" id="Capa_1" xmlns="http://www.w3.org/2000/svg" xmlns:xlink="http://www.w3.org/1999/xlink" x="0px" y="0px"
	 width="527.684px" height="595.277px" viewBox="0 0 527.684 595.277" enable-background="new 0 0 527.684 595.277"
	 xml:space="preserve">
<g>
	<path fill="#191919" d="M0.002,407.108c0.199,13.605,11.281,24.5,24.848,24.5c0.119,0,0.209,0,0.348,0
		c0.725,0,69.629-0.953,100.654,2.93c1.033,0.129,2.064,0.189,3.088,0.189c8.66,0,16.773-4.51,21.313-12.066
		c3.545-5.9,8.789-14.053,14.371-22.664c1.002-1.559,2.016-3.148,3.049-4.736l18.185,7.07c4.807,43.33,12.95,94.596,19.793,137.559
		c1.977,12.443,3.813,24.033,5.393,34.293c1.896,12.307,12.483,21.096,24.55,21.096c1.252,0,2.533-0.08,3.814-0.279
		c13.566-2.084,22.861-14.797,20.775-28.344c-1.578-10.35-3.436-22.02-5.432-34.551c-5.412-34.074-11.669-73.441-16.337-109.385
		l49,18.988l-29.008-157.518l-2.404-1.361c4.729-17.618,8.55-35.256,11.66-52.894c28.848,27.309,65.294,43.886,108.141,48.748
		c-8.452,4.597-12.151,14.999-8.239,23.982l9.123,20.947l-23.742,10.342c-6.656,2.898-9.703,10.645-6.803,17.301l36.168,83.045
		c2.897,6.654,10.646,9.701,17.301,6.805l120.176-52.342c6.656-2.898,9.703-10.645,6.805-17.303l-36.17-83.044
		c-2.898-6.655-10.646-9.702-17.303-6.803l-23.742,10.34l-9.123-20.947c-4.135-9.494-15.223-13.855-24.717-9.72l-2.604,1.134
		c0.599-1.896,0.978-3.896,1.105-5.969c0.844-13.705-9.584-25.494-23.27-26.337c-55.496-3.426-96.115-30.43-120.765-80.255
		c-1.093-2.214-2.541-4.092-4.142-5.81c-3.008-12.295-14.846-20.568-27.539-18.76c-67.86,9.693-158.057,36.636-158.057,158.225
		c0,13.725,11.113,24.838,24.85,24.838c13.715,0,24.877-11.113,24.877-24.838c0-48.167,16.049-76.928,55.795-93.861
		c-2.155,17.301-5.187,34.68-9.196,52.06L85.64,363.469l34.701,13.447c-1.461,2.285-2.961,4.598-4.361,6.773
		c-36.506-2.543-88.943-1.828-91.506-1.787C10.749,382.081-0.187,393.374,0.002,407.108z M386.938,296.016l35.246-15.351
		l8.467,19.443l-35.244,15.35h-0.002L386.938,296.016z"/>
	<path fill="#191919" d="M239.575,48.937c6.894,24.48-48.296,51.931-48.296,51.931c-1.668-3.625-2.939-7.33-3.863-11.063
		c-0.992,1.867-2.016,3.744-3.127,5.641c-2.018,3.417-4.262,6.922-7.082,10.378c-2.801,3.446-6.166,6.962-10.576,10.05
		c-4.33,3.099-10.18,5.472-16.02,5.721c-5.898,0.218-11.172-1.361-15.154-3.804c-4.023-2.403-7.053-5.442-9.336-8.789
		c-1.162-1.699-2.205-3.417-3.01-5.293c-0.396-0.934-0.773-1.887-1.141-2.821c-0.289-1.023-0.607-1.956-0.836-3.029
		c1.104-0.03,2.096,0.089,3.139,0.08c0.953,0.06,1.896,0.119,2.861,0.139c1.887,0.06,3.674,0.179,5.393,0.189
		c3.396,0.089,6.426-0.02,8.828-0.517c2.414-0.526,3.934-1.38,4.648-2.314c0.725-0.904,1.033-1.609,1.867-2.741
		c1.619-2.244,3.684-6.803,5.342-11.987c1.619-5.244,3.129-11.123,4.678-17.221c1.59-6.108,3.238-12.474,5.344-19.039
		c2.135-6.555,4.607-13.278,8.322-20.518c1.877-3.635,4.071-7.399,7.34-11.5c1.678-2.066,3.613-4.171,6.274-6.316
		c2.623-2.076,5.998-4.291,10.261-5.393c4.211-1.152,8.908-0.864,12.482,0.447c3.585,1.301,6.167,3.456,7.885,5.74
		c2.752,3.764,3.774,7.925,3.317,12.762c0.935-0.477,1.887-0.953,2.851-1.4c31.273-14.331,68.257-0.596,82.587,30.678
		C304.546,48.947,261.255,79.048,239.575,48.937z"/>
</g>
</svg>
