<?xml version="1.0" encoding="utf-8"?>
<!-- Generator: Adobe Illustrator 16.0.3, SVG Export Plug-In . SVG Version: 6.00 Build 0)  -->
<!DOCTYPE svg PUBLIC "-//W3C//DTD SVG 1.1//EN" "http://www.w3.org/Graphics/SVG/1.1/DTD/svg11.dtd">
<svg version="1.1" id="Capa_1" xmlns="http://www.w3.org/2000/svg" xmlns:xlink="http://www.w3.org/1999/xlink" x="0px" y="0px"
	 width="488.96px" height="591.273px" viewBox="0 0 488.96 591.273" enable-background="new 0 0 488.96 591.273"
	 xml:space="preserve">
<g>
	<g>
		<path fill="#191919" d="M462.962,123.361c-69.801,0-96.609,0-166.42,0c-1.248,0-2.34,0.213-3.492,0.348
			c-4.303-4.304-9.119-7.853-14.469-9.758c-18.686,16.442-39.363,43.716-39.363,43.716s-4.159-29.44-12.584-46.047
			c-12.293,2.95-23.348,8.26-32.225,15.146c-1.664,0.638-3.348,1.451-5.039,2.505c-18.164,11.287-36.336,22.574-54.5,33.86
			c-11.636-20.727-23.261-41.434-34.877-62.16C83.03,70.738,36.586,97.837,53.58,128.1c16.123,28.754,32.255,57.498,48.397,86.252
			c7.021,12.505,24.488,17.264,36.771,9.643c10.609-6.586,21.2-13.173,31.811-19.759c-1.51,25.582-4.875,52.053-18.501,78.485
			L45.67,394.825h73.553c-21.045,49.828-42.11,99.666-63.175,149.504c-13.328,31.539,32.98,58.969,46.424,27.158
			c24.875-58.91,49.751-117.781,74.636-176.662h30.554l5.715,75.033c0,0,1.287,7.051,2.699,9.768
			c0.707,4.459,2.631,8.957,6.112,13.185c20.049,24.409,43.28,64.799,68.137,89.307c26.229,25.891,55.506-8.5,31.887-36.461
			c-16.461-17.322-56.221-84.23-56.221-84.23s-0.01-2.08-0.107-3.153c-2.242-26.724-4.322-43-5.695-63.465h62.344l-56.871-110.198
			l44.596-107.5c59.916,0,87.664,0,152.705,0C497.626,177.126,497.626,123.361,462.962,123.361z"/>
	</g>
</g>
<path fill="#191919" d="M439.761,261.325c-10.205-2.862-20.473,1.862-22.91,10.549c-2.438,8.698,3.879,18.063,14.082,20.924
	c9.938,2.787,19.895-1.61,22.672-9.835c16.67-22.746,20.299-42.854,20.965-52.868c0.453-6.996-4.553-13.968-11.375-15.882
	l-43.492-12.218c-3.471-0.974-7.096-0.532-10.223,1.225c-3.314,1.875-5.717,5.002-6.77,8.828
	c-2.918,10.672-9.262,24.23-14.152,33.888c-1.57-0.911-3.314-1.665-5.199-2.193c-10.209-2.863-20.477,1.86-22.914,10.558
	c-2.439,8.688,3.883,18.064,14.084,20.925c9.447,2.65,18.908-1.188,22.221-8.644l0.129,0.075
	c0.648-1.135,15.289-27.01,21.494-47.307l39.059,10.973c-0.646,7.112-3.16,19.242-11.709,33.66
	C443.921,262.859,441.945,261.937,439.761,261.325z"/>
<path fill="#191919" d="M55.333,306.821c3.923,8.137,14.85,10.992,24.399,6.396c9.305-4.467,13.863-14.352,10.51-22.364
	c-2.524-28.092-13.092-45.572-19.211-53.534c-4.287-5.536-12.648-7.476-19.041-4.396l-40.708,19.578
	c-3.248,1.559-5.68,4.286-6.858,7.684c-1.25,3.591-0.973,7.538,0.761,11.098c4.861,9.94,9.063,24.31,11.763,34.794
	c-1.788,0.352-3.592,0.938-5.344,1.793c-9.545,4.596-14.119,14.924-10.201,23.057c3.923,8.138,14.841,11,24.4,6.396
	c8.83-4.246,13.396-13.4,10.953-21.172l0.15-0.027c-0.259-1.285-6.383-30.372-15.14-49.715l36.554-17.576
	c4.214,5.771,10.355,16.526,13.463,33c-2.088,0.326-4.185,0.951-6.228,1.93C55.989,288.355,51.417,298.688,55.333,306.821z"/>
<path fill="#191919" d="M271.564,42.004c-5.916,21.012,41.455,44.574,41.455,44.574c1.432-3.111,2.521-6.292,3.314-9.497
	c0.852,1.603,1.73,3.214,2.686,4.842c1.73,2.933,3.656,5.942,6.078,8.908c2.404,2.958,5.293,5.976,9.078,8.627
	c3.717,2.659,8.736,4.697,13.75,4.911c5.063,0.187,9.588-1.168,13.008-3.266c3.453-2.062,6.055-4.67,8.014-7.544
	c0.998-1.458,1.893-2.932,2.584-4.543c0.34-0.801,0.662-1.62,0.979-2.421c0.248-0.878,0.521-1.68,0.717-2.6
	c-0.945-0.025-1.799,0.077-2.693,0.069c-0.816,0.05-1.627,0.102-2.455,0.119c-1.619,0.05-3.154,0.152-4.629,0.162
	c-2.916,0.076-5.516-0.018-7.578-0.443c-2.07-0.452-3.375-1.185-3.988-1.987c-0.623-0.775-0.887-1.38-1.604-2.352
	c-1.391-1.926-3.162-5.839-4.586-10.289c-1.391-4.5-2.686-9.547-4.016-14.781c-1.363-5.243-2.777-10.707-4.586-16.342
	c-1.832-5.626-3.955-11.396-7.145-17.611c-1.609-3.12-3.494-6.351-6.299-9.871c-1.439-1.773-3.104-3.581-5.387-5.422
	c-2.252-1.781-5.148-3.683-8.807-4.628c-3.615-0.989-7.646-0.742-10.715,0.383c-3.078,1.117-5.295,2.967-6.77,4.927
	c-2.359,3.231-3.238,6.802-2.848,10.954c-0.801-0.409-1.619-0.818-2.447-1.202c-26.842-12.3-58.585-0.511-70.886,26.332
	C215.797,42.012,252.956,67.849,271.564,42.004z"/>
</svg>
