<?xml version="1.0" encoding="utf-8"?>
<!-- Generator: Adobe Illustrator 16.0.3, SVG Export Plug-In . SVG Version: 6.00 Build 0)  -->
<!DOCTYPE svg PUBLIC "-//W3C//DTD SVG 1.1 Tiny//EN" "http://www.w3.org/Graphics/SVG/1.1/DTD/svg11-tiny.dtd">
<svg version="1.1" baseProfile="tiny" id="Layer_1" xmlns="http://www.w3.org/2000/svg" xmlns:xlink="http://www.w3.org/1999/xlink"
	 x="0px" y="0px" width="332.393px" height="595.281px" viewBox="0 0 332.393 595.281" xml:space="preserve">
<path fill="#191919" d="M311.244,33.871c-3.185-0.896-6.769-1.491-10.445-1.944c7.303-54.608-89.264-25.934-115.551-10.414
	c-24.444,14.443-12.035,37.618,7.676,49.401c4.824,2.9,9.949,5.268,15.238,7.242c-0.093,4.049,0.885,8.208,3,12.227
	c0.825,4.411,2.096,8.723,4.01,12.65c0.473,0.956,1.047,1.883,1.672,2.789c-6.688,5.066-11.371,11.23-10.506,17.776
	c-0.121,18.663,31.928,19.106,40.639,30.99c4.726,6.415,15.562,0.202,10.787-6.305c-4.279-5.841-11.018-9.507-17.947-12.741
	c7.554-2.426,13.265-7.06,12.609-13.364c7.725-0.12,14.926-2.417,19.791-7.665c1.047-1.147,1.953-2.447,2.658-3.816
	c5.127-0.453,9.951-1.088,14.028-1.904c13.519-2.709,15.914-12.6,13.537-23.113c8.813-2.287,16.892-6.164,23.015-12.59
	C340.461,57.378,329,38.847,311.244,33.871z M212.813,64.73c-0.332,0.443-0.645,0.906-0.967,1.38
	c-1.219-0.483-2.479-0.876-3.656-1.42c-8.409-3.857-17.182-8.41-22.729-16.054c-7.666-10.515,7.029-17.212,14.371-20.737
	c15.188-7.312,32.651-10.817,49.129-13.919c18.078-3.415,41.938-4.693,39.238,17.303c-11.552,0.383-23.255,3.324-31.685,9.598
	c-10.283-2.538-20.92-1.622-30.336,5.298C219.721,50.912,215.35,57.449,212.813,64.73z M259.344,55.928
	c0.1-0.262,0.191-0.534,0.301-0.786c1.302,0.595,2.619,1.239,3.898,1.944C262.143,56.663,260.756,56.291,259.344,55.928z
	 M274.955,75.961c-5.056-0.344-9.709-2.377-12.771-6.165C266.737,71.408,271.078,73.463,274.955,75.961z M246.553,66.261
	c0.887,2.891,2.307,5.651,4.148,8.198c-2.177-0.262-4.4-0.492-6.525-0.785c-6.184-0.855-12.59-1.883-18.885-3.354
	c3.123-2.417,7.19-4.089,11.422-4.381C239.826,65.728,243.149,65.889,246.553,66.261z M237.781,53.511
	c3.012-1.35,6.194-1.843,9.469-1.662c-0.263,0.624-0.435,1.249-0.635,1.873C243.602,53.45,240.651,53.39,237.781,53.511z
	 M231.516,125.059c-5.942,0.484-9.022-1.117-9.477-3.545c2.145-0.815,5.578-1.117,9.014-0.967
	C237.42,120.829,239.675,124.404,231.516,125.059z M285.582,96.748c-3.777,1.067-7.888,1.4-12.035,1.49
	c-0.061-0.051-0.082-0.101-0.121-0.15c-7.475-7.635-18.904-6.577-28.543-4.996c-1.924,0.322-4.332,0.957-6.93,1.823
	c-2.933-0.755-5.832-1.672-8.611-3.021c-2.85-1.39-4.914-2.931-6.465-4.532c-0.213-1.611-0.293-3.253-0.264-4.904
	c12.036,2.9,24.545,4.33,36.592,5.317c4.311,0.353,8.981,0.604,13.735,0.704c1.562,0.283,3.123,0.475,4.675,0.494
	c1.602,0.02,3.172-0.231,4.744-0.574c2.891-0.121,5.76-0.352,8.649-0.685C291.615,91.803,290.485,95.357,285.582,96.748z
	 M297.869,73.563c-2.861-5.559-6.457-10.554-9.74-13.828c-4.764-4.754-10.443-9.195-16.576-12.71
	c1.047-0.313,2.084-0.595,3.07-0.836c4.612-1.108,9.801-1.884,15.059-2.125c2.054,1.188,4.693,1.29,6.728,0.03
	c6.897,0.342,13.637,1.763,19.217,4.824C332.213,58.043,306.34,71.005,297.869,73.563z"/>
<g>
	<path fill="#191919" d="M263.274,351.529c-0.341-0.934-34.255-93.718-49.189-137.176c-9.636-28.041-25.794-42.259-48.024-42.259
		c-30.933,0-41.229,0-72.127,0c-3.821,0-7.1,0.349-9.987,1.039l-29.543-18.41l36.641-43.484c7.727-9.168,6.556-22.862-2.612-30.588
		c-9.169-7.725-22.862-6.556-30.588,2.612L5.09,145.869c-1.669,1.981-2.897,4.18-3.746,6.478c-0.01,0.026-0.019,0.053-0.028,0.079
		c-0.223,0.607-0.416,1.22-0.581,1.84c-0.033,0.122-0.063,0.244-0.095,0.366c-0.129,0.522-0.239,1.046-0.329,1.575
		c-0.038,0.216-0.07,0.433-0.102,0.649c-0.061,0.438-0.109,0.876-0.143,1.316c-0.024,0.299-0.041,0.597-0.053,0.896
		c-0.013,0.363-0.018,0.725-0.012,1.087c0.004,0.367,0.019,0.732,0.041,1.098c0.021,0.299,0.044,0.596,0.076,0.893
		c0.043,0.422,0.1,0.841,0.168,1.259c0.04,0.24,0.083,0.479,0.131,0.718c0.093,0.47,0.202,0.936,0.326,1.399
		c0.049,0.182,0.1,0.362,0.153,0.542c0.152,0.519,0.325,1.03,0.518,1.537c0.044,0.117,0.089,0.233,0.136,0.35
		c0.228,0.571,0.479,1.131,0.754,1.682c0.023,0.045,0.046,0.091,0.069,0.137c1.731,3.402,4.36,6.402,7.836,8.568l64.239,40.032
		v36.134c0.471,0.015,0.924,0.049,1.402,0.054c1.483,4.869,4.517,9.05,8.508,12.015l0.05,30.433l-35.727,90.088
		c-1.947,4.912,0.904,10.401,6.028,11.634c5.333,1.281,12.396,3.027,20.057,4.942v166.688c0,13.764,11.159,24.924,24.926,24.924
		c13.765,0,24.924-11.16,24.924-24.924V415.452c3.578,0.316,7.179,0.315,10.76-0.005v154.91c0,13.764,11.158,24.924,24.925,24.924
		c13.766,0,24.924-11.16,24.924-24.924V403.648c7.655-1.915,14.712-3.656,20.046-4.937c5.088-1.221,7.989-6.709,6.034-11.638
		l-35.72-90.069l0.051-30.434c3.992-2.963,7.023-7.145,8.506-12.014c16.583,46.842,39.837,110.459,40.12,111.235
		c3.938,10.773,15.866,16.313,26.637,12.374C261.674,374.229,267.216,362.302,263.274,351.529z"/>
	<path fill="#191919" d="M87.071,126.229c6.097,17.855,23.006,30.701,42.926,30.701c25.052,0,45.362-20.309,45.362-45.362
		c0-25.053-20.311-45.362-45.362-45.362c-11.239,0-21.516,4.096-29.44,10.866c7.575,9.986,7.525,24.222-0.89,34.208L87.071,126.229z
		"/>
</g>
</svg>
