<?xml version="1.0" encoding="utf-8"?>
<!-- Generator: Adobe Illustrator 16.0.3, SVG Export Plug-In . SVG Version: 6.00 Build 0)  -->
<!DOCTYPE svg PUBLIC "-//W3C//DTD SVG 1.1//EN" "http://www.w3.org/Graphics/SVG/1.1/DTD/svg11.dtd">
<svg version="1.1" id="Layer_1" xmlns="http://www.w3.org/2000/svg" xmlns:xlink="http://www.w3.org/1999/xlink" x="0px" y="0px"
	 width="820.074px" height="512.231px" viewBox="0 0 820.074 512.231" enable-background="new 0 0 820.074 512.231"
	 xml:space="preserve">
<path fill="#7F7F7F" d="M627.611,167.539l21.681-71.978c0.305-1.03-0.282-2.127-1.3-2.431c-0.956-0.296-1.971,0.207-2.369,1.104
	l-29.426,70.333l-16.086,38.439l-12.624,30.158c-5.933-2.893-23.115-12.161-35.31-29.391c-0.848-1.226-2.432-1.458-3.61-0.63
	c-1.179,0.826-1.444,2.448-0.622,3.615c13.403,18.96,31.845,28.546,37.539,31.19l-2.72,6.536
	c-2.214,5.283,0.303,11.365,5.579,13.591c5.295,2.226,11.385-0.288,13.61-5.569c0.141-0.338,0.253-0.68,0.361-1.02l2.604-8.625
	c2.533-0.057,5.22-0.256,8.146-0.93c16.008-3.625,30.967-16.623,44.449-38.609c9.952-16.253,24.723-32.464,42.063-24.743
	c0.113,12.607-1.748,25.255-5.847,37.433l-17.903,56.458c-4.701,13.984,5.837,28.35,20.228,28.35h34.848v91.918h-32.719
	c-18.381,0-18.363,27.793,0,27.793h90.296c18.379,0,18.366-27.793,0-27.793H758.69V300.82h34.081
	c14.31,0,24.945-14.363,20.242-28.332l-20.078-56.516c-6.169-18.292-7.426-37.662-4.136-56.357
	c12.38-4.868,21.179-16.854,21.179-30.952c0-5.75-1.59-11.082-4.153-15.794l11.99-26.726c4.954-11.041,1.315-22.845-6.6-29.427
	c-8.284-6.923-18.809-5.287-30.827-5.287c-7.836,0-14.197-6.357-14.197-14.196V14.118c0-2.457-1.989-4.453-4.448-4.453h-36.821
	c-2.466,0-4.449,1.996-4.449,4.453v23.114c0,7.84-6.36,14.196-14.202,14.196c-12.272,0-22.793-1.674-31.153,5.573
	c-7.794,6.742-11.147,18.632-6.264,29.441l11.923,26.528c-2.528,4.688-4.089,9.985-4.089,15.692c0,14.099,8.792,26.08,21.144,30.944
	c0.799,4.443,1.386,8.902,1.656,13.395c-19.777-7.011-35.483,9.801-46.408,27.616c-12.701,20.748-26.548,32.945-41.173,36.254
	c-1.894,0.443-3.707,0.645-5.423,0.77l9.697-31.708L627.611,167.539z M597.883,248.222c-0.941,2.668-3.898,4.061-6.535,3.088
	c-1.288-0.459-2.322-1.396-2.906-2.621c-0.575-1.231-0.636-2.639-0.177-3.92l1.669-4.681c2.146,0.938,5.578,2.05,9.95,2.546
	L597.883,248.222z M602.937,234.142l-1.239,3.467c-4.514-0.365-7.979-1.527-10.018-2.424l1.639-4.5
	c0.954-2.655,3.883-4.047,6.536-3.094c1.287,0.469,2.331,1.418,2.89,2.631C603.336,231.468,603.396,232.862,602.937,234.142z"/>
<g>
	<g>
		<path fill="#191919" d="M594.188,156.366c-3.398-9.306-13.697-14.094-23.002-10.695c-63.572,23.217-206.574,75.443-230.736,84.269
			c4.014-14.317-5.773-28.32-20.01-30.046l-4.056-0.491c-10.801-21.955-8.512-17.301-19.068-38.762
			c-3.2-6.504-11.065-9.18-17.57-5.983c-5.873,2.889-9.665,10.081-5.462,18.625l10.994,22.346l-55.356-6.711l-58.343-38.775
			l34.841,11.439c-4.922-16.963-20.397-28.603-37.962-28.727l-36.634-0.263c-22.145-0.159-40.172,17.799-40.111,39.934l0.37,135.073
			c0.028,10.594,4.279,20.74,11.808,28.193c5.311,5.26,11.95,8.861,19.119,10.506H72.946L39.007,173.638
			c-2.097-10.668-12.447-17.612-23.113-15.521C5.226,160.215-1.724,170.562,0.373,181.23l37.064,188.552
			c1.815,9.232,9.908,15.891,19.316,15.891h53.626v68.633l-60.786,33.287c-6.357,3.479-8.69,11.455-5.208,17.813
			c3.481,6.355,11.456,8.691,17.815,5.207l61.302-33.566l61.302,33.566c6.359,3.484,14.335,1.146,17.815-5.207
			c3.481-6.355,1.15-14.334-5.208-17.813l-60.786-33.287v-68.633h57.928c10.872,0,19.688-8.814,19.688-19.688
			c0-6.588-3.246-12.398-8.213-15.977l18.317,4.271v129.408c0,15.76,12.777,28.539,28.539,28.539
			c15.762,0,28.538-12.779,28.538-28.539V331.632c0-13.268-9.14-24.779-22.06-27.793l-12.04-2.809c1.987-0.02,4-0.352,5.972-1.07
			l54.529-19.914c0,10.086,0,200.707,0,212.52c0,10.859,8.805,19.664,19.664,19.664h0.08c10.858,0,19.666-8.805,19.666-19.664
			v-189.48h190.883v189.48c0,10.861,8.805,19.666,19.666,19.666h0.078c10.861,0,19.666-8.805,19.666-19.666V283.095l-0.059,0.027
			c-0.16-10.721-8.89-19.361-19.646-19.361h-205.41l231.078-84.396C592.796,175.97,597.585,165.67,594.188,156.366z
			 M240.989,266.265c-9.306,3.398-14.094,13.695-10.695,23c1.628,4.457,4.846,7.859,8.772,9.842l-32.938-7.678l0.667-42.442
			l-54.481-54.53l55.973,37.2c3.092,2.056,6.619,3.356,10.302,3.803l80.144,9.714C253.882,261.558,261.875,258.638,240.989,266.265z
			"/>
	</g>
</g>
<path fill="#191919" d="M227.588,46.545c-13.628-29.739-48.797-42.801-78.535-29.173c-0.917,0.425-1.824,0.878-2.711,1.331
	c0.435-4.599-0.539-8.556-3.154-12.135c-1.634-2.172-4.09-4.221-7.498-5.458c-3.399-1.247-7.866-1.521-11.871-0.425
	c-4.054,1.048-7.263,3.154-9.757,5.128c-2.531,2.04-4.371,4.042-5.967,6.006c-3.108,3.9-5.194,7.479-6.979,10.936
	c-3.533,6.885-5.884,13.278-7.914,19.511c-2.003,6.243-3.569,12.296-5.082,18.105c-1.473,5.799-2.909,11.389-4.449,16.376
	c-1.576,4.93-3.54,9.265-5.08,11.399c-0.793,1.076-1.085,1.747-1.775,2.606c-0.679,0.888-2.124,1.7-4.419,2.2
	c-2.285,0.473-5.165,0.576-8.395,0.492c-1.634-0.009-3.334-0.123-5.128-0.18c-0.918-0.019-1.814-0.075-2.721-0.132
	c-0.992,0.009-1.936-0.104-2.985-0.076c0.217,1.021,0.52,1.908,0.795,2.881c0.349,0.888,0.708,1.794,1.084,2.682
	c0.766,1.784,1.757,3.418,2.862,5.034c2.171,3.183,5.053,6.073,8.878,8.357c3.787,2.323,8.802,3.825,14.411,3.618
	c5.553-0.237,11.117-2.494,15.234-5.44c4.193-2.937,7.393-6.28,10.056-9.557c2.682-3.287,4.816-6.62,6.735-9.869
	c1.057-1.804,2.031-3.589,2.973-5.364c0.879,3.55,2.088,7.073,3.674,10.52c0,0,52.48-26.104,45.926-49.383
	C186.412,75.169,227.578,46.544,227.588,46.545z"/>
</svg>
