<?xml version="1.0" encoding="utf-8"?>
<!-- Generator: Adobe Illustrator 16.0.3, SVG Export Plug-In . SVG Version: 6.00 Build 0)  -->
<!DOCTYPE svg PUBLIC "-//W3C//DTD SVG 1.1//EN" "http://www.w3.org/Graphics/SVG/1.1/DTD/svg11.dtd">
<svg version="1.1" id="Layer_1" xmlns="http://www.w3.org/2000/svg" xmlns:xlink="http://www.w3.org/1999/xlink" x="0px" y="0px"
	 width="31.5px" height="63.658px" viewBox="16.881 0.237 31.5 63.658" enable-background="new 16.881 0.237 31.5 63.658"
	 xml:space="preserve">
<g>
	<path fill="#1D1D1B" d="M30.711,63.307c0.393,0.393,0.907,0.588,1.422,0.588c0.514,0,1.028-0.195,1.422-0.588l14.237-14.24
		c0.785-0.785,0.785-2.059,0-2.844c-0.786-0.785-2.06-0.785-2.844,0L34.145,57.029V2.248c0-1.11-0.899-2.011-2.012-2.011
		c-1.112,0-2.011,0.9-2.011,2.011v54.781l-9.808-10.807c-0.785-0.785-2.058-0.785-2.843,0c-0.786,0.785-0.786,2.059,0,2.844
		L30.711,63.307z"/>
</g>
</svg>
