<?xml version="1.0" encoding="utf-8"?>
<!-- Generator: Adobe Illustrator 16.0.3, SVG Export Plug-In . SVG Version: 6.00 Build 0)  -->
<!DOCTYPE svg PUBLIC "-//W3C//DTD SVG 1.1//EN" "http://www.w3.org/Graphics/SVG/1.1/DTD/svg11.dtd">
<svg version="1.1" id="Layer_1" xmlns="http://www.w3.org/2000/svg" xmlns:xlink="http://www.w3.org/1999/xlink" x="0px" y="0px"
	 width="64px" height="64px" viewBox="0 0 64 64" enable-background="new 0 0 64 64" xml:space="preserve">
<g>
	<path fill="#4C4C4C" d="M63.387,16.193l0.002-0.002c0.002-0.003,0.004-0.006,0.006-0.01c0.172-0.195,0.297-0.43,0.398-0.678
		c0.032-0.076,0.053-0.148,0.076-0.225c0.058-0.191,0.094-0.389,0.105-0.596c0.006-0.076,0.019-0.148,0.017-0.226
		c0-0.04,0.01-0.076,0.008-0.115c-0.015-0.239-0.062-0.47-0.136-0.687c-0.006-0.023-0.022-0.041-0.03-0.064
		c-0.088-0.239-0.214-0.451-0.362-0.645c-0.021-0.027-0.029-0.063-0.051-0.09L53.109,0.709c-0.789-0.93-2.084-0.948-2.896-0.037
		c-0.808,0.91-0.821,2.402-0.03,3.334l5.558,6.549c-8.121-1.076-16.104,0.633-16.481,0.717C14.614,15.739-2.827,38.499,0.38,62.008
		C0.539,63.172,1.408,64,2.399,64c0.106,0,0.212-0.009,0.32-0.027c1.116-0.203,1.878-1.408,1.704-2.695
		C1.566,40.337,17.479,19.995,39.96,15.919c0.103-0.024,8.351-1.794,16.117-0.574L47.5,20.438c-1.005,0.598-1.398,2.02-0.881,3.177
		c0.516,1.159,1.748,1.608,2.756,1.017l13.52-8.028C63.078,16.493,63.242,16.354,63.387,16.193z"/>
</g>
</svg>
