<?xml version="1.0" encoding="utf-8"?>
<!-- Generator: Adobe Illustrator 16.0.3, SVG Export Plug-In . SVG Version: 6.00 Build 0)  -->
<!DOCTYPE svg PUBLIC "-//W3C//DTD SVG 1.1//EN" "http://www.w3.org/Graphics/SVG/1.1/DTD/svg11.dtd">
<svg version="1.1" id="Capa_1" xmlns="http://www.w3.org/2000/svg" xmlns:xlink="http://www.w3.org/1999/xlink" x="0px" y="0px"
	 width="595.28px" height="595.281px" viewBox="123.305 0 595.28 595.281" enable-background="new 123.305 0 595.28 595.281"
	 xml:space="preserve">
<path fill="#191919" d="M336.764,301.648v48.104h-49.464c-59.785,0-108.876,49.689-108.876,109.629v68.6
	c0,6.133,3.77,11.717,9.324,14.324c86.033,40.445,167.346,52.979,234.942,52.977c35.58,0,67.455-3.473,94.217-8.174
	c84.271-14.811,136.684-44.084,138.893-45.322c4.992-2.799,7.67-8.078,7.67-13.805v-68.6c0-59.939-48.008-109.629-108.102-109.629
	H507.13v-50.107v-0.176c12.025-14.594,22.773-31.131,31.002-47.733c2.92-0.481,6.072-1.403,8.98-2.794
	c12.875-6.149,24.678-21.18,31.398-40.221c10.912-30.937,4.789-58.492-14.602-65.972c-1.992-22.659-9.703-45.518-22.383-66.377
	c2.066-2.411,3.41-5.401,3.752-8.625c0.48-4.534-1.012-9.055-4.104-12.402C507.277,18.62,468.55,0,426.064,0
	c-68.968,0-123.945,49.617-139.151,64.823c-35.544,35.541-69.554,37.539-70.854,37.605c-7.652,0.234-14.044,5.915-15.17,13.489
	c-1.13,7.574,3.327,14.87,10.583,17.329c19.49,6.594,39.693,11.208,60.396,13.826c-13.387,11.004-16.63,35.082-7.26,61.661
	c4.492,12.726,11.391,24.008,19.42,31.766c6.698,6.474,13.755,10.336,21.051,11.358c8.506,17.149,19.658,34.765,31.684,49.683v0.107
	H336.764z M383.31,243.027c0.475-0.467,3.604-1.507,9.807-1.507h54.88c6.203,0,8.717,1.04,9.086,1.351
	c0.047,0.114-0.061,0.301-0.061,1.215v28.495c0,8.743,7.322,15.83,16.066,15.83c0.834,0,1.764-0.084,2.561-0.208
	c-15.83,16.612-34.215,28.202-53.752,28.202c-19.473,0-38.197-11.504-53.989-28.02c8.497-0.281,14.954-7.238,14.954-15.804v-28.495
	C382.863,243.165,383.346,242.979,383.31,243.027z M368.833,366.505v-36.262c16.035,11.037,33.232,17.82,52.405,17.82
	c19.739,0,37.79-7.215,53.825-18.836v37.279c0,5.313,3.336,10,7.35,12.873c-1.045,31.875-26.922,57.488-59.047,57.488
	c-32.711,0-59.158-26.555-59.276-59.238C366.915,374.767,368.833,370.843,368.833,366.505z M309.303,87.213
	c13.032-13.034,59.965-55.551,116.767-55.551c27.844,0,54.016,10.629,78.021,31.642c-31.506,18.249-105.184,54.678-191.305,54.678
	c-13.413,0-26.659-0.892-39.669-2.664C284.609,108.62,296.976,99.534,309.303,87.213z M310.708,149.644
	c88.19,0,167.259-35.274,204.022-55.997c11.445,19.233,17.975,40.76,17.975,60.767c0,1.046,0.033,2.11,0,3.185
	c-0.17,5.397,2.451,10.51,6.91,13.561c3.549,2.431,7.896,3.275,12.035,2.467c0.928,4.237,1.195,12.972-2.895,24.569
	c-4.723,13.385-11.559,20.155-14.523,21.915c-3.365-1.194-7.064-1.225-10.482-0.04c-4.139,1.435-7.531,4.524-9.311,8.528
	c-6.443,14.499-15.32,29.862-25.342,43.624v-28.139c0-16.066-10.717-34.635-41.094-34.635h-54.88
	c-30.379,0-42.323,18.57-42.323,34.635v24.272c-8.017-12.813-16.168-26.775-22.037-40.024c-1.844-4.161-5.101-7.328-9.444-8.692
	c-3.523-1.106-7.149-0.937-10.529,0.429c-3-1.816-9.703-8.586-14.391-21.869c-4.039-11.457-3.798-20.119-2.9-24.417
	c4.249,1.054,8.584,0.317,12.314-2.141c4.61-3.037,6.899-8.258,6.899-13.775v-8.224H310.708z M631.398,518.263
	c-16.035,8.322-60.822,27.313-121.854,37.879c-71.008,12.303-178.793,15.324-299.052-38.314V459.38
	c0-42.48,34.482-77.559,76.807-77.559h45.446c2.567,48.104,42.387,86.189,90.977,86.189c48.592,0,88.41-38.086,90.979-86.189h40.666
	c42.633,0,76.033,35.078,76.033,77.559v58.883H631.398z"/>
</svg>
