<?xml version="1.0" encoding="utf-8"?>
<!-- Generator: Adobe Illustrator 16.0.3, SVG Export Plug-In . SVG Version: 6.00 Build 0)  -->
<!DOCTYPE svg PUBLIC "-//W3C//DTD SVG 1.1//EN" "http://www.w3.org/Graphics/SVG/1.1/DTD/svg11.dtd">
<svg version="1.1" id="Capa_1" xmlns="http://www.w3.org/2000/svg" xmlns:xlink="http://www.w3.org/1999/xlink" x="0px" y="0px"
	 width="595.28px" height="595.281px" viewBox="123.305 0 595.28 595.281" enable-background="new 123.305 0 595.28 595.281"
	 xml:space="preserve">
<path fill="#191919" d="M542.382,377.808h-41.926v-9.363l70.361-0.938c5.863-0.078,11.488-3.605,13.785-8.996
	c1.172-2.746,27.324-64.729,20.426-133.647c11.77-2.165,22.438-10.544,29.145-23.359c10.404-19.877,12.438-54.283-13.188-91.235
	c-15.842-22.842-35.367-47.171-61.348-67.158l8.602-11.119c5.004-6.471,3.814-15.772-2.656-20.773
	c-6.473-4.997-15.771-3.809-20.773,2.664l-9.914,12.833C506.287,10.608,471.111,0,426.921,0c-8.942,0-18.266,0.437-27.711,1.289
	c-61.583,5.546-91.547,34.41-103.928,51.114c-12.426,16.766-17.991,35.701-14.886,50.607c1,4.799,2.441,9.15,4.222,13.138
	c-23.76,26.189-42.062,66.884-49.476,95.617c-17.187,66.595,31.291,145.448,33.365,148.772c2.66,4.268,7.375,6.893,12.404,6.973
	l61.187,0.961v9.34h-42.595c-59.97,0-105.642,102.934-105.642,154.303c0,5.744,3.317,11.107,8.517,13.547
	c80.595,37.834,156.587,49.627,219.823,49.625c33.285,0,63.043-3.215,88.066-7.613c78.801-13.852,128.143-41.227,130.205-42.387
	c4.664-2.621,7.553-7.83,7.553-13.182C648.027,480.73,602.355,377.808,542.382,377.808z M339.419,273.083
	c-1.724-3.893-5.045-6.857-9.109-8.132c-1.449-0.455-2.942-0.68-4.432-0.68c-1.74,0-3.47,0.307-5.113,0.91
	c-2.698-1.862-8.401-7.381-12.384-18.659c-3.616-10.251-3.354-19.059-2.523-21.063h230.17c0.832,2.004,1.094,10.814-2.521,21.066
	c-4.049,11.468-9.898,17.225-12.502,18.905c-3.029-0.96-6.313-1.064-9.354-0.012c-3.865,1.347-7,4.164-8.662,7.902
	c-15.957,35.898-46.934,77.785-81.738,77.785C386.349,351.107,355.355,309.06,339.419,273.083z M319.081,70.017
	c9.426-12.717,32.712-34.729,82.788-39.239c8.563-0.772,16.997-1.163,25.055-1.163c89.992,0,136.318,49.304,169.768,97.533
	c18.092,26.089,17.717,48.42,11.334,60.62c-2.896,5.532-6.637,8.052-8.885,8.052c-1.904,0-3.877-1.898-4.883-3.029
	c-1.461-1.644-2.965-3.37-4.527-5.16c-21.379-24.516-57.168-65.549-130.672-65.549c-8.574,0-17.566,0.427-26.73,1.535
	c-20.925,2.528-38.571,3.625-53.946,3.625c-0.004,0-0.008,0-0.01,0c-62.608,0-67.072-21.296-68.977-30.445
	C308.311,91.588,310.878,81.084,319.081,70.017z M289.786,338.023c-10.452-19.08-37.415-74.357-25.931-118.86
	c6.378-24.714,21.545-58.016,39.764-79.693c24.387,17.76,59.97,17.836,74.753,17.836c0.006,0,0.008,0,0.012,0
	c16.576,0,35.386-1.389,57.501-4.061c7.988-0.964,15.785-1.521,23.176-1.521c60.037,0,87.961,32.007,108.352,55.386
	c1.627,1.866,3.191,3.654,4.711,5.362c1.166,1.315,2.406,2.498,3.674,3.626c6.613,49.626-8.809,102.642-15.492,121.931
	l-59.848,0.793v-6.09c10.021-11.854,17.93-24.926,24.445-38.034c14.492-2.624,28.561-17.299,36.174-38.872
	c9.725-27.563,4.248-52.457-13.266-59.655c-1.787-0.733-3.518-0.78-5.449-0.78H299.524c-1.93,0-3.843,0.044-5.629,0.78
	c-17.51,7.194-23.167,32.253-13.446,59.818c7.764,22.002,21.866,36.773,36.605,39.059c6.815,13.683,15.02,27.228,25.043,39.466v4.33
	L289.786,338.023z M356.768,407.876c8.181,0,13.395-6.516,13.395-14.697v-29.883c16.037,10.721,32.414,17.396,50.435,17.396
	c18.563,0,33.756-7.084,49.793-18.393v30.879c0,8.182,6.52,14.697,14.699,14.697h57.295c2.168,0,4.354,0.369,6.543,0.939
	c-3.965,5.945-13.922,13.326-30.873,19.799c-25.703,9.814-60.191,15.236-97.106,15.236c-36.917,0-71.406-5.398-97.11-15.215
	c-16.95-6.473-26.907-13.877-30.872-19.822c2.191-0.57,4.378-0.938,6.545-0.938H356.768z M503.951,558.738
	c-66.289,11.486-167.972,14.328-279.928-35.611c3.366-30.711,22.088-73.729,44.309-97.537
	c21.188,31.527,87.23,47.893,152.614,47.893c65.382,0,131.421-16.365,152.61-47.893c22.32,23.914,41.115,67.211,44.359,97.951
	C601.388,531.449,560.435,548.951,503.951,558.738z"/>
</svg>
