<?xml version="1.0" encoding="utf-8"?>
<!-- Generator: Adobe Illustrator 16.0.3, SVG Export Plug-In . SVG Version: 6.00 Build 0)  -->
<!DOCTYPE svg PUBLIC "-//W3C//DTD SVG 1.1//EN" "http://www.w3.org/Graphics/SVG/1.1/DTD/svg11.dtd">
<svg version="1.1" id="Capa_1" xmlns="http://www.w3.org/2000/svg" xmlns:xlink="http://www.w3.org/1999/xlink" x="0px" y="0px"
	 width="595.28px" height="595.28px" viewBox="123.305 0 595.28 595.28" enable-background="new 123.305 0 595.28 595.28"
	 xml:space="preserve">
<path fill="#191919" d="M596.378,390.318c11.689-59.043-21.457-208.106-30.184-245.526c3.473-2.838,5.656-7.142,5.656-11.976V30.904
	h64.98c8.541,0,15.461-6.913,15.461-15.449c0-8.54-6.92-15.455-15.461-15.455h-434.89c-8.535,0-15.453,6.915-15.453,15.455
	c0,8.537,6.918,15.449,15.453,15.449h1.118v53.481l0,0c0,0-14.996,6.379-15.473,14.549l-4.147,70.079
	c-0.249,4.247,1.255,8.434,4.175,11.533c2.922,3.097,6.983,4.876,11.238,4.876h41.221c4.255,0,8.324-1.78,11.242-4.876
	c2.92-3.099,4.439-7.274,4.187-11.521l-4.127-70.042c-0.481-8.169-7.239-14.511-15.423-14.511h-1.995V30.904h32.967v101.913
	c0,4.961,2.311,9.368,5.938,12.19c-7.149,34.282-37.435,185.951-25.934,244.964c-37.525,33.973-62.502,100.787-62.502,139.592
	c0,5.99,3.461,11.449,8.885,13.992c84.129,39.488,163.449,51.729,229.45,51.725c34.748,0,65.805-3.395,91.918-7.986
	c82.258-14.461,133.756-43.049,135.912-44.254c4.865-2.738,7.887-7.883,7.887-13.477C658.478,490.896,633.679,424.4,596.378,390.318
	z M215.242,154.521l2.305-39.15h3.826l2.305,39.15H215.242z M286.263,401.136l82.006,88.139l-122.407-49.631
	C257.876,420.593,272.149,405.611,286.263,401.136z M532.669,148.333c2.52,14.425,3.098,26.671,3.061,35.743
	c-81.904-0.966-125.725-19.255-149.055-35.743H532.669z M308.579,173.225c-1.185-8.641-1.617-16.652-1.295-24.892h15.786
	C318.916,156.573,313.69,165.668,308.579,173.225z M312.427,218.975c1.207-1.369,25.738-29.309,39.729-59.949
	c26.245,27.669,79.937,55.78,189.798,55.937c0.443,4.297,0.088,11.322-3.016,20.129c-4.154,11.785-10.158,18-12.9,19.8
	c-3.203-1.044-6.67-1.032-9.887,0.083c-4.047,1.399-7.332,4.411-9.072,8.328c-16.637,37.443-48.971,81.182-85.316,81.182
	c-36.415,0-68.774-43.869-85.417-81.43c-1.802-4.059-5.267-7.153-9.504-8.482c-3.319-1.04-6.854-0.928-10.053,0.273
	c-2.776-1.856-8.713-8.074-12.832-19.749c-1.435-4.051-2.263-7.719-2.716-10.921C305.477,224.058,309.545,222.226,312.427,218.975z
	 M354.464,399.683c8.534,0,15.475-6.881,15.475-15.418v-27.037c16.486,11.197,33.023,18.168,51.824,18.168
	c19.381,0,36.775-7.391,53.25-19.18v28.047c0,8.539,6.943,15.418,15.482,15.418h25.217l-94.262,101.311l-94.264-101.311h27.277
	V399.683z M556.632,401.136c14.873,4.711,29.93,21.072,42.318,41.59L472.83,491.195L556.632,401.136z M548.205,368.775h-42.287
	v-43.398c10.303-12.344,17.928-25.934,24.719-39.562c2.652-0.479,5.336-1.356,7.977-2.62c7.238-3.459,14.076-9.889,19.748-18.291
	c6.545,40.783,11.086,81.371,9.238,107.328C561.335,370.009,554.853,368.775,548.205,368.775z M540.943,30.904v86.53H297.83v-86.53
	H540.943z M283.407,263.172c2.906,4.576,6.147,8.665,9.63,12.026c6.229,6.021,13.108,9.653,19.915,10.709
	c7.113,14.271,15.778,28.507,26.084,41.278v41.592h-44.343c-6.516,0-12.876,1.189-19.031,3.334
	C273.576,345.761,277.546,304.474,283.407,263.172z M509.33,556.849c-69.479,12.219-176.057,15.4-293.43-36.953
	c1.734-15.814,7.378-34.744,15.423-52.867c0.417,0.223,0.839,0.422,1.287,0.598l183.034,74.199c1.86,0.754,3.826,1.135,5.809,1.135
	c1.875,0,3.752-0.348,5.537-1.033l186.057-71.504c7.33,17.246,12.426,35.002,13.998,49.922
	C609.994,528.529,567.91,546.548,509.33,556.849z"/>
</svg>
