<?xml version="1.0" encoding="utf-8"?>
<!-- Generator: Adobe Illustrator 16.0.3, SVG Export Plug-In . SVG Version: 6.00 Build 0)  -->
<!DOCTYPE svg PUBLIC "-//W3C//DTD SVG 1.1//EN" "http://www.w3.org/Graphics/SVG/1.1/DTD/svg11.dtd">
<svg version="1.1" id="Capa_1" xmlns="http://www.w3.org/2000/svg" xmlns:xlink="http://www.w3.org/1999/xlink" x="0px" y="0px"
	 width="595.28px" height="595.28px" viewBox="123.305 0 595.28 595.28" enable-background="new 123.305 0 595.28 595.28"
	 xml:space="preserve">
<path fill="#191919" d="M547.697,367.724h-21.121c26.244-4.008,46.893-15.117,61.566-31.768
	c34.611-39.266,27.121-98.167,22.164-137.348c-0.688-5.433-1.336-10.407-1.764-14.746c-4.898-49.757-25.736-95.623-58.676-129.285
	C515.4,19.357,469.617,0,420.945,0c-48.671,0-94.455,19.416-128.92,54.637c-32.939,33.663-53.778,79.612-58.676,129.368
	c-0.427,4.341-1.076,9.477-1.764,14.906c-4.958,39.182-12.447,97.777,22.166,137.043c14.674,16.65,35.322,27.76,61.565,31.768
	h-21.123c-62.596,0-110.265,107.762-110.265,161.377c0,5.992,3.465,11.754,8.892,14.301
	c84.121,39.488,163.439,51.881,229.439,51.879c34.744,0,65.805-3.314,91.92-7.904c82.246-14.461,133.748-43.01,135.902-44.221
	c4.869-2.738,7.885-8.486,7.885-14.072C657.964,475.466,610.294,367.724,547.697,367.724z M370.843,357.388
	c14.029,11.189,31.961,18.162,50.77,18.162c19.375,0,35.406-7.391,51.438-19.182v31.496l-51.756,59.621l-50.451-57.902V357.388z
	 M301.145,211.539c7.796-2.667,15.183-5.567,22.149-8.679c-3.323,3.587-5.399,8.647-5.399,15.822
	c0,21.654,20.439,56.17,47.599,56.17c22.423,0,41.262-13.341,46.276-29.374h18.353c5.016,16.033,23.852,29.374,46.277,29.374
	c27.158,0,47.6-33.957,47.6-55.611c0-7.172-2.076-12.513-5.4-16.101c6.965,3.11,14.354,5.874,22.15,8.542
	c1.039,2.962,1.928,11.612-2.316,23.64c-4.154,11.78-10.158,17.969-12.898,19.764c-3.197-1.05-6.666-1.056-9.887,0.06
	c-4.045,1.401-7.33,4.407-9.066,8.319c-16.643,37.451-48.973,81.176-85.314,81.176c-36.422,0-68.772-43.863-85.41-81.426
	c-1.797-4.058-5.259-7.15-9.495-8.483c-3.319-1.044-6.862-0.93-10.068,0.275c-2.772-1.858-8.712-8.073-12.831-19.749
	C299.215,223.223,300.104,214.501,301.145,211.539z M480.166,210.677c23.281-0.347,27.344,2.737,27.344,8.002
	c0,14.163-15.373,38.563-31.109,38.563c-17.152,0-31.107-10.441-31.107-23.279C445.291,221.126,460.484,210.97,480.166,210.677z
	 M476.398,195.542c-23.297,0-42.723,15.865-46.799,33.901h-17.31c-4.074-18.037-23.502-33.787-46.799-33.787h-27.007
	c43.336-23.047,68.602-53.569,82.46-75.997c13.855,22.426,39.121,52.812,82.459,75.858L476.398,195.542z M361.724,210.685
	c20.225,0,34.875,10.441,34.875,23.277c0,12.838-13.957,23.279-31.107,23.279c-15.738,0-31.109-24.399-31.109-38.563
	c0-5.265,4.816-8.01,27.344-8.01v0.016H361.724z M401.335,471.888c-0.377,0.205-0.753,0.426-1.123,0.664l-40.645,26.42l-8.62-82.73
	L401.335,471.888z M490.941,416.24l-8.621,82.73l-40.643-26.42c-0.369-0.238-0.744-0.461-1.121-0.664L490.941,416.24z
	 M553.578,183.345C460.921,152.46,436.625,82.794,435.699,79.927c-2.016-6.451-7.99-10.844-14.752-10.844
	s-12.736,4.393-14.752,10.844c-0.225,0.713-24.438,72.271-117.874,103.417c-17.556,7.694-24.091,33.613-14.015,62.195
	c4.215,11.932,10.688,22.522,18.235,29.814c6.229,6.019,14.237,9.656,21.045,10.708c7.114,14.281,17.179,28.505,27.199,41.279
	v13.412c-28.057-1.813-49.877-10.07-62.702-24.619c-25.38-28.793-19.512-79.669-15.255-113.337
	c0.715-5.647,1.106-10.986,1.575-15.752c8.902-90.444,74.718-156.09,156.688-156.09c81.971,0,147.854,65.646,156.76,156.09
	c0.469,4.766,1.107,10.104,1.822,15.752c4.258,33.668,9.51,84.544-15.871,113.337c-12.504,14.186-34.633,22.373-60.686,24.453
	v-15.061c10.02-12.334,19.078-25.928,25.863-39.564c2.658-0.473,5.912-1.347,8.559-2.607c12.143-5.802,23.449-19.938,29.76-37.817
	C577.373,216.966,571.128,191.045,553.578,183.345z M508.824,557.003c-69.477,12.217-176.048,14.355-293.416-37.994
	c5.101-46.547,43.996-121.221,78.785-121.221h23.967l13.277,128.471c0.557,5.354,3.862,10.555,8.72,12.871
	c2.112,1.01,4.385,1.77,6.656,1.77c2.944,0,5.876-0.709,8.427-2.367l61.826-40.121c1.545-1.006,2.83-2.223,3.882-3.615
	c1.053,1.391,2.334,2.656,3.881,3.662l61.824,40.197c2.553,1.656,5.484,2.5,8.428,2.5c2.268,0,4.545-0.494,6.656-1.504
	c4.857-2.32,8.16-8.041,8.719-13.393l13.277-128.471h23.967c34.902,0,73.936,75.15,78.834,121.672
	C609.48,527.642,567.4,546.705,508.824,557.003z"/>
</svg>
