<?xml version="1.0" encoding="utf-8"?>
<!-- Generator: Adobe Illustrator 16.0.3, SVG Export Plug-In . SVG Version: 6.00 Build 0)  -->
<!DOCTYPE svg PUBLIC "-//W3C//DTD SVG 1.1//EN" "http://www.w3.org/Graphics/SVG/1.1/DTD/svg11.dtd">
<svg version="1.1" id="Capa_1" xmlns="http://www.w3.org/2000/svg" xmlns:xlink="http://www.w3.org/1999/xlink" x="0px" y="0px"
	 width="595.28px" height="595.28px" viewBox="123.305 0 595.28 595.28" enable-background="new 123.305 0 595.28 595.28"
	 xml:space="preserve">
<path fill="#191919" d="M545.476,381.822h-44.359v-45.748c0-0.174,0.217-0.34,0.211-0.512c8.967-11.576,16.854-24.307,23.209-37.08
	c2.516-0.449,5.105-1.273,7.605-2.467c11.492-5.49,21.949-18.869,27.92-35.791c3.088-8.755,4.645-17.207,4.758-24.886
	c7.559-4.892,14.436-14.92,17.898-34.257c2.832-15.808,2.58-34.095,2.58-45.019v-0.688c0-12.092-3.879-23.673-11.326-32.959
	c0.785-3.634,1.396-7.354,1.396-11.13c0-26.164-19.117-47.943-44.133-52.064c-5.242-23.613-26.34-41.323-51.506-41.323
	c-5.512,0-10.91,0.848-16.063,2.501C453.755,7.799,438.292,0,421.617,0c-16.678,0-32.14,7.799-42.051,20.4
	c-5.153-1.654-10.547-2.501-16.059-2.501c-25.168,0-46.251,17.71-51.495,41.323c-25.016,4.123-44.113,25.902-44.113,52.064
	c0,3.776-0.1,7.494,0.684,11.13c-7.446,9.288-11.992,20.867-11.992,32.961v0.678c0,10.923,0.409,29.696,3.241,45.512
	c3.379,18.867,10.34,28.379,17.662,33.4c0.066,7.781,1.742,16.361,4.879,25.26c3.986,11.296,10.188,21.316,17.331,28.217
	c5.893,5.694,12.022,9.136,18.468,10.129c6.805,13.662,14.585,27.264,24.607,39.449v43.801h-45.031
	c-55.394,0-101.286,44.18-101.286,99.574v51.688c0,5.676,3.692,10.834,8.829,13.244c79.615,37.375,154.889,48.955,217.357,48.953
	c32.881,0,62.383-3.211,87.1-7.557c77.842-13.684,126.385-40.742,128.42-41.887c4.609-2.59,7.26-7.467,7.26-12.754v-51.688
	C645.427,426.001,600.869,381.822,545.476,381.822z M372.841,395.564v-29.266c14.03,10.461,30.448,16.973,48.127,16.973
	c18.462,0,36.054-7.094,50.083-18.391v30.684c0,5.021,3.17,9.447,7.018,12.08l-56.778,66.719l-56.268-65.93
	C369.588,405.955,372.841,401.123,372.841,395.564z M286.656,156.054v-0.68c0-6.895,3.042-13.425,8.333-17.917
	c4.895-4.155,6.424-11.021,3.891-16.922c-1.259-2.932-1.85-6.045-1.85-9.248c0-12.961,10.569-23.508,23.531-23.508
	c0.846,0,1.822,0.074,3.052,0.23c4.359,0.559,8.741-0.866,11.932-3.882c3.191-3.021,4.859-7.31,4.54-11.691l-0.014-0.212
	c-0.038-0.517-0.088-1.034-0.088-1.561c0-12.96,10.546-23.507,23.506-23.507c4.844,0,9.515,1.483,13.501,4.295
	c3.71,2.614,8.422,3.359,12.753,2.014c4.335-1.343,7.803-4.622,9.384-8.873c3.359-9.027,12.607-15.333,22.491-15.333
	c9.883,0,19.131,6.306,22.49,15.333c1.582,4.251,5.049,7.53,9.385,8.873c4.326,1.345,9.045,0.6,12.752-2.014
	c3.984-2.81,8.652-4.295,13.498-4.295c12.961,0,23.508,10.547,23.508,23.507c0,0.529-0.053,1.044-0.09,1.561l-0.018,0.212
	c-0.316,4.382,1.344,8.671,4.535,11.691c3.191,3.017,7.57,4.441,11.918,3.882c1.23-0.156,2.186-0.23,3.031-0.23
	c12.963,0,23.488,10.547,23.488,23.508c0,3.205-0.684,6.316-1.943,9.248c-2.533,5.901-1.494,12.768,3.402,16.922
	c5.291,4.492,7.666,11.022,7.666,17.917v0.689c0,8.765,0.662,22.012-0.83,33.979c-0.314,2.537-0.252,4.778-0.625,6.746
	c-1.311-3.03-2.52-6.099-3.781-9.009c-3.379-7.801-6.693-15.595-9.236-21.44c-1.285-2.953-2.328-5.408-3.09-7.129
	c-1.631-3.698-5.02-11.391-14.586-11.391c-21.637,0-40.586-14.593-46.088-35.494c-1.283-4.869-4.973-8.735-9.779-10.236
	c-4.801-1.503-10.041-0.427-13.867,2.838c-8.496,7.262-20.063,11.427-31.738,11.427c-11.677,0-23.242-4.165-31.739-11.427
	c-3.828-3.269-9.065-4.341-13.87-2.838c-4.804,1.501-8.499,5.37-9.781,10.236c-5.501,20.901-24.455,35.494-46.093,35.494
	c-9.569,0-12.964,7.697-14.6,11.396c-0.76,1.724-1.826,4.185-3.113,7.142c-2.549,5.853-5.905,13.659-9.288,21.468
	c-1.252,2.892-2.533,5.951-3.84,8.965c-0.375-1.972-0.824-4.215-1.139-6.754C286.662,178.067,286.656,164.818,286.656,156.054z
	 M534.64,227.89c1.002,2.654,1.945,11.01-2.139,22.597c-3.936,11.148-9.617,17.037-12.211,18.738
	c-3.025-0.994-6.309-0.982-9.355,0.074c-3.828,1.325-6.936,4.179-8.582,7.883c-15.748,35.444-46.35,76.831-80.742,76.831
	c-34.469,0-65.09-41.514-80.838-77.062c-1.706-3.844-4.983-6.772-9-8.033c-3.135-0.982-6.482-0.872-9.516,0.263
	c-2.626-1.758-8.244-7.643-12.145-18.688c-4.086-11.591-3.141-19.947-2.136-22.603l21.935-51.431
	c24.298-3.106,45.534-17.636,57.333-38.683c10.607,5.075,22.479,7.839,34.367,7.839c11.891,0,23.76-2.764,34.365-7.839
	c11.801,21.047,33.035,35.577,57.332,38.683L534.64,227.89z M615.363,524.126c-14.029,7.631-55.242,24.934-111.248,34.781
	c-65.859,11.578-167.351,14.58-277.588-35.209v-42.303c0-39.262,31.962-71.514,71.221-71.514h30.438l82.311,96.336
	c2.78,3.248,6.841,5.195,11.117,5.195c4.275,0,8.336-1.986,11.115-5.232l82.311-96.299h30.438c39.26,0,69.887,32.252,69.887,71.514
	V524.126z"/>
</svg>
