<?xml version="1.0" encoding="utf-8"?>
<!-- Generator: Adobe Illustrator 16.0.3, SVG Export Plug-In . SVG Version: 6.00 Build 0)  -->
<!DOCTYPE svg PUBLIC "-//W3C//DTD SVG 1.1//EN" "http://www.w3.org/Graphics/SVG/1.1/DTD/svg11.dtd">
<svg version="1.1" id="Capa_1" xmlns="http://www.w3.org/2000/svg" xmlns:xlink="http://www.w3.org/1999/xlink" x="0px" y="0px"
	 width="841.89px" height="595.281px" viewBox="0 0 841.89 595.281" enable-background="new 0 0 841.89 595.281"
	 xml:space="preserve">
<g>
	<path fill="#191919" d="M231.953,200.225c1.365-3.84,2.13-6.809,2.335-10.817h12.46c0.205,4.009,0.971,6.977,2.336,10.817
		c4.385,12.338,13.346,22.332,18.299,27.283c8.076,8.077,18.816,12.445,30.24,12.445c11.42,0,22.158-4.484,30.234-12.561
		c16.67-16.67,16.67-43.818,0-60.496c-7.961-7.959-21.262-12.533-36.496-12.533s-28.533,4.56-36.49,12.519
		c-1.67,1.67-3.076,4.121-4.238,6.045c-0.57-0.124-1.16,0.445-1.77,0.445h-18.572c-1.138-2.004-2.511-4.237-4.125-5.851
		c-7.957-7.959-21.255-12.846-36.49-12.846s-28.535,4.403-36.499,12.362c-16.668,16.676-16.668,43.722,0.002,60.398
		c8.076,8.074,18.814,12.479,30.235,12.479c11.423,0,22.164-4.307,30.237-12.385C218.604,222.577,227.567,212.565,231.953,200.225z
		 M266.667,178.676c4.709-4.71,14.17-7.634,24.691-7.634s19.986,2.926,24.695,7.634c10.166,10.168,10.166,26.711,0.002,36.875
		c-4.926,4.922-11.473,7.634-18.436,7.634c-6.965,0-13.514-2.712-18.438-7.638c-6.736-6.733-11.977-14.471-14.375-21.226
		C261.193,184.15,265.312,180.031,266.667,178.676z M183.414,223.188c-6.965,0-13.511-2.712-18.436-7.632
		c-10.164-10.166-10.164-26.709,0-36.875c4.712-4.71,14.175-7.636,24.697-7.636c10.521,0,19.983,2.924,24.691,7.634
		c1.355,1.355,5.472,5.472,1.86,15.648c-2.399,6.754-7.641,14.491-14.377,21.228C196.927,220.476,190.377,223.188,183.414,223.188z"
		/>
	<path fill="#191919" d="M392.296,194.938c6.848-21.125,7.607-60.643,7.799-77.779C400.091,19.596,339.033,0,240.519,0
		C142.085,0,81.046,19.576,80.948,116.936c-0.272,9.855-0.631,57.029,5.987,82.411c-0.87,9.795,0.99,25.788,5.173,37.647
		c4.265,12.076,10.817,22.793,18.456,30.173c6.302,6.091,12.884,9.773,19.772,10.837c7.198,14.451,15.979,28.847,26,41.771v46.012
		h-48.271C48.831,365.787,0,414.263,0,473.496v55.275c0,6.061,3.822,11.576,9.31,14.156
		c85.021,39.969,165.423,52.354,232.223,52.352c35.162,0,66.686-3.434,93.131-8.08c83.279-14.633,135.842-43.563,138.023-44.787
		c4.934-2.77,8.348-7.984,8.348-13.643v-55.275c0-59.234-48.83-107.709-108.061-107.709h-46.271v-47.689
		c0-0.039-0.338-0.078-0.34-0.117c9.723-12.48,17.971-26.237,24.844-40.041c2.709-0.479,5.346-1.367,8.041-2.654
		c12.301-5.875,23.408-20.169,29.785-38.234C394.251,222.254,394.849,206.115,392.296,194.938z M240.517,432.97l-57.313-40.063
		c3.175-2.865,5.201-6.574,5.201-11.189v-31.525c16.035,11.328,33.364,18.389,52.403,18.389c19.604,0,37.792-7.475,53.827-19.404
		v32.541c0,4.178,1.705,8.385,4.373,11.189L240.517,432.97z M217.84,455.332l-40.199,26.131l-8.163-59.574L217.84,455.332z
		 M311.556,421.888l-8.162,59.574l-40.201-26.131L311.556,421.888z M112.231,117.378c0-59.377,18.525-86.091,128.286-86.091
		c109.762,0,128.281,26.493,128.281,85.692c-0.07,6.189-0.275,12.447-0.588,18.546c0,0-7.844-20.408-11.221-26.852
		c-19.742-37.685-69.816-50.26-108.205-31.925c-5.254,2.512-11.655,2.333-16.928-0.188c-37.839-18.075-87.977-6.143-107.956,30.74
		c-3.526,6.508-11.79,27.165-11.79,27.165C112.041,128.444,112.091,122.463,112.231,117.378z M362.177,203.788
		c2.395,2.982,1.154,11.944-2.693,22.855c-4.201,11.901-10.279,18.185-13.061,20.001c-3.236-1.072-6.754-1.07-10.016,0.054
		c-4.109,1.411-7.445,4.467-9.209,8.44c-16.84,37.896-49.564,82.148-86.351,82.148c-36.863,0-69.607-44.389-86.448-82.406
		c-1.822-4.113-5.328-7.244-9.623-8.591c-3.352-1.052-6.933-0.938-10.176,0.283c-2.804-1.88-8.817-8.171-12.99-19.991
		c-4.369-12.393-4.313-20.536-2.285-22.795c5.185-5.766,6.887-11.941,6.774-22.583c-0.17-16.042,17.518-44.949,25.304-58.977
		c12.547-22.607,43.53-28.622,66.978-17.426c13.83,6.604,30.062,6.785,43.886,0.181c23.775-11.358,54.604-4.869,67.008,18.235
		c7.701,14.347,24.553,42.217,24.857,57.989C354.281,188.796,356.291,196.457,362.177,203.788z M32.069,473.496
		c0-41.98,34.015-75.641,75.996-75.641h26.473l15.455,112.533c0.728,5.307,4.121,9.748,8.992,11.979
		c2.072,0.951,4.295,1.357,6.506,1.357c2.982,0,6.277-0.881,8.855-2.559l50.138-33.088v75.576
		c-58.125-2.016-122.263-13.83-192.414-44.912V473.496z M448.966,519.169c-16.035,8.225-60.934,26.988-121.246,37.434
		c-21.18,3.67-45.113,6.49-73.174,7.199v-75.725l52.188,33.055c2.576,1.678,5.689,2.529,8.67,2.529c2.213,0,4.504-0.469,6.578-1.416
		c4.873-2.23,8.301-6.549,9.027-11.855l15.49-112.533h26.475c41.979,0,75.992,33.66,75.992,75.641V519.169z"/>
</g>
<path fill="#191919" d="M756.98,426.56h-29.023v-31.676c0-0.033,0.361-0.065,0.361-0.098c6.432-8.261,12.18-17.366,16.728-26.502
	c1.777-0.316,3.66-0.899,5.429-1.745c8.131-3.884,15.553-13.351,19.779-25.322c1.956-5.548,2.508-10.965,3.291-15.876
	c1.471-9.238,3.744-18.684,3.744-28.093c0-8.3-0.981-16.369-2.797-24.125c0.393-0.396,0.776-0.797,1.151-1.205
	c20.301,6.404,24.054,26.567,24.455,29.171c0.545,3.888,3.243,7.132,6.965,8.378c1.077,0.358,2.184,0.534,3.284,0.534
	c2.704,0,5.349-1.058,7.322-3.028c25.682-25.683,24.259-69.369,24.185-71.217c-0.067-1.7-0.552-3.354-1.412-4.821
	c-20.17-34.391-52.27-34.65-67.56-29.752c-17.887-16.47-44.995-17.453-64.054-2.975c-11.58-4.376-24.112-6.791-37.202-6.791
	c-12.752,0-24.986,2.276-36.315,6.444c-18.866-13.996-45.395-13.041-63.141,2.891c-15.762-4.444-46.609-3.235-66.197,30.168
	c-0.86,1.468-1.345,3.128-1.414,4.828c-0.072,1.848-1.495,45.537,24.186,71.22c1.975,1.972,4.619,3.031,7.321,3.031
	c1.1,0,2.209-0.133,3.286-0.492c3.72-1.245,6.42-4.447,6.963-8.336c0.146-1.029,3.244-21.111,22.536-28.405
	c-1.877,7.887-2.898,16.103-2.898,24.557c0,10.411,1.498,20.708,4.451,30.604c0.166,0.553,0.375,1.082,0.619,1.583
	c0.521,3.753,1.453,7.679,2.874,11.702c2.819,7.993,7.155,15.084,12.212,19.967c4.169,4.028,8.456,6.464,13.017,7.167
	c4.764,9.563,10.574,19.091,17.145,27.645v30.567h-29.054c-41.918,0-73.839,71.784-73.839,107.689c0,4.014,2.317,7.682,5.951,9.387
	c56.335,26.445,109.451,34.647,153.651,34.646c23.266,0,44.066-2.269,61.556-5.344c55.078-9.682,89.568-28.825,91.01-29.636
	c3.261-1.833,5.278-5.316,5.278-9.057C830.822,498.342,798.9,426.56,756.98,426.56z M821.205,239.324
	c-0.063,8.475-1.736,24.592-8.108,38.419c-5.442-9.3-14.047-18.459-26.807-23.59c1.764-5.146,2.695-10.596,2.702-16.189
	c0.011-6.317-1.158-12.446-3.374-18.158C794.395,219.057,809.429,221.02,821.205,239.324z M759.747,217.252
	c5.52,5.519,8.553,12.865,8.543,20.683c-0.007,4.046-0.842,7.963-2.396,11.575c-8.097-15.968-20.103-29.622-34.769-39.667
	C740.996,207.069,752.021,209.524,759.747,217.252z M756.289,297.79H653.71l-9.903-30.194c-1.355-4.213-5.241-6.597-9.668-6.597
	c-0.063,0-0.123,0-0.188,0c-4.35,0-8.244,2.142-9.73,6.245l-11.271,30.546h-26.292c0-47.303,38.118-86.147,84.97-86.147
	s84.818,38.844,84.818,86.147H756.289z M612.484,209.601c-14.37,9.763-26.204,22.982-34.354,38.447
	c-1.177-3.199-1.827-6.602-1.832-10.108c-0.011-7.821,3.023-15.167,8.543-20.687C592.316,209.781,602.87,207.255,612.484,209.601z
	 M533.286,277.803c-6.963-15.027-7.936-32.386-8.041-38.702c11.021-17.096,24.889-19.862,33.811-19.51
	c-2.271,5.773-3.47,11.979-3.461,18.376c0.009,5.837,1.011,11.524,2.927,16.864C546.616,260.077,538.495,268.876,533.286,277.803z
	 M754.912,318.814c-0.278,1.313-3.079,12.437-4.139,15.432c-2.781,7.889-6.804,12.095-8.639,13.298
	c-2.14-0.702-4.461-0.675-6.618,0.074c-2.711,0.938-4.908,2.967-6.073,5.587c-11.143,25.079-32.794,54.368-57.13,54.368
	c-24.392,0-46.057-29.37-57.199-54.523c-1.205-2.722-3.526-4.791-6.367-5.683c-1.013-0.318-2.057-0.473-3.098-0.473
	c-1.237,0-2.472,0.221-3.637,0.659c-1.858-1.244-5.833-5.486-8.592-13.303c-2.496-7.079-2.339-12.808-1.794-15.436h28.581
	c4.358,0,8.251-2.65,9.734-6.747l3.433-9.445l2.939,9.07c1.377,4.279,5.358,7.121,9.853,7.121H754.912z M627.24,446.27
	c5.721,0,10.053-3.572,10.053-9.29v-20.864c10.512,7.496,21.749,12.164,34.345,12.164c12.974,0,24.783-4.948,35.295-12.845v21.545
	c0,5.719,5.685,9.29,11.4,9.29h38.647c1.748,0,3.513,0.839,5.283,1.367c-2.431,8.743-11.396,25.034-26.257,40.361
	c-11.661,12.025-35.528,32.337-64.362,32.337c-28.777,0-52.368-20.082-63.867-32.094c-14.645-15.291-23.474-31.851-25.858-40.634
	c1.773-0.531,3.543-1.34,5.296-1.34h40.025V446.27z M730.949,552.554c-46.528,8.182-117.896,10.314-196.494-24.746
	c2.303-21.011,14.894-50.245,29.99-67.083c12.797,31.967,55.623,80.446,107.199,80.446c36.461,0,65.289-24.12,79.229-38.498
	c13.089-13.5,23.497-28.916,28.846-41.986c15.183,16.911,27.836,46.374,30.055,67.424
	C798.356,533.592,770.175,545.656,730.949,552.554z"/>
</svg>
