<?xml version="1.0" encoding="utf-8"?>
<!-- Generator: Adobe Illustrator 16.0.3, SVG Export Plug-In . SVG Version: 6.00 Build 0)  -->
<!DOCTYPE svg PUBLIC "-//W3C//DTD SVG 1.1//EN" "http://www.w3.org/Graphics/SVG/1.1/DTD/svg11.dtd">
<svg version="1.1" id="Layer_1" xmlns="http://www.w3.org/2000/svg" xmlns:xlink="http://www.w3.org/1999/xlink" x="0px" y="0px"
	 width="586.332px" height="595.281px" viewBox="0 0 586.332 595.281" enable-background="new 0 0 586.332 595.281"
	 xml:space="preserve">
<g>
	<g>
		<path fill="#191919" d="M585.685,343.724c0,0-26.754-104.082-34.727-139c-6.156-26.964-23.863-47.713-50.807-47.713
			c-12.064,0-102.686,0-114.758,0c-26.941,0-44.174,19.452-50.807,47.713c-5.268,22.452-22.359,89.499-22.359,89.499
			l-63.547-101.495c-10.867-17.356-29.582-27.717-50.057-27.717c-27.293,0-37.545,0-64.84,0c-20.476,0-39.19,10.361-50.057,27.717
			L3.219,321.31c-6.184,9.878-3.19,22.898,6.687,29.084c9.886,6.188,22.903,3.185,29.083-6.688l76.649-122.42
			c0,0-20.905,118.646-32.928,181.309c-1.406,7.256,4.188,13.963,11.508,13.963c4.541,0,10.008,0,16.102,0v153.4
			c0,13.984,11.336,25.32,25.32,25.32s25.32-11.336,25.32-25.32v-153.4c3.64,0,7.292,0,10.934,0v80.634
			c0,13.983,11.336,25.319,25.32,25.319c13.983,0,25.319-11.336,25.319-25.319v-80.634c6.097,0,11.563,0,16.103,0
			c7.356,0,12.912-6.715,11.508-13.965c-19.217-100.91-32.819-180.42-32.819-180.42s52.41,83.064,86.858,136.221
			c4.543,7.009,12.813,10.652,21.047,9.277c8.238-1.375,14.869-7.51,16.891-15.613c19.42-77.89,33.527-135.052,35.391-144.187
			c0.441-2.171,2.455-3.652,4.658-3.429s3.875,2.08,3.875,4.293v154.412h0.01V569.47c0,14.254,11.557,25.812,25.813,25.812
			s25.813-11.556,25.813-25.812V363.148h11.145v133.707c0,14.254,11.559,25.811,25.814,25.811s25.813-11.555,25.813-25.811
			c0-51.084-0.438-202.946-0.467-288.07c0-2.074,1.557-3.82,3.621-4.052c2.063-0.231,3.973,1.119,4.434,3.143
			c6.797,29.891-2.203-6.281,35.908,146.276c2.881,11.537,14.576,18.535,26.082,15.653
			C581.554,366.923,588.562,355.246,585.685,343.724z"/>
	</g>
</g>
<g>
	<g>
		<circle fill="#191919" cx="443.244" cy="98.223" r="44.58"/>
	</g>
</g>
<g>
	<g>
		<circle fill="#191919" cx="166.429" cy="107.339" r="43.732"/>
	</g>
</g>
<g>
	<g>
		<path fill="#DB3333" d="M295.074,0c-6.212,0-11.548,3.731-13.907,9.07C278.806,3.731,273.474,0,267.261,0
			c-8.398,0-15.207,6.808-15.207,15.207c0,16.482,21.088,33.078,27.369,37.654c1.037,0.757,2.449,0.758,3.487,0.001
			c6.278-4.576,27.37-21.173,27.37-37.656C310.281,6.808,303.472,0,295.074,0z"/>
	</g>
</g>
<g>
	<g>
		<path fill="#DB3333" d="M320.964,116.166c-4.771,0-8.869,2.866-10.684,6.967c-1.814-4.102-5.912-6.967-10.684-6.967
			c-6.451,0-11.681,5.23-11.681,11.68c0,12.661,16.202,25.41,21.022,28.925c0.799,0.583,1.881,0.581,2.682,0
			c4.822-3.517,21.021-16.265,21.021-28.925C332.644,121.396,327.414,116.166,320.964,116.166z"/>
	</g>
</g>
<g>
	<g>
		<path fill="#DB3333" d="M354.226,50.762c-3.43,0-6.371,2.059-7.674,5.005c-1.303-2.946-4.244-5.005-7.674-5.005
			c-4.637,0-8.395,3.756-8.395,8.392c0.002,9.095,11.641,18.253,15.105,20.78c0.572,0.417,1.35,0.419,1.924,0
			c3.465-2.526,15.105-11.685,15.105-20.78C362.619,54.52,358.861,50.762,354.226,50.762z"/>
	</g>
</g>
</svg>
