<?xml version="1.0" encoding="utf-8"?>
<!-- Generator: Adobe Illustrator 16.0.3, SVG Export Plug-In . SVG Version: 6.00 Build 0)  -->
<!DOCTYPE svg PUBLIC "-//W3C//DTD SVG 1.1//EN" "http://www.w3.org/Graphics/SVG/1.1/DTD/svg11.dtd">
<svg version="1.1" id="Layer_1" xmlns="http://www.w3.org/2000/svg" xmlns:xlink="http://www.w3.org/1999/xlink" x="0px" y="0px"
	 width="346.406px" height="595.278px" viewBox="0 0 346.406 595.278" enable-background="new 0 0 346.406 595.278"
	 xml:space="preserve">
<g>
	<g>
		<path fill="#CC3E3E" d="M314.905,0c-10.838,0-20.367,5.492-26.03,13.826l-9.535,20.698l14.385,19.612l0.731,1l-0.413,0.866
			l-10.449,21.95l6.651-22.093l-18.331-18.353l-1.403-1.406l0.711-2.478l7.286-25.373C272.916,3.132,265.476,0,257.293,0
			c-17.396,0-31.498,14.102-31.498,31.498c0,34.142,43.688,68.521,56.695,78c2.15,1.567,5.073,1.566,7.224-0.002
			c13.01-9.481,56.69-43.858,56.69-77.996C346.403,14.102,332.303,0,314.905,0z"/>
	</g>
</g>
<g>
	<g>
		<path fill="#191919" d="M189.936,565.454l-9.098-139.631c-0.174-2.674-0.73-5.311-1.652-7.822l-17.386-47.404
			c-20.732-0.094-30.148-12.377-40.648-23.139L69.51,294.523c-5.729-5.87-14.074-12.553-12.064-25.606l11.822-76.784l8.064,74.638
			c0.559,5.193,2.848,10.048,6.494,13.787l61.467,63.005c9.002,9.225,23.772,9.402,32.994,0.406
			c9.225-8.998,9.405-23.771,0.407-32.994l-55.833-57.234l-7.196-66.622l19.508,50.6l25.613,26.255l7.688-93.518
			c0.764-9.291-2.168-18.028-7.555-24.783c-17.367,1.384-33.666-4.005-46.433-14.193c-43.112,1.877-79.115,35.561-82.742,79.693
			l-9.637,121.404l14.775,96.422L1.004,559.868c-4.09,14.914,4.688,30.32,19.6,34.408c14.918,4.088,30.318-4.689,34.406-19.602
			l37.457-136.623c1.039-3.793,1.27-7.762,0.674-11.646L80.52,344.116l12.293,1.01l32.408,88.363l8.834,135.604
			c0.965,14.811,13.279,26.182,27.912,26.182C178.227,595.274,190.983,581.553,189.936,565.454z"/>
	</g>
</g>
<g>
	<g>
		<circle fill="#191919" cx="155.624" cy="79.84" r="48.011"/>
	</g>
</g>
</svg>
