<?xml version="1.0" encoding="utf-8"?>
<!-- Generator: Adobe Illustrator 16.0.3, SVG Export Plug-In . SVG Version: 6.00 Build 0)  -->
<!DOCTYPE svg PUBLIC "-//W3C//DTD SVG 1.1//EN" "http://www.w3.org/Graphics/SVG/1.1/DTD/svg11.dtd">
<svg version="1.1" id="Layer_1" xmlns="http://www.w3.org/2000/svg" xmlns:xlink="http://www.w3.org/1999/xlink" x="0px" y="0px"
	 width="445.172px" height="595.281px" viewBox="0 0 445.172 595.281" enable-background="new 0 0 445.172 595.281"
	 xml:space="preserve">
<g>
	<g>
		<path fill="#CC3E3E" d="M89.11,0C78.272,0,68.744,5.492,63.08,13.826l-9.535,20.698L67.93,54.136l0.732,1l-0.414,0.866
			l-10.449,21.95l6.652-22.093L46.119,37.506L44.716,36.1l0.711-2.478l7.286-25.373C47.121,3.132,39.681,0,31.498,0
			C14.103,0,0,14.102,0,31.498c0,34.142,43.688,68.521,56.695,78c2.15,1.567,5.073,1.566,7.223-0.002
			c13.011-9.481,56.691-43.858,56.691-77.996C120.608,14.102,106.508,0,89.11,0z"/>
	</g>
</g>
<g>
	<g>
		<path fill="#191919" d="M436.057,504.568l-79.703-70.115l-3.414-25.041l-38.762,9.717v49.752l86.406,76.01
			c11.135,9.793,28.102,8.709,37.897-2.426C448.276,531.332,447.192,514.365,436.057,504.568z"/>
	</g>
</g>
<g>
	<g>
		<path fill="#191919" d="M293.143,424.404l-48.862,12.252v131.771c0,14.83,12.021,26.854,26.853,26.854
			c14.832,0,26.854-12.023,26.854-26.854V423.191L293.143,424.404z"/>
	</g>
</g>
<g>
	<g>
		<path fill="#191919" d="M388.243,363.912c0,0-95.021-209.052-95.02-209.051c-5.609-12.316-18.59-19.643-31.449-16.421
			c-17.893,4.485-29.229,7.328-45.352,11.371c-6.479,1.625-11.828,5.717-15.373,11.2l0.229,8.999l22.509-7.425l-43.04,26.681
			l-2.053-80.69c-0.295-11.602-9.959-20.813-21.543-20.474c-11.604,0.295-20.771,9.94-20.475,21.544l2.982,117.329
			c0.192,7.527,4.396,14.378,11.022,17.958c6.623,3.577,14.66,3.338,21.061-0.63l74.193-45.996l-45.285,45.815l10.631,164.16
			c0.511,7.856,7.576,13.42,14.55,11.672c33.854-8.488,121.211-30.392,155.092-38.883
			C387.912,379.314,391.483,371.039,388.243,363.912z"/>
	</g>
</g>
<g>
	<g>
		<path fill="#191919" d="M249.059,73.712c-6.229-24.841-31.416-39.936-56.266-33.707c-14.795,3.709-26.128,14.144-31.563,27.225
			c21.098,1.76,37.924,19.163,38.474,40.81l0.591,23.185c5.072,0.414,10.118-0.01,15.057-1.249
			C240.195,123.748,255.285,98.558,249.059,73.712z"/>
	</g>
</g>
</svg>
