<?xml version="1.0" encoding="utf-8"?>
<!-- Generator: Adobe Illustrator 16.0.3, SVG Export Plug-In . SVG Version: 6.00 Build 0)  -->
<!DOCTYPE svg PUBLIC "-//W3C//DTD SVG 1.1//EN" "http://www.w3.org/Graphics/SVG/1.1/DTD/svg11.dtd">
<svg version="1.1" id="Capa_1" xmlns="http://www.w3.org/2000/svg" xmlns:xlink="http://www.w3.org/1999/xlink" x="0px" y="0px"
	 width="416.167px" height="595.279px" viewBox="0 0 416.167 595.279" enable-background="new 0 0 416.167 595.279"
	 xml:space="preserve">
<g>
	<circle fill="#191919" cx="249.906" cy="48.988" r="48.988"/>
	<path fill="#191919" d="M416.166,401.822c0-7.914-6.418-14.33-14.332-14.33H381.96v-27.055c5.398-4.953,8.441-12.318,7.529-20.15
		c0,0-15.09-129.394-20.102-172.527c-3.73-32.106-25.721-54.168-55.912-54.168H186.329c-30.688,0-55.782,24.968-55.937,55.657
		c0,0.058,0,0.118,0,0.176l0.149,61.918c15.765,8.547,26.494,25.244,26.494,44.402v53.815c8.009,0.759,15.286,4.052,21.039,9.054
		l-0.408-169.184c0-0.001,0-0.001,0-0.002c0.03-2.579,2.138-4.651,4.718-4.635c2.578,0.016,4.66,2.112,4.66,4.69l0.01,180.686
		c2.537,5.055,3.969,10.756,3.969,16.785v190.713c0,5.463-1.182,10.65-3.288,15.338c2.817,12.697,14.139,22.193,27.684,22.193
		c15.666,0,28.363-12.699,28.363-28.365V340.115h12.248v226.721c0,15.666,12.699,28.365,28.363,28.365
		c15.666,0,28.365-12.699,28.365-28.365c0-209.061-0.381-358.458-0.486-396.478c-0.008-2.581,1.959-4.737,4.531-4.964
		c2.57-0.227,4.891,1.549,5.332,4.093c0-0.001,0,0,0,0c0.336,1.919,3.508,30.779,20.393,176.273
		c0.99,8.494,6.377,15.392,13.613,18.728v23.008h-19.873c-7.914,0-14.33,6.416-14.33,14.332v144.295
		c0,7.914,6.416,14.33,14.33,14.33h65.563c7.916,0,14.33-6.416,14.33-14.33v-144.3H416.166z"/>
	<path fill="#191919" d="M156.35,352.916c-1.9-0.389-1.053-0.291-22.547-0.291l0,0v-76.881c0-14.934-12.156-27.24-27.237-27.24
		H61.227c-15.02,0-27.238,12.219-27.238,27.24v76.881l0,0c-21.471,0-20.639-0.1-22.546,0.291C4.908,354.254,0,360.033,0,366.955
		v190.713c0,7.65,6.002,13.885,13.553,14.291l0,0v10.414c0,7.154,5.832,12.906,12.908,12.906c7.047,0,12.906-5.726,12.906-12.906
		v-10.375h89.061v10.375c0,7.154,5.832,12.906,12.906,12.906c7.049,0,12.907-5.726,12.907-12.906v-10.414l0,0
		c7.551-0.406,13.554-6.641,13.554-14.291c0-201.758,0.041-191.047-0.074-192.18C167.083,359.232,162.418,354.158,156.35,352.916z
		 M59.803,275.744c0-0.779,0.635-1.425,1.422-1.425h45.34c0.789,0,1.424,0.644,1.424,1.425v76.88H59.801v-76.88H59.803z
		 M33.988,415.033c0.161-0.006,0.32-0.023,0.484-0.023c9.678,0,88.283,0,98.848,0c0.164,0,0.322,0.019,0.484,0.023
		c6.189,0.256,11.133,5.34,11.133,11.592s-4.942,11.336-11.133,11.592c-0.162,0.008-0.32,0.025-0.484,0.025H34.473
		c-0.164,0-0.323-0.019-0.484-0.025c-6.189-0.256-11.133-5.34-11.133-11.592S27.799,415.289,33.988,415.033z"/>
</g>
</svg>
