<?xml version="1.0" encoding="utf-8"?>
<!-- Generator: Adobe Illustrator 16.0.3, SVG Export Plug-In . SVG Version: 6.00 Build 0)  -->
<!DOCTYPE svg PUBLIC "-//W3C//DTD SVG 1.1//EN" "http://www.w3.org/Graphics/SVG/1.1/DTD/svg11.dtd">
<svg version="1.1" id="Layer_1" xmlns="http://www.w3.org/2000/svg" xmlns:xlink="http://www.w3.org/1999/xlink" x="0px" y="0px"
	 width="474.391px" height="595.281px" viewBox="0 0 474.391 595.281" enable-background="new 0 0 474.391 595.281"
	 xml:space="preserve">
<g>
	<g>
		<path fill="#BC3737" d="M458.327,94.232c-6.564,0-12.199,3.941-14.693,9.582c-2.492-5.64-8.127-9.582-14.691-9.582
			c-8.873,0-16.064,7.193-16.064,16.064c0,17.414,22.281,34.947,28.914,39.782c1.1,0.801,2.588,0.8,3.686-0.001
			c6.637-4.835,28.914-22.37,28.914-39.78C474.391,101.425,467.2,94.232,458.327,94.232z"/>
	</g>
</g>
<g>
	<g>
		<path fill="#BC3737" d="M452.692,7.375c-4.045,0-7.521,2.43-9.061,5.908c-1.537-3.478-5.01-5.908-9.057-5.908
			c-5.471,0-9.906,4.435-9.906,9.905c0,10.736,13.738,21.546,17.828,24.527c0.676,0.494,1.594,0.492,2.271,0
			c4.09-2.981,17.826-13.792,17.826-24.527C462.594,11.809,458.163,7.375,452.692,7.375z"/>
	</g>
</g>
<g>
	<g>
		<path fill="#BC3737" d="M373.528,63.954c-4.047,0-7.521,2.43-9.061,5.907c-1.537-3.478-5.012-5.907-9.059-5.907
			c-5.471,0-9.904,4.434-9.904,9.904c-0.002,10.737,13.738,21.546,17.826,24.527c0.678,0.494,1.594,0.494,2.271,0
			c4.092-2.981,17.828-13.791,17.828-24.527C383.43,68.39,378.997,63.954,373.528,63.954z"/>
	</g>
</g>
<g>
	<g>
		<path fill="#191919" d="M445.292,527.447l-47.811-94.023V404.68c-16.08,4.031-17.063,4.277-27.15,6.81v90.467l25.699,50.543
			c6.912,13.594,23.541,19.027,37.156,12.104C446.79,557.685,452.208,541.05,445.292,527.447z"/>
	</g>
</g>
<g>
	<g>
		<path fill="#191919" d="M295.532,430.24v137.406c0,15.262,12.371,27.633,27.633,27.633s27.631-12.371,27.631-27.633V416.384
			L295.532,430.24z"/>
	</g>
</g>
<g>
	<g>
		<path fill="#191919" d="M443.672,357.197l-97.771-215.104c-5.791-12.746-19.193-20.214-32.367-16.912
			c-18.41,4.616-30.076,7.541-46.666,11.701c-12.883,3.229-21.486,15.887-20.563,30.184c1.619,25.017,1.861,28.73,2.533,39.103
			l10.818,2.352l20.531-35.209l-16.15,57.345l-72.009-15.656l14.729,6.841c18.203,8.455,28.179,27.396,26.107,46.3l41.875,9.104
			c11.174,2.43,22.309-4.262,25.41-15.271l21.668-76.937l-1.742,82.548c-0.441,20.831-19.713,36.274-40.275,31.948
			c-11.93-2.6-6.324-1.379-25.271-5.499l7.047,108.813c0.52,8.045,7.758,13.818,14.971,12.013
			c34.838-8.736,124.729-31.271,159.592-40.013C443.319,373.048,447.01,364.541,443.672,357.197z"/>
	</g>
</g>
<g>
	<g>
		<path fill="#191919" d="M288.573,58.576c-6.41-25.566-32.332-41.095-57.898-34.686c-15.377,3.855-27.115,14.774-32.641,28.426
			c1.721-24.819-15.639-47.374-40.684-51.62c-26.67-4.519-51.955,13.437-56.475,40.108c-4.52,26.671,13.436,51.955,40.105,56.475
			c23.174,3.926,45.292-9.119,53.661-30.103c-0.302,4.79,0.114,9.707,1.344,14.611c6.41,25.565,32.331,41.095,57.897,34.685
			C279.45,110.063,294.981,84.141,288.573,58.576z"/>
	</g>
</g>
<g>
	<g>
		<path fill="#191919" d="M198.25,240.157l-73.981-34.361l-17.706-54.174l24.084,34.868l19.225,8.929l6.312-37.243
			c3.052-18.011-9.074-35.083-27.084-38.136l-59.713-10.12c-18.011-3.053-35.083,9.074-38.136,27.084
			c-1.517,8.956-28.119,165.94-30.881,182.229l0.267,0.045L0,566.609c-0.041,15.793,12.729,28.627,28.52,28.67
			c0.025,0,0.051,0,0.076,0c15.757,0,28.551-12.756,28.593-28.521l0.61-237.791l11.619,1.969l0.02,235.754
			c0.001,15.791,12.805,28.593,28.598,28.593c15.793-0.002,28.594-12.806,28.594-28.599l-0.02-233.987l7.471-44.09
			c-7.603-3.531-50.434-23.424-58.72-27.272c-9.286-4.313-14.841-13.416-15.122-22.999l-1.938-70.936l21.135,64.662
			c2.188,6.69,7.055,12.173,13.438,15.138l83.988,39.009c12.713,5.907,27.813,0.387,33.719-12.331
			C216.486,261.159,210.965,246.063,198.25,240.157z"/>
	</g>
</g>
</svg>
