<?xml version="1.0" encoding="utf-8"?>
<!-- Generator: Adobe Illustrator 16.0.3, SVG Export Plug-In . SVG Version: 6.00 Build 0)  -->
<!DOCTYPE svg PUBLIC "-//W3C//DTD SVG 1.1//EN" "http://www.w3.org/Graphics/SVG/1.1/DTD/svg11.dtd">
<svg version="1.1" id="Capa_1" xmlns="http://www.w3.org/2000/svg" xmlns:xlink="http://www.w3.org/1999/xlink" x="0px" y="0px"
	 width="347.475px" height="595.282px" viewBox="0 0 347.475 595.282" enable-background="new 0 0 347.475 595.282"
	 xml:space="preserve">
<g>
	<g>
		<path fill="#191919" d="M171.224,94.312c0,25.521,21.081,46.208,47.063,46.208c26.002,0,47.072-20.686,47.072-46.208H171.224
			L171.224,94.312z"/>
		<path fill="#191919" d="M314.984,90.744l-14.986,5.333l0.197,0.761c-9.39,5.728-22.339,8.986-14.582-4.939
			c3.924-6.977,3.323-13.85-1.306-19.662l2.459-1.371l-69.334-42.621l-65.26,43.1l13.709,8.639l0.009,7.333h104.999l-0.02-7.615
			l10.264-5.709c4.365,4.958,4.807,10.197,1.652,15.766c-8.582,15.184,1.924,20.451,18.338,10.836l0.16,0.517l15.032-5.333
			L314.984,90.744z"/>
		<path fill="#191919" d="M186.906,149.318l31.521,74.499l38.152-73.748C234.512,146.764,208.042,147.458,186.906,149.318z"/>
		<path fill="#191919" d="M278.635,155.468l-62.17,120.228l-52.331-123.665c-1.099,0.169-2.272,0.338-3.258,0.507
			C110.744,96.65,103.325,42.433,96.321,31.447l37.587,4.216l2.311-20.695L2.31,0L0,20.686l52.113,5.831
			c-7.709,6.348-12.179,16.338-8.657,28.921c19.052,67.964,55.897,125.12,108.987,169.506L119.589,479.25h33.55l0.414,89.203
			c0,34.922,54.385,34.979,54.385,0V479.25h19.759v89.711c0,33.615,52.815,36.545,52.815,0V479.25h33.646l-17.615-133.42
			c16.104,16.234,51.371,9.773,50.93-19.662C347.445,195.76,280.635,156.238,278.635,155.468z"/>
	</g>
</g>
</svg>
