<?xml version="1.0" encoding="utf-8"?>
<!-- Generator: Adobe Illustrator 16.0.3, SVG Export Plug-In . SVG Version: 6.00 Build 0)  -->
<!DOCTYPE svg PUBLIC "-//W3C//DTD SVG 1.1//EN" "http://www.w3.org/Graphics/SVG/1.1/DTD/svg11.dtd">
<svg version="1.1" id="Layer_1" xmlns="http://www.w3.org/2000/svg" xmlns:xlink="http://www.w3.org/1999/xlink" x="0px" y="0px"
	 width="343.532px" height="596.82px" viewBox="0 0 343.532 596.82" enable-background="new 0 0 343.532 596.82"
	 xml:space="preserve">
<g>
	<path fill="#191919" d="M329.351,379.357H318.81v-62.789h8.652c2.582,0,4.676-2.094,4.676-4.676v-15.586
		c0-2.583-2.094-4.676-4.676-4.676h-61.428c0.039-0.115,0.064-0.231,0.104-0.347l-37.463,0.987
		c-7.145-33.559-25.781-118.467-35.703-138.81v-0.081c0,0-0.029,0-0.029-0.073c-12.441-25.464-24.871-40.779-72.104-40.779h-4.854
		h-4.891c-47.229,0-59.643,15.344-72.1,40.779c0,0.073-0.037,0.073-0.037,0.073v0.081C26.548,178.968,0.4,306.005,0.4,306.005
		c-1.946,8.57,3.396,17.115,11.988,19.059c1.188,0.309,2.434,0.463,3.572,0.463c7.287,0,13.854-5.043,15.564-12.355L66.86,187.477
		L32.513,397.566h33.107l10.277,187.322c0,6.564,5.367,11.93,11.813,11.93c6.76,0,12.08-5.363,12.08-11.93l10.201-187.322h6.002
		h6.001l10.187,187.322c0,6.564,5.349,11.93,12.09,11.93c6.449,0,11.814-5.363,11.814-11.93l10.316-187.322h33.064l-34.34-210.089
		l35.35,125.694c1.715,7.313,8.281,12.355,15.58,12.355c1.129,0,2.373-0.154,3.576-0.463c4.861-1.1,8.674-4.338,10.707-8.498h8.059
		v62.789h-10.539c-7.834,0-14.184,6.35-14.184,14.184v162.703c0,7.834,6.35,14.184,14.184,14.184h10.539v15.32
		c0,5.342,4.334,9.674,9.676,9.674s9.674-4.332,9.674-9.674v-15.32h41.713v15.32c0,5.342,4.332,9.674,9.674,9.674
		c5.344,0,9.676-4.332,9.676-9.674v-15.32h10.539c7.834,0,14.186-6.352,14.186-14.184V393.539
		C343.533,385.707,337.185,379.357,329.351,379.357z M299.462,379.357h-41.707v-62.789h41.707V379.357L299.462,379.357z"/>
	<path fill="#191919" d="M115.986,99.63c27.494,0,49.799-22.24,49.799-49.771C165.785,22.328,143.48,0,115.986,0
		C88.499,0,66.173,22.328,66.173,49.859C66.173,77.39,88.499,99.63,115.986,99.63z"/>
</g>
</svg>
