<?xml version="1.0" encoding="utf-8"?>
<!-- Generator: Adobe Illustrator 16.0.3, SVG Export Plug-In . SVG Version: 6.00 Build 0)  -->
<!DOCTYPE svg PUBLIC "-//W3C//DTD SVG 1.1//EN" "http://www.w3.org/Graphics/SVG/1.1/DTD/svg11.dtd">
<svg version="1.1" id="Layer_1" xmlns="http://www.w3.org/2000/svg" xmlns:xlink="http://www.w3.org/1999/xlink" x="0px" y="0px"
	 width="713.402px" height="576.364px" viewBox="0 0 713.402 576.364" enable-background="new 0 0 713.402 576.364"
	 xml:space="preserve">
<g>
	<g>
		<path fill="#191919" d="M604.027,347.793H475.441c-10.666,0-19.32,8.652-19.32,19.318v35.129h167.227v-35.129
			C623.348,356.448,614.693,347.793,604.027,347.793z"/>
	</g>
</g>
<g>
	<g>
		<path fill="#191919" d="M709.936,350.518L592.557,233.139l22.67-22.632c3.738,3.296,9.488,3.135,13.023-0.402
			c3.699-3.738,3.699-9.728,0-13.466l-48.879-48.842c-3.699-3.738-9.729-3.738-13.428,0c-3.738,3.699-3.738,9.729,0,13.427
			l-0.4-0.402l-62.066,62.026l0.4,0.441c-3.697-3.738-9.729-3.738-13.426,0c-3.738,3.698-3.738,9.729,0,13.427l48.842,48.881
			c3.738,3.698,9.768,3.698,13.467,0c3.697-3.738,3.697-9.728,0-13.466l0.4,0.401l22.672-22.632l117.34,117.341
			c4.623,4.623,12.141,4.623,16.764,0S714.559,355.141,709.936,350.518z"/>
	</g>
</g>
<g>
	<g>
		<g>
			<path fill="#191919" d="M419.313,63.16h-120.71l-9.931-51.429c-1.463-7.578-8.791-12.533-16.374-11.074l-27.446,5.297
				c-3.642,0.704-6.852,2.825-8.93,5.893c-2.077,3.07-2.85,6.84-2.146,10.48l7.884,40.831h-36.591l8.789-40.233
				c0.79-3.622,0.112-7.409-1.892-10.53c-2.001-3.12-5.159-5.317-8.782-6.108l-27.307-5.965c-3.62-0.791-7.409-0.111-10.529,1.891
				c-3.12,2.001-5.319,5.16-6.108,8.782l-11.393,52.164H13.977C6.26,63.159,0,69.417,0,77.136v314.279
				c0,7.719,6.26,13.977,13.977,13.977h59.116L39.455,559.407c-0.903,4.129,0.113,8.451,2.767,11.744
				c2.652,3.295,6.654,5.213,10.887,5.213h28.612c6.57,0,12.253-4.574,13.654-10.992l12.256-56.098h220.161l10.764,55.762
				c1.27,6.576,7.027,11.328,13.723,11.328h28.47c0,0,0.02,0,0.029,0c7.717,0,13.977-6.26,13.977-13.979
				c0-1.227-0.154-2.418-0.451-3.557l-29.627-153.439h54.637c7.717,0,13.977-6.258,13.977-13.977V77.137
				C433.289,69.417,427.029,63.16,419.313,63.16z M316.993,453.366H119.838l10.48-47.977h177.416L316.993,453.366z M41.931,363.459
				V105.091h349.429v258.369H41.931L41.931,363.459z"/>
			<path fill="#191919" d="M314.64,217.138c-0.476-2.605-1.987-4.908-4.19-6.379c-2.199-1.471-4.904-1.988-7.496-1.429
				c-5.703,1.23-14.548,3.29-25.21,6.29l-4.209-13.037c8.457-2.434,16.947-4.167,25.276-5.155c5.197-0.615,8.99-5.208,8.609-10.425
				l-0.928-12.735c-0.197-2.659-1.463-5.123-3.516-6.823c-2.053-1.7-4.707-2.492-7.354-2.188
				c-14.654,1.676-29.505,5.191-44.178,10.458l-5.105-12.765c-0.972-2.432-2.88-4.372-5.293-5.387
				c-2.416-1.015-5.138-1.019-7.554-0.011c-3.663,1.526-7.349,3.127-11.009,4.753l-0.762-3.477c-0.56-2.555-2.124-4.779-4.332-6.176
				c-2.214-1.399-4.894-1.853-7.437-1.261c-20.129,4.666-47.759,12.174-83.045,28.966c-2.367,1.127-4.185,3.154-5.041,5.632
				c-0.858,2.477-0.687,5.194,0.477,7.543l5.663,11.435c1.703,3.442,5.167,5.445,8.774,5.445c1.406,0,2.832-0.304,4.186-0.946
				c1.881-0.894,3.77-1.759,5.659-2.62c-8.531,6.773-16.403,13.854-23.496,21.199c-0.845,0.874-1.676,1.74-2.498,2.597
				c-3.721,3.892-3.598,10.061,0.276,13.801l9.229,8.909c1.888,1.821,4.379,2.798,7.046,2.741c2.621-0.067,5.105-1.184,6.897-3.099
				c0.77-0.823,1.561-1.68,2.371-2.566c3.066-3.171,6.31-6.295,9.72-9.367c-0.011,0.216-0.014,0.436-0.007,0.654
				c0.053,2.691,1.213,5.24,3.208,7.047l5.58,5.062c-12.919,10.753-24.651,22.331-34.903,34.447
				c-1.709,2.019-2.528,4.642-2.27,7.272c0.259,2.629,1.57,5.045,3.636,6.695l9.977,7.959c1.8,1.436,3.956,2.135,6.097,2.135
				c2.775,0,5.531-1.176,7.46-3.449c8.512-10.018,18.256-19.668,28.988-28.717l4.025,4.426c3.474,3.82,9.317,4.283,13.351,1.06
				c0.677-0.542,1.369-1.082,2.075-1.621c-0.776,1.786-1.01,3.779-0.642,5.726c0.502,2.65,2.081,4.98,4.36,6.436l10.784,6.861
				c4.331,2.758,10.058,1.699,13.115-2.426c17.278-23.323,43.798-35.758,54.396-40.022c4.707-1.893,7.188-7.07,5.711-11.923
				l-0.89-2.924c8.064-2.188,14.792-3.761,19.191-4.727c5.146-1.131,8.471-6.132,7.526-11.313L314.64,217.138z"/>
		</g>
	</g>
</g>
</svg>
