<?xml version="1.0" encoding="utf-8"?>
<!-- Generator: Adobe Illustrator 16.0.3, SVG Export Plug-In . SVG Version: 6.00 Build 0)  -->
<!DOCTYPE svg PUBLIC "-//W3C//DTD SVG 1.1//EN" "http://www.w3.org/Graphics/SVG/1.1/DTD/svg11.dtd">
<svg version="1.1" id="Layer_1" xmlns="http://www.w3.org/2000/svg" xmlns:xlink="http://www.w3.org/1999/xlink" x="0px" y="0px"
	 width="771.585px" height="519.324px" viewBox="0 0 771.585 519.324" enable-background="new 0 0 771.585 519.324"
	 xml:space="preserve">
<g>
	<g>
		<g>
			<path fill="#7F7F7F" d="M761.587,45.188h-86.363l-7.105-36.795c-1.047-5.422-6.289-8.967-11.715-7.923l-19.637,3.79
				c-2.605,0.503-4.902,2.021-6.389,4.216c-1.486,2.197-2.039,4.894-1.535,7.498l5.641,29.213h-26.18l6.289-28.785
				c0.564-2.591,0.08-5.301-1.354-7.534c-1.432-2.232-3.691-3.804-6.283-4.37L587.419,0.23c-2.59-0.566-5.301-0.079-7.533,1.353
				s-3.807,3.692-4.371,6.283l-8.15,37.321h-95.777c-5.521,0-10,4.477-10,10v224.853c0,5.521,4.479,10,10,10h42.295L489.816,400.23
				c-0.646,2.955,0.08,6.049,1.979,8.402c1.898,2.357,4.764,3.73,7.789,3.73h20.473c4.699,0,8.768-3.273,9.77-7.865l8.768-40.135
				h157.514l7.701,39.895c0.908,4.705,5.027,8.105,9.818,8.105h20.369c0,0,0.014,0,0.021,0c5.52,0,10-4.479,10-10
				c0-0.879-0.111-1.73-0.324-2.545l-21.195-109.777h39.09c5.521,0,10-4.479,10-10V55.188
				C771.587,49.666,767.109,45.188,761.587,45.188z M688.382,324.365H547.326l7.498-34.324h126.934L688.382,324.365z
				 M491.587,260.041V75.188h250v184.853H491.587z"/>
			<path fill="#7F7F7F" d="M686.699,155.354c-0.34-1.864-1.422-3.511-2.998-4.564c-1.574-1.052-3.51-1.422-5.363-1.022
				c-4.08,0.88-10.408,2.354-18.037,4.5l-3.012-9.327c6.051-1.742,12.125-2.981,18.084-3.688c3.719-0.44,6.432-3.726,6.16-7.459
				l-0.664-9.112c-0.141-1.902-1.047-3.665-2.516-4.881c-1.471-1.216-3.367-1.783-5.264-1.565
				c-10.482,1.199-21.107,3.714-31.605,7.482l-3.652-9.133c-0.695-1.74-2.061-3.128-3.787-3.854
				c-1.729-0.726-3.676-0.729-5.404-0.008c-2.621,1.092-5.258,2.238-7.877,3.401l-0.545-2.487c-0.4-1.828-1.52-3.419-3.1-4.419
				c-1.584-1.001-3.5-1.326-5.32-0.902c-14.4,3.338-34.17,8.71-59.414,20.724c-1.693,0.806-2.994,2.257-3.607,4.03
				c-0.613,1.772-0.49,3.716,0.342,5.397l4.051,8.181c1.221,2.463,3.697,3.896,6.277,3.896c1.006,0,2.027-0.218,2.996-0.677
				c1.346-0.639,2.697-1.258,4.049-1.874c-6.104,4.846-11.736,9.912-16.811,15.167c-0.605,0.625-1.199,1.245-1.787,1.858
				c-2.662,2.785-2.574,7.198,0.197,9.874l6.604,6.374c1.35,1.303,3.133,2.002,5.041,1.961c1.875-0.048,3.652-0.847,4.934-2.217
				c0.553-0.589,1.117-1.202,1.697-1.836c2.193-2.269,4.514-4.504,6.953-6.702c-0.008,0.155-0.01,0.313-0.004,0.468
				c0.037,1.925,0.867,3.749,2.295,5.042l3.992,3.621c-9.244,7.694-17.637,15.977-24.973,24.646
				c-1.223,1.443-1.809,3.32-1.623,5.204c0.186,1.881,1.123,3.608,2.602,4.789l7.137,5.694c1.289,1.028,2.83,1.528,4.363,1.528
				c1.984,0,3.957-0.842,5.338-2.469c6.09-7.166,13.061-14.07,20.738-20.545l2.881,3.167c2.484,2.733,6.666,3.065,9.551,0.758
				c0.484-0.387,0.98-0.774,1.484-1.159c-0.555,1.277-0.723,2.704-0.459,4.095c0.359,1.897,1.488,3.563,3.119,4.604l7.717,4.91
				c3.098,1.973,7.195,1.215,9.383-1.736c12.361-16.687,31.336-25.583,38.918-28.634c3.367-1.354,5.143-5.058,4.086-8.53
				l-0.637-2.092c5.77-1.565,10.584-2.691,13.73-3.382c3.682-0.809,6.061-4.387,5.385-8.094L686.699,155.354z"/>
		</g>
	</g>
</g>
<g>
	<g>
		<path fill="#191919" d="M312.239,194.201c-4.396-12.142-17.803-18.418-29.945-14.023l-76.044,27.535l-62.405-46.16l62.589,24.509
			l0.069-4.346c0.928-18.878-13.394-35.126-32.341-36.47l-59.171-4.2c-9.697-0.687-19.238,2.703-26.326,9.356
			c-7.087,6.653-11.075,15.963-11.002,25.682l1.293,170.063H62.403L37.264,147.644c-1.296-10.249-10.655-17.506-20.906-16.207
			C6.109,132.734-1.146,142.094,0.15,152.342l27.21,214.858c1.183,9.348,9.135,16.354,18.556,16.354h67.548v76.598l-44.432,36.271
			c-5.519,4.508-6.344,12.635-1.836,18.154c4.506,5.52,12.635,6.342,18.154,1.836l28.113-22.949v12.955
			c0,7.125,5.776,12.902,12.902,12.902c7.125,0,12.902-5.777,12.902-12.902v-12.955l28.113,22.949
			c5.524,4.508,13.65,3.682,18.154-1.836c4.506-5.521,3.684-13.648-1.836-18.154l-44.431-36.271v-76.596h61.593
			c9.344,0,17.066-6.861,18.459-15.814l4.495,1.16l16.09,125.916c1.965,15.383,16.028,26.24,31.387,24.275
			c15.371-1.963,26.239-16.016,24.275-31.387l-18.498-144.773c-1.455-11.389-9.701-20.742-20.817-23.611l-38.427-15.084
			l-8.576-20.076c-9.761,0.225-29.146-18.184-35.216-25.818l-57.997-59.198l72.483,53.614c6.192,4.58,14.385,5.896,21.865,3.188
			l87.832-31.802C310.357,219.75,316.634,206.341,312.239,194.201z"/>
	</g>
</g>
<g>
	<g>
		<circle fill="#191919" cx="156.716" cy="66.069" r="51.606"/>
	</g>
</g>
<g>
	<g>
		<path fill="#191919" d="M575.929,271.406H314.007c-10.688,0-19.353,8.666-19.353,19.354c0,10.689,8.666,19.355,19.353,19.355h2.58
			v196.305c0,7.125,5.775,12.902,12.902,12.902c7.125,0,12.901-5.777,12.901-12.902V310.115h206.441v196.305
			c0,7.125,5.777,12.902,12.902,12.902c7.127,0,12.902-5.777,12.902-12.902V310.115c13.4,0,20.645-9.682,20.645-19.355
			C595.283,280.072,586.619,271.406,575.929,271.406z"/>
	</g>
</g>
<g>
	<g>
		<path fill="#191919" d="M450.523,155.413c-6.248-3.424-14.088-1.134-17.516,5.115l-38.906,71.014c-7.279,0-61.067,0-69.963,0
			c-7.127,0-12.902,5.775-12.902,12.901c0,0.196,0.021,0.388,0.029,0.581c0.309,6.854,5.945,12.32,12.873,12.32h77.608
			c4.715,0,9.053-2.569,11.316-6.702l42.578-77.715C459.064,166.678,456.771,158.836,450.523,155.413z"/>
	</g>
</g>
</svg>
